<?xml version="1.0" encoding="utf-8"?>
<svg xmlns="http://www.w3.org/2000/svg" xmlns:xlink="http://www.w3.org/1999/xlink" width="600" height="400" viewBox="0 0 2400 1600">
<defs>
  <clipPath id="clip040">
    <rect x="0" y="0" width="2400" height="1600"/>
  </clipPath>
</defs>
<path clip-path="url(#clip040)" d="M0 1600 L2400 1600 L2400 0 L0 0  Z" fill="#ffffff" fill-rule="evenodd" fill-opacity="1"/>
<defs>
  <clipPath id="clip041">
    <rect x="480" y="0" width="1681" height="1600"/>
  </clipPath>
</defs>
<path clip-path="url(#clip040)" d="M203.964 1423.18 L2352.76 1423.18 L2352.76 123.472 L203.964 123.472  Z" fill="#ffffff" fill-rule="evenodd" fill-opacity="1"/>
<defs>
  <clipPath id="clip042">
    <rect x="203" y="123" width="2150" height="1301"/>
  </clipPath>
</defs>
<polyline clip-path="url(#clip042)" style="stroke:#000000; stroke-linecap:round; stroke-linejoin:round; stroke-width:2; stroke-opacity:0.1; fill:none" points="264.778,1423.18 264.778,123.472 "/>
<polyline clip-path="url(#clip042)" style="stroke:#000000; stroke-linecap:round; stroke-linejoin:round; stroke-width:2; stroke-opacity:0.1; fill:none" points="771.569,1423.18 771.569,123.472 "/>
<polyline clip-path="url(#clip042)" style="stroke:#000000; stroke-linecap:round; stroke-linejoin:round; stroke-width:2; stroke-opacity:0.1; fill:none" points="1278.36,1423.18 1278.36,123.472 "/>
<polyline clip-path="url(#clip042)" style="stroke:#000000; stroke-linecap:round; stroke-linejoin:round; stroke-width:2; stroke-opacity:0.1; fill:none" points="1785.15,1423.18 1785.15,123.472 "/>
<polyline clip-path="url(#clip042)" style="stroke:#000000; stroke-linecap:round; stroke-linejoin:round; stroke-width:2; stroke-opacity:0.1; fill:none" points="2291.94,1423.18 2291.94,123.472 "/>
<polyline clip-path="url(#clip040)" style="stroke:#000000; stroke-linecap:round; stroke-linejoin:round; stroke-width:4; stroke-opacity:1; fill:none" points="203.964,1423.18 2352.76,1423.18 "/>
<polyline clip-path="url(#clip040)" style="stroke:#000000; stroke-linecap:round; stroke-linejoin:round; stroke-width:4; stroke-opacity:1; fill:none" points="264.778,1423.18 264.778,1404.28 "/>
<polyline clip-path="url(#clip040)" style="stroke:#000000; stroke-linecap:round; stroke-linejoin:round; stroke-width:4; stroke-opacity:1; fill:none" points="771.569,1423.18 771.569,1404.28 "/>
<polyline clip-path="url(#clip040)" style="stroke:#000000; stroke-linecap:round; stroke-linejoin:round; stroke-width:4; stroke-opacity:1; fill:none" points="1278.36,1423.18 1278.36,1404.28 "/>
<polyline clip-path="url(#clip040)" style="stroke:#000000; stroke-linecap:round; stroke-linejoin:round; stroke-width:4; stroke-opacity:1; fill:none" points="1785.15,1423.18 1785.15,1404.28 "/>
<polyline clip-path="url(#clip040)" style="stroke:#000000; stroke-linecap:round; stroke-linejoin:round; stroke-width:4; stroke-opacity:1; fill:none" points="2291.94,1423.18 2291.94,1404.28 "/>
<path clip-path="url(#clip040)" d="M264.778 1454.1 Q261.167 1454.1 259.339 1457.66 Q257.533 1461.2 257.533 1468.33 Q257.533 1475.44 259.339 1479.01 Q261.167 1482.55 264.778 1482.55 Q268.413 1482.55 270.218 1479.01 Q272.047 1475.44 272.047 1468.33 Q272.047 1461.2 270.218 1457.66 Q268.413 1454.1 264.778 1454.1 M264.778 1450.39 Q270.589 1450.39 273.644 1455 Q276.723 1459.58 276.723 1468.33 Q276.723 1477.06 273.644 1481.67 Q270.589 1486.25 264.778 1486.25 Q258.968 1486.25 255.89 1481.67 Q252.834 1477.06 252.834 1468.33 Q252.834 1459.58 255.89 1455 Q258.968 1450.39 264.778 1450.39 Z" fill="#000000" fill-rule="nonzero" fill-opacity="1" /><path clip-path="url(#clip040)" d="M735.261 1481.64 L751.581 1481.64 L751.581 1485.58 L729.636 1485.58 L729.636 1481.64 Q732.298 1478.89 736.882 1474.26 Q741.488 1469.61 742.669 1468.27 Q744.914 1465.74 745.794 1464.01 Q746.697 1462.25 746.697 1460.56 Q746.697 1457.8 744.752 1456.07 Q742.831 1454.33 739.729 1454.33 Q737.53 1454.33 735.076 1455.09 Q732.646 1455.86 729.868 1457.41 L729.868 1452.69 Q732.692 1451.55 735.146 1450.97 Q737.599 1450.39 739.636 1450.39 Q745.007 1450.39 748.201 1453.08 Q751.396 1455.77 751.396 1460.26 Q751.396 1462.39 750.585 1464.31 Q749.798 1466.2 747.692 1468.8 Q747.113 1469.47 744.011 1472.69 Q740.91 1475.88 735.261 1481.64 Z" fill="#000000" fill-rule="nonzero" fill-opacity="1" /><path clip-path="url(#clip040)" d="M761.442 1451.02 L779.798 1451.02 L779.798 1454.96 L765.724 1454.96 L765.724 1463.43 Q766.743 1463.08 767.761 1462.92 Q768.78 1462.73 769.798 1462.73 Q775.585 1462.73 778.965 1465.9 Q782.345 1469.08 782.345 1474.49 Q782.345 1480.07 778.872 1483.17 Q775.4 1486.25 769.081 1486.25 Q766.905 1486.25 764.636 1485.88 Q762.391 1485.51 759.984 1484.77 L759.984 1480.07 Q762.067 1481.2 764.289 1481.76 Q766.511 1482.32 768.988 1482.32 Q772.993 1482.32 775.331 1480.21 Q777.669 1478.1 777.669 1474.49 Q777.669 1470.88 775.331 1468.77 Q772.993 1466.67 768.988 1466.67 Q767.113 1466.67 765.238 1467.08 Q763.386 1467.5 761.442 1468.38 L761.442 1451.02 Z" fill="#000000" fill-rule="nonzero" fill-opacity="1" /><path clip-path="url(#clip040)" d="M801.557 1454.1 Q797.946 1454.1 796.118 1457.66 Q794.312 1461.2 794.312 1468.33 Q794.312 1475.44 796.118 1479.01 Q797.946 1482.55 801.557 1482.55 Q805.192 1482.55 806.997 1479.01 Q808.826 1475.44 808.826 1468.33 Q808.826 1461.2 806.997 1457.66 Q805.192 1454.1 801.557 1454.1 M801.557 1450.39 Q807.368 1450.39 810.423 1455 Q813.502 1459.58 813.502 1468.33 Q813.502 1477.06 810.423 1481.67 Q807.368 1486.25 801.557 1486.25 Q795.747 1486.25 792.669 1481.67 Q789.613 1477.06 789.613 1468.33 Q789.613 1459.58 792.669 1455 Q795.747 1450.39 801.557 1450.39 Z" fill="#000000" fill-rule="nonzero" fill-opacity="1" /><path clip-path="url(#clip040)" d="M1237.98 1451.02 L1256.33 1451.02 L1256.33 1454.96 L1242.26 1454.96 L1242.26 1463.43 Q1243.28 1463.08 1244.3 1462.92 Q1245.32 1462.73 1246.33 1462.73 Q1252.12 1462.73 1255.5 1465.9 Q1258.88 1469.08 1258.88 1474.49 Q1258.88 1480.07 1255.41 1483.17 Q1251.94 1486.25 1245.62 1486.25 Q1243.44 1486.25 1241.17 1485.88 Q1238.93 1485.51 1236.52 1484.77 L1236.52 1480.07 Q1238.6 1481.2 1240.83 1481.76 Q1243.05 1482.32 1245.52 1482.32 Q1249.53 1482.32 1251.87 1480.21 Q1254.2 1478.1 1254.2 1474.49 Q1254.2 1470.88 1251.87 1468.77 Q1249.53 1466.67 1245.52 1466.67 Q1243.65 1466.67 1241.77 1467.08 Q1239.92 1467.5 1237.98 1468.38 L1237.98 1451.02 Z" fill="#000000" fill-rule="nonzero" fill-opacity="1" /><path clip-path="url(#clip040)" d="M1278.09 1454.1 Q1274.48 1454.1 1272.65 1457.66 Q1270.85 1461.2 1270.85 1468.33 Q1270.85 1475.44 1272.65 1479.01 Q1274.48 1482.55 1278.09 1482.55 Q1281.73 1482.55 1283.53 1479.01 Q1285.36 1475.44 1285.36 1468.33 Q1285.36 1461.2 1283.53 1457.66 Q1281.73 1454.1 1278.09 1454.1 M1278.09 1450.39 Q1283.9 1450.39 1286.96 1455 Q1290.04 1459.58 1290.04 1468.33 Q1290.04 1477.06 1286.96 1481.67 Q1283.9 1486.25 1278.09 1486.25 Q1272.28 1486.25 1269.2 1481.67 Q1266.15 1477.06 1266.15 1468.33 Q1266.15 1459.58 1269.2 1455 Q1272.28 1450.39 1278.09 1450.39 Z" fill="#000000" fill-rule="nonzero" fill-opacity="1" /><path clip-path="url(#clip040)" d="M1308.26 1454.1 Q1304.64 1454.1 1302.82 1457.66 Q1301.01 1461.2 1301.01 1468.33 Q1301.01 1475.44 1302.82 1479.01 Q1304.64 1482.55 1308.26 1482.55 Q1311.89 1482.55 1313.7 1479.01 Q1315.52 1475.44 1315.52 1468.33 Q1315.52 1461.2 1313.7 1457.66 Q1311.89 1454.1 1308.26 1454.1 M1308.26 1450.39 Q1314.07 1450.39 1317.12 1455 Q1320.2 1459.58 1320.2 1468.33 Q1320.2 1477.06 1317.12 1481.67 Q1314.07 1486.25 1308.26 1486.25 Q1302.45 1486.25 1299.37 1481.67 Q1296.31 1477.06 1296.31 1468.33 Q1296.31 1459.58 1299.37 1455 Q1302.45 1450.39 1308.26 1450.39 Z" fill="#000000" fill-rule="nonzero" fill-opacity="1" /><path clip-path="url(#clip040)" d="M1743.43 1451.02 L1765.65 1451.02 L1765.65 1453.01 L1753.1 1485.58 L1748.22 1485.58 L1760.02 1454.96 L1743.43 1454.96 L1743.43 1451.02 Z" fill="#000000" fill-rule="nonzero" fill-opacity="1" /><path clip-path="url(#clip040)" d="M1774.81 1451.02 L1793.17 1451.02 L1793.17 1454.96 L1779.1 1454.96 L1779.1 1463.43 Q1780.12 1463.08 1781.13 1462.92 Q1782.15 1462.73 1783.17 1462.73 Q1788.96 1462.73 1792.34 1465.9 Q1795.72 1469.08 1795.72 1474.49 Q1795.72 1480.07 1792.25 1483.17 Q1788.77 1486.25 1782.45 1486.25 Q1780.28 1486.25 1778.01 1485.88 Q1775.76 1485.51 1773.36 1484.77 L1773.36 1480.07 Q1775.44 1481.2 1777.66 1481.76 Q1779.88 1482.32 1782.36 1482.32 Q1786.37 1482.32 1788.7 1480.21 Q1791.04 1478.1 1791.04 1474.49 Q1791.04 1470.88 1788.7 1468.77 Q1786.37 1466.67 1782.36 1466.67 Q1780.49 1466.67 1778.61 1467.08 Q1776.76 1467.5 1774.81 1468.38 L1774.81 1451.02 Z" fill="#000000" fill-rule="nonzero" fill-opacity="1" /><path clip-path="url(#clip040)" d="M1814.93 1454.1 Q1811.32 1454.1 1809.49 1457.66 Q1807.68 1461.2 1807.68 1468.33 Q1807.68 1475.44 1809.49 1479.01 Q1811.32 1482.55 1814.93 1482.55 Q1818.56 1482.55 1820.37 1479.01 Q1822.2 1475.44 1822.2 1468.33 Q1822.2 1461.2 1820.37 1457.66 Q1818.56 1454.1 1814.93 1454.1 M1814.93 1450.39 Q1820.74 1450.39 1823.8 1455 Q1826.87 1459.58 1826.87 1468.33 Q1826.87 1477.06 1823.8 1481.67 Q1820.74 1486.25 1814.93 1486.25 Q1809.12 1486.25 1806.04 1481.67 Q1802.99 1477.06 1802.99 1468.33 Q1802.99 1459.58 1806.04 1455 Q1809.12 1450.39 1814.93 1450.39 Z" fill="#000000" fill-rule="nonzero" fill-opacity="1" /><path clip-path="url(#clip040)" d="M2236.47 1481.64 L2244.11 1481.64 L2244.11 1455.28 L2235.8 1456.95 L2235.8 1452.69 L2244.06 1451.02 L2248.74 1451.02 L2248.74 1481.64 L2256.37 1481.64 L2256.37 1485.58 L2236.47 1485.58 L2236.47 1481.64 Z" fill="#000000" fill-rule="nonzero" fill-opacity="1" /><path clip-path="url(#clip040)" d="M2275.82 1454.1 Q2272.21 1454.1 2270.38 1457.66 Q2268.57 1461.2 2268.57 1468.33 Q2268.57 1475.44 2270.38 1479.01 Q2272.21 1482.55 2275.82 1482.55 Q2279.45 1482.55 2281.26 1479.01 Q2283.09 1475.44 2283.09 1468.33 Q2283.09 1461.2 2281.26 1457.66 Q2279.45 1454.1 2275.82 1454.1 M2275.82 1450.39 Q2281.63 1450.39 2284.68 1455 Q2287.76 1459.58 2287.76 1468.33 Q2287.76 1477.06 2284.68 1481.67 Q2281.63 1486.25 2275.82 1486.25 Q2270.01 1486.25 2266.93 1481.67 Q2263.87 1477.06 2263.87 1468.33 Q2263.87 1459.58 2266.93 1455 Q2270.01 1450.39 2275.82 1450.39 Z" fill="#000000" fill-rule="nonzero" fill-opacity="1" /><path clip-path="url(#clip040)" d="M2305.98 1454.1 Q2302.37 1454.1 2300.54 1457.66 Q2298.73 1461.2 2298.73 1468.33 Q2298.73 1475.44 2300.54 1479.01 Q2302.37 1482.55 2305.98 1482.55 Q2309.61 1482.55 2311.42 1479.01 Q2313.25 1475.44 2313.25 1468.33 Q2313.25 1461.2 2311.42 1457.66 Q2309.61 1454.1 2305.98 1454.1 M2305.98 1450.39 Q2311.79 1450.39 2314.85 1455 Q2317.92 1459.58 2317.92 1468.33 Q2317.92 1477.06 2314.85 1481.67 Q2311.79 1486.25 2305.98 1486.25 Q2300.17 1486.25 2297.09 1481.67 Q2294.04 1477.06 2294.04 1468.33 Q2294.04 1459.58 2297.09 1455 Q2300.17 1450.39 2305.98 1450.39 Z" fill="#000000" fill-rule="nonzero" fill-opacity="1" /><path clip-path="url(#clip040)" d="M2336.14 1454.1 Q2332.53 1454.1 2330.7 1457.66 Q2328.9 1461.2 2328.9 1468.33 Q2328.9 1475.44 2330.7 1479.01 Q2332.53 1482.55 2336.14 1482.55 Q2339.78 1482.55 2341.58 1479.01 Q2343.41 1475.44 2343.41 1468.33 Q2343.41 1461.2 2341.58 1457.66 Q2339.78 1454.1 2336.14 1454.1 M2336.14 1450.39 Q2341.95 1450.39 2345.01 1455 Q2348.09 1459.58 2348.09 1468.33 Q2348.09 1477.06 2345.01 1481.67 Q2341.95 1486.25 2336.14 1486.25 Q2330.33 1486.25 2327.25 1481.67 Q2324.2 1477.06 2324.2 1468.33 Q2324.2 1459.58 2327.25 1455 Q2330.33 1450.39 2336.14 1450.39 Z" fill="#000000" fill-rule="nonzero" fill-opacity="1" /><path clip-path="url(#clip040)" d="M1146.08 1520.52 L1152.51 1520.52 L1152.51 1568.04 L1146.08 1568.04 L1146.08 1520.52 Z" fill="#000000" fill-rule="nonzero" fill-opacity="1" /><path clip-path="url(#clip040)" d="M1170.84 1522.27 L1170.84 1532.4 L1182.91 1532.4 L1182.91 1536.95 L1170.84 1536.95 L1170.84 1556.3 Q1170.84 1560.66 1172.02 1561.9 Q1173.23 1563.14 1176.89 1563.14 L1182.91 1563.14 L1182.91 1568.04 L1176.89 1568.04 Q1170.11 1568.04 1167.53 1565.53 Q1164.95 1562.98 1164.95 1556.3 L1164.95 1536.95 L1160.66 1536.95 L1160.66 1532.4 L1164.95 1532.4 L1164.95 1522.27 L1170.84 1522.27 Z" fill="#000000" fill-rule="nonzero" fill-opacity="1" /><path clip-path="url(#clip040)" d="M1221.1 1548.76 L1221.1 1551.62 L1194.17 1551.62 Q1194.56 1557.67 1197.8 1560.85 Q1201.08 1564 1206.9 1564 Q1210.28 1564 1213.43 1563.17 Q1216.61 1562.35 1219.73 1560.69 L1219.73 1566.23 Q1216.58 1567.57 1213.27 1568.27 Q1209.96 1568.97 1206.55 1568.97 Q1198.02 1568.97 1193.03 1564 Q1188.06 1559.04 1188.06 1550.57 Q1188.06 1541.82 1192.77 1536.69 Q1197.52 1531.54 1205.54 1531.54 Q1212.73 1531.54 1216.9 1536.18 Q1221.1 1540.8 1221.1 1548.76 M1215.24 1547.04 Q1215.18 1542.23 1212.54 1539.37 Q1209.93 1536.5 1205.6 1536.5 Q1200.7 1536.5 1197.74 1539.27 Q1194.81 1542.04 1194.36 1547.07 L1215.24 1547.04 Z" fill="#000000" fill-rule="nonzero" fill-opacity="1" /><path clip-path="url(#clip040)" d="M1251.37 1537.87 Q1250.38 1537.3 1249.2 1537.04 Q1248.06 1536.76 1246.66 1536.76 Q1241.69 1536.76 1239.02 1540 Q1236.38 1543.22 1236.38 1549.27 L1236.38 1568.04 L1230.49 1568.04 L1230.49 1532.4 L1236.38 1532.4 L1236.38 1537.93 Q1238.22 1534.69 1241.18 1533.13 Q1244.14 1531.54 1248.38 1531.54 Q1248.98 1531.54 1249.71 1531.63 Q1250.45 1531.7 1251.34 1531.85 L1251.37 1537.87 Z" fill="#000000" fill-rule="nonzero" fill-opacity="1" /><path clip-path="url(#clip040)" d="M1273.71 1550.12 Q1266.62 1550.12 1263.88 1551.75 Q1261.14 1553.37 1261.14 1557.29 Q1261.14 1560.4 1263.18 1562.25 Q1265.25 1564.07 1268.78 1564.07 Q1273.65 1564.07 1276.58 1560.63 Q1279.54 1557.16 1279.54 1551.43 L1279.54 1550.12 L1273.71 1550.12 M1285.39 1547.71 L1285.39 1568.04 L1279.54 1568.04 L1279.54 1562.63 Q1277.53 1565.88 1274.54 1567.44 Q1271.55 1568.97 1267.22 1568.97 Q1261.75 1568.97 1258.5 1565.91 Q1255.28 1562.82 1255.28 1557.67 Q1255.28 1551.65 1259.29 1548.6 Q1263.34 1545.54 1271.33 1545.54 L1279.54 1545.54 L1279.54 1544.97 Q1279.54 1540.93 1276.86 1538.73 Q1274.22 1536.5 1269.42 1536.5 Q1266.36 1536.5 1263.46 1537.23 Q1260.57 1537.97 1257.89 1539.43 L1257.89 1534.02 Q1261.11 1532.78 1264.13 1532.17 Q1267.16 1531.54 1270.02 1531.54 Q1277.75 1531.54 1281.57 1535.55 Q1285.39 1539.56 1285.39 1547.71 Z" fill="#000000" fill-rule="nonzero" fill-opacity="1" /><path clip-path="url(#clip040)" d="M1303.25 1522.27 L1303.25 1532.4 L1315.31 1532.4 L1315.31 1536.95 L1303.25 1536.95 L1303.25 1556.3 Q1303.25 1560.66 1304.43 1561.9 Q1305.64 1563.14 1309.3 1563.14 L1315.31 1563.14 L1315.31 1568.04 L1309.3 1568.04 Q1302.52 1568.04 1299.94 1565.53 Q1297.36 1562.98 1297.36 1556.3 L1297.36 1536.95 L1293.06 1536.95 L1293.06 1532.4 L1297.36 1532.4 L1297.36 1522.27 L1303.25 1522.27 Z" fill="#000000" fill-rule="nonzero" fill-opacity="1" /><path clip-path="url(#clip040)" d="M1323.02 1532.4 L1328.87 1532.4 L1328.87 1568.04 L1323.02 1568.04 L1323.02 1532.4 M1323.02 1518.52 L1328.87 1518.52 L1328.87 1525.93 L1323.02 1525.93 L1323.02 1518.52 Z" fill="#000000" fill-rule="nonzero" fill-opacity="1" /><path clip-path="url(#clip040)" d="M1354.94 1536.5 Q1350.23 1536.5 1347.49 1540.19 Q1344.75 1543.85 1344.75 1550.25 Q1344.75 1556.65 1347.46 1560.34 Q1350.2 1564 1354.94 1564 Q1359.62 1564 1362.36 1560.31 Q1365.09 1556.62 1365.09 1550.25 Q1365.09 1543.92 1362.36 1540.23 Q1359.62 1536.5 1354.94 1536.5 M1354.94 1531.54 Q1362.58 1531.54 1366.94 1536.5 Q1371.3 1541.47 1371.3 1550.25 Q1371.3 1559 1366.94 1564 Q1362.58 1568.97 1354.94 1568.97 Q1347.27 1568.97 1342.91 1564 Q1338.58 1559 1338.58 1550.25 Q1338.58 1541.47 1342.91 1536.5 Q1347.27 1531.54 1354.94 1531.54 Z" fill="#000000" fill-rule="nonzero" fill-opacity="1" /><path clip-path="url(#clip040)" d="M1410.64 1546.53 L1410.64 1568.04 L1404.78 1568.04 L1404.78 1546.72 Q1404.78 1541.66 1402.81 1539.14 Q1400.84 1536.63 1396.89 1536.63 Q1392.15 1536.63 1389.41 1539.65 Q1386.67 1542.68 1386.67 1547.9 L1386.67 1568.04 L1380.78 1568.04 L1380.78 1532.4 L1386.67 1532.4 L1386.67 1537.93 Q1388.77 1534.72 1391.61 1533.13 Q1394.47 1531.54 1398.19 1531.54 Q1404.34 1531.54 1407.49 1535.36 Q1410.64 1539.14 1410.64 1546.53 Z" fill="#000000" fill-rule="nonzero" fill-opacity="1" /><polyline clip-path="url(#clip042)" style="stroke:#000000; stroke-linecap:round; stroke-linejoin:round; stroke-width:2; stroke-opacity:0.1; fill:none" points="203.964,1386.4 2352.76,1386.4 "/>
<polyline clip-path="url(#clip042)" style="stroke:#000000; stroke-linecap:round; stroke-linejoin:round; stroke-width:2; stroke-opacity:0.1; fill:none" points="203.964,1079.86 2352.76,1079.86 "/>
<polyline clip-path="url(#clip042)" style="stroke:#000000; stroke-linecap:round; stroke-linejoin:round; stroke-width:2; stroke-opacity:0.1; fill:none" points="203.964,773.326 2352.76,773.326 "/>
<polyline clip-path="url(#clip042)" style="stroke:#000000; stroke-linecap:round; stroke-linejoin:round; stroke-width:2; stroke-opacity:0.1; fill:none" points="203.964,466.791 2352.76,466.791 "/>
<polyline clip-path="url(#clip042)" style="stroke:#000000; stroke-linecap:round; stroke-linejoin:round; stroke-width:2; stroke-opacity:0.1; fill:none" points="203.964,160.256 2352.76,160.256 "/>
<polyline clip-path="url(#clip040)" style="stroke:#000000; stroke-linecap:round; stroke-linejoin:round; stroke-width:4; stroke-opacity:1; fill:none" points="203.964,1423.18 203.964,123.472 "/>
<polyline clip-path="url(#clip040)" style="stroke:#000000; stroke-linecap:round; stroke-linejoin:round; stroke-width:4; stroke-opacity:1; fill:none" points="203.964,1386.4 222.861,1386.4 "/>
<polyline clip-path="url(#clip040)" style="stroke:#000000; stroke-linecap:round; stroke-linejoin:round; stroke-width:4; stroke-opacity:1; fill:none" points="203.964,1079.86 222.861,1079.86 "/>
<polyline clip-path="url(#clip040)" style="stroke:#000000; stroke-linecap:round; stroke-linejoin:round; stroke-width:4; stroke-opacity:1; fill:none" points="203.964,773.326 222.861,773.326 "/>
<polyline clip-path="url(#clip040)" style="stroke:#000000; stroke-linecap:round; stroke-linejoin:round; stroke-width:4; stroke-opacity:1; fill:none" points="203.964,466.791 222.861,466.791 "/>
<polyline clip-path="url(#clip040)" style="stroke:#000000; stroke-linecap:round; stroke-linejoin:round; stroke-width:4; stroke-opacity:1; fill:none" points="203.964,160.256 222.861,160.256 "/>
<path clip-path="url(#clip040)" d="M156.019 1372.19 Q152.408 1372.19 150.579 1375.76 Q148.774 1379.3 148.774 1386.43 Q148.774 1393.54 150.579 1397.1 Q152.408 1400.64 156.019 1400.64 Q159.653 1400.64 161.459 1397.1 Q163.288 1393.54 163.288 1386.43 Q163.288 1379.3 161.459 1375.76 Q159.653 1372.19 156.019 1372.19 M156.019 1368.49 Q161.829 1368.49 164.885 1373.1 Q167.964 1377.68 167.964 1386.43 Q167.964 1395.16 164.885 1399.76 Q161.829 1404.35 156.019 1404.35 Q150.209 1404.35 147.13 1399.76 Q144.075 1395.16 144.075 1386.43 Q144.075 1377.68 147.13 1373.1 Q150.209 1368.49 156.019 1368.49 Z" fill="#000000" fill-rule="nonzero" fill-opacity="1" /><path clip-path="url(#clip040)" d="M147.061 1062.58 L165.417 1062.58 L165.417 1066.52 L151.343 1066.52 L151.343 1074.99 Q152.362 1074.64 153.38 1074.48 Q154.399 1074.29 155.417 1074.29 Q161.204 1074.29 164.584 1077.47 Q167.964 1080.64 167.964 1086.05 Q167.964 1091.63 164.491 1094.73 Q161.019 1097.81 154.7 1097.81 Q152.524 1097.81 150.255 1097.44 Q148.01 1097.07 145.603 1096.33 L145.603 1091.63 Q147.686 1092.77 149.908 1093.32 Q152.13 1093.88 154.607 1093.88 Q158.612 1093.88 160.95 1091.77 Q163.288 1089.66 163.288 1086.05 Q163.288 1082.44 160.95 1080.34 Q158.612 1078.23 154.607 1078.23 Q152.732 1078.23 150.857 1078.65 Q149.005 1079.06 147.061 1079.94 L147.061 1062.58 Z" fill="#000000" fill-rule="nonzero" fill-opacity="1" /><path clip-path="url(#clip040)" d="M116.668 786.671 L124.306 786.671 L124.306 760.305 L115.996 761.972 L115.996 757.713 L124.26 756.046 L128.936 756.046 L128.936 786.671 L136.575 786.671 L136.575 790.606 L116.668 790.606 L116.668 786.671 Z" fill="#000000" fill-rule="nonzero" fill-opacity="1" /><path clip-path="url(#clip040)" d="M156.019 759.125 Q152.408 759.125 150.579 762.689 Q148.774 766.231 148.774 773.361 Q148.774 780.467 150.579 784.032 Q152.408 787.574 156.019 787.574 Q159.653 787.574 161.459 784.032 Q163.288 780.467 163.288 773.361 Q163.288 766.231 161.459 762.689 Q159.653 759.125 156.019 759.125 M156.019 755.421 Q161.829 755.421 164.885 760.027 Q167.964 764.611 167.964 773.361 Q167.964 782.088 164.885 786.694 Q161.829 791.277 156.019 791.277 Q150.209 791.277 147.13 786.694 Q144.075 782.088 144.075 773.361 Q144.075 764.611 147.13 760.027 Q150.209 755.421 156.019 755.421 Z" fill="#000000" fill-rule="nonzero" fill-opacity="1" /><path clip-path="url(#clip040)" d="M117.663 480.136 L125.302 480.136 L125.302 453.77 L116.992 455.437 L116.992 451.178 L125.255 449.511 L129.931 449.511 L129.931 480.136 L137.57 480.136 L137.57 484.071 L117.663 484.071 L117.663 480.136 Z" fill="#000000" fill-rule="nonzero" fill-opacity="1" /><path clip-path="url(#clip040)" d="M147.061 449.511 L165.417 449.511 L165.417 453.446 L151.343 453.446 L151.343 461.918 Q152.362 461.571 153.38 461.409 Q154.399 461.224 155.417 461.224 Q161.204 461.224 164.584 464.395 Q167.964 467.567 167.964 472.983 Q167.964 478.562 164.491 481.664 Q161.019 484.742 154.7 484.742 Q152.524 484.742 150.255 484.372 Q148.01 484.002 145.603 483.261 L145.603 478.562 Q147.686 479.696 149.908 480.252 Q152.13 480.807 154.607 480.807 Q158.612 480.807 160.95 478.701 Q163.288 476.594 163.288 472.983 Q163.288 469.372 160.95 467.266 Q158.612 465.159 154.607 465.159 Q152.732 465.159 150.857 465.576 Q149.005 465.993 147.061 466.872 L147.061 449.511 Z" fill="#000000" fill-rule="nonzero" fill-opacity="1" /><path clip-path="url(#clip040)" d="M119.885 173.601 L136.204 173.601 L136.204 177.536 L114.26 177.536 L114.26 173.601 Q116.922 170.847 121.505 166.217 Q126.112 161.564 127.292 160.222 Q129.538 157.698 130.417 155.962 Q131.32 154.203 131.32 152.513 Q131.32 149.759 129.376 148.023 Q127.455 146.286 124.353 146.286 Q122.154 146.286 119.7 147.05 Q117.269 147.814 114.492 149.365 L114.492 144.643 Q117.316 143.509 119.769 142.93 Q122.223 142.351 124.26 142.351 Q129.63 142.351 132.825 145.036 Q136.019 147.722 136.019 152.212 Q136.019 154.342 135.209 156.263 Q134.422 158.161 132.316 160.754 Q131.737 161.425 128.635 164.643 Q125.533 167.837 119.885 173.601 Z" fill="#000000" fill-rule="nonzero" fill-opacity="1" /><path clip-path="url(#clip040)" d="M156.019 146.055 Q152.408 146.055 150.579 149.62 Q148.774 153.161 148.774 160.291 Q148.774 167.397 150.579 170.962 Q152.408 174.504 156.019 174.504 Q159.653 174.504 161.459 170.962 Q163.288 167.397 163.288 160.291 Q163.288 153.161 161.459 149.62 Q159.653 146.055 156.019 146.055 M156.019 142.351 Q161.829 142.351 164.885 146.958 Q167.964 151.541 167.964 160.291 Q167.964 169.018 164.885 173.624 Q161.829 178.208 156.019 178.208 Q150.209 178.208 147.13 173.624 Q144.075 169.018 144.075 160.291 Q144.075 151.541 147.13 146.958 Q150.209 142.351 156.019 142.351 Z" fill="#000000" fill-rule="nonzero" fill-opacity="1" /><path clip-path="url(#clip040)" d="M16.4842 1472.01 L16.4842 1463.35 L56.238 1442.28 L16.4842 1442.28 L16.4842 1436.04 L64.0042 1436.04 L64.0042 1444.7 L24.2503 1465.77 L64.0042 1465.77 L64.0042 1472.01 L16.4842 1472.01 Z" fill="#000000" fill-rule="nonzero" fill-opacity="1" /><path clip-path="url(#clip040)" d="M49.9359 1424.11 L28.3562 1424.11 L28.3562 1418.25 L49.7131 1418.25 Q54.7739 1418.25 57.3202 1416.28 Q59.8346 1414.3 59.8346 1410.36 Q59.8346 1405.62 56.8109 1402.88 Q53.7872 1400.11 48.5673 1400.11 L28.3562 1400.11 L28.3562 1394.25 L64.0042 1394.25 L64.0042 1400.11 L58.5296 1400.11 Q61.7762 1402.24 63.3676 1405.07 Q64.9272 1407.88 64.9272 1411.6 Q64.9272 1417.74 61.1078 1420.93 Q57.2883 1424.11 49.9359 1424.11 M27.4968 1409.37 L27.4968 1409.37 Z" fill="#000000" fill-rule="nonzero" fill-opacity="1" /><path clip-path="url(#clip040)" d="M35.1993 1354.44 Q31.2526 1352.24 29.3747 1349.18 Q27.4968 1346.13 27.4968 1341.99 Q27.4968 1336.42 31.4117 1333.4 Q35.2948 1330.37 42.4881 1330.37 L64.0042 1330.37 L64.0042 1336.26 L42.679 1336.26 Q37.5546 1336.26 35.072 1338.08 Q32.5894 1339.89 32.5894 1343.61 Q32.5894 1348.17 35.6131 1350.81 Q38.6368 1353.45 43.8567 1353.45 L64.0042 1353.45 L64.0042 1359.34 L42.679 1359.34 Q37.5228 1359.34 35.072 1361.15 Q32.5894 1362.97 32.5894 1366.75 Q32.5894 1371.24 35.6449 1373.88 Q38.6686 1376.52 43.8567 1376.52 L64.0042 1376.52 L64.0042 1382.41 L28.3562 1382.41 L28.3562 1376.52 L33.8944 1376.52 Q30.616 1374.52 29.0564 1371.72 Q27.4968 1368.92 27.4968 1365.07 Q27.4968 1361.18 29.4702 1358.48 Q31.4436 1355.74 35.1993 1354.44 Z" fill="#000000" fill-rule="nonzero" fill-opacity="1" /><path clip-path="url(#clip040)" d="M46.212 1293.1 Q39.7508 1293.1 36.0905 1295.78 Q32.3984 1298.42 32.3984 1303.06 Q32.3984 1307.71 36.0905 1310.38 Q39.7508 1313.03 46.212 1313.03 Q52.6732 1313.03 56.3653 1310.38 Q60.0256 1307.71 60.0256 1303.06 Q60.0256 1298.42 56.3653 1295.78 Q52.6732 1293.1 46.212 1293.1 M33.7671 1313.03 Q30.5842 1311.18 29.0564 1308.38 Q27.4968 1305.55 27.4968 1301.63 Q27.4968 1295.14 32.6531 1291.1 Q37.8093 1287.02 46.212 1287.02 Q54.6147 1287.02 59.771 1291.1 Q64.9272 1295.14 64.9272 1301.63 Q64.9272 1305.55 63.3994 1308.38 Q61.8398 1311.18 58.657 1313.03 L64.0042 1313.03 L64.0042 1318.91 L14.479 1318.91 L14.479 1313.03 L33.7671 1313.03 Z" fill="#000000" fill-rule="nonzero" fill-opacity="1" /><path clip-path="url(#clip040)" d="M44.7161 1246.82 L47.5806 1246.82 L47.5806 1273.75 Q53.6281 1273.37 56.8109 1270.12 Q59.9619 1266.84 59.9619 1261.02 Q59.9619 1257.64 59.1344 1254.49 Q58.3069 1251.31 56.6518 1248.19 L62.1899 1248.19 Q63.5267 1251.34 64.227 1254.65 Q64.9272 1257.96 64.9272 1261.37 Q64.9272 1269.9 59.9619 1274.9 Q54.9967 1279.86 46.5303 1279.86 Q37.7774 1279.86 32.6531 1275.15 Q27.4968 1270.41 27.4968 1262.39 Q27.4968 1255.19 32.1438 1251.02 Q36.7589 1246.82 44.7161 1246.82 M42.9973 1252.68 Q38.1912 1252.74 35.3266 1255.39 Q32.4621 1257.99 32.4621 1262.32 Q32.4621 1267.23 35.2312 1270.19 Q38.0002 1273.11 43.0292 1273.56 L42.9973 1252.68 Z" fill="#000000" fill-rule="nonzero" fill-opacity="1" /><path clip-path="url(#clip040)" d="M33.8307 1216.55 Q33.2578 1217.54 33.0032 1218.72 Q32.7167 1219.86 32.7167 1221.26 Q32.7167 1226.23 35.9632 1228.9 Q39.1779 1231.55 45.2253 1231.55 L64.0042 1231.55 L64.0042 1237.43 L28.3562 1237.43 L28.3562 1231.55 L33.8944 1231.55 Q30.6479 1229.7 29.0883 1226.74 Q27.4968 1223.78 27.4968 1219.55 Q27.4968 1218.94 27.5923 1218.21 Q27.656 1217.48 27.8151 1216.59 L33.8307 1216.55 Z" fill="#000000" fill-rule="nonzero" fill-opacity="1" /><path clip-path="url(#clip040)" d="M32.4621 1175.88 Q32.4621 1180.59 36.1542 1183.33 Q39.8145 1186.06 46.212 1186.06 Q52.6095 1186.06 56.3017 1183.36 Q59.9619 1180.62 59.9619 1175.88 Q59.9619 1171.2 56.2698 1168.46 Q52.5777 1165.72 46.212 1165.72 Q39.8781 1165.72 36.186 1168.46 Q32.4621 1171.2 32.4621 1175.88 M27.4968 1175.88 Q27.4968 1168.24 32.4621 1163.88 Q37.4273 1159.52 46.212 1159.52 Q54.9649 1159.52 59.9619 1163.88 Q64.9272 1168.24 64.9272 1175.88 Q64.9272 1183.55 59.9619 1187.91 Q54.9649 1192.24 46.212 1192.24 Q37.4273 1192.24 32.4621 1187.91 Q27.4968 1183.55 27.4968 1175.88 Z" fill="#000000" fill-rule="nonzero" fill-opacity="1" /><path clip-path="url(#clip040)" d="M14.479 1131.76 L19.3487 1131.76 L19.3487 1137.36 Q19.3487 1140.52 20.6219 1141.76 Q21.895 1142.97 25.2052 1142.97 L28.3562 1142.97 L28.3562 1133.32 L32.9077 1133.32 L32.9077 1142.97 L64.0042 1142.97 L64.0042 1148.85 L32.9077 1148.85 L32.9077 1154.46 L28.3562 1154.46 L28.3562 1148.85 L25.8736 1148.85 Q19.9216 1148.85 17.2162 1146.09 Q14.479 1143.32 14.479 1137.3 L14.479 1131.76 Z" fill="#000000" fill-rule="nonzero" fill-opacity="1" /><path clip-path="url(#clip040)" d="M18.2347 1100.35 L28.3562 1100.35 L28.3562 1088.29 L32.9077 1088.29 L32.9077 1100.35 L52.2594 1100.35 Q56.6199 1100.35 57.8613 1099.17 Q59.1026 1097.96 59.1026 1094.3 L59.1026 1088.29 L64.0042 1088.29 L64.0042 1094.3 Q64.0042 1101.08 61.4897 1103.66 Q58.9434 1106.24 52.2594 1106.24 L32.9077 1106.24 L32.9077 1110.53 L28.3562 1110.53 L28.3562 1106.24 L18.2347 1106.24 L18.2347 1100.35 Z" fill="#000000" fill-rule="nonzero" fill-opacity="1" /><path clip-path="url(#clip040)" d="M28.3562 1080.58 L28.3562 1074.73 L64.0042 1074.73 L64.0042 1080.58 L28.3562 1080.58 M14.479 1080.58 L14.479 1074.73 L21.895 1074.73 L21.895 1080.58 L14.479 1080.58 Z" fill="#000000" fill-rule="nonzero" fill-opacity="1" /><path clip-path="url(#clip040)" d="M35.1993 1034.72 Q31.2526 1032.52 29.3747 1029.47 Q27.4968 1026.41 27.4968 1022.27 Q27.4968 1016.7 31.4117 1013.68 Q35.2948 1010.66 42.4881 1010.66 L64.0042 1010.66 L64.0042 1016.54 L42.679 1016.54 Q37.5546 1016.54 35.072 1018.36 Q32.5894 1020.17 32.5894 1023.9 Q32.5894 1028.45 35.6131 1031.09 Q38.6368 1033.73 43.8567 1033.73 L64.0042 1033.73 L64.0042 1039.62 L42.679 1039.62 Q37.5228 1039.62 35.072 1041.43 Q32.5894 1043.25 32.5894 1047.04 Q32.5894 1051.52 35.6449 1054.17 Q38.6686 1056.81 43.8567 1056.81 L64.0042 1056.81 L64.0042 1062.7 L28.3562 1062.7 L28.3562 1056.81 L33.8944 1056.81 Q30.616 1054.8 29.0564 1052 Q27.4968 1049.2 27.4968 1045.35 Q27.4968 1041.47 29.4702 1038.76 Q31.4436 1036.02 35.1993 1034.72 Z" fill="#000000" fill-rule="nonzero" fill-opacity="1" /><path clip-path="url(#clip040)" d="M44.7161 968.483 L47.5806 968.483 L47.5806 995.41 Q53.6281 995.028 56.8109 991.781 Q59.9619 988.503 59.9619 982.678 Q59.9619 979.304 59.1344 976.153 Q58.3069 972.97 56.6518 969.851 L62.1899 969.851 Q63.5267 973.002 64.227 976.312 Q64.9272 979.623 64.9272 983.028 Q64.9272 991.558 59.9619 996.555 Q54.9967 1001.52 46.5303 1001.52 Q37.7774 1001.52 32.6531 996.81 Q27.4968 992.068 27.4968 984.047 Q27.4968 976.854 32.1438 972.684 Q36.7589 968.483 44.7161 968.483 M42.9973 974.339 Q38.1912 974.403 35.3266 977.045 Q32.4621 979.654 32.4621 983.983 Q32.4621 988.885 35.2312 991.845 Q38.0002 994.773 43.0292 995.219 L42.9973 974.339 Z" fill="#000000" fill-rule="nonzero" fill-opacity="1" /><path clip-path="url(#clip040)" d="M29.4065 936.145 L34.9447 936.145 Q33.6716 938.627 33.035 941.301 Q32.3984 943.975 32.3984 946.839 Q32.3984 951.2 33.7352 953.396 Q35.072 955.56 37.7456 955.56 Q39.7826 955.56 40.9603 954.001 Q42.1061 952.441 43.1565 947.73 L43.6021 945.725 Q44.9389 939.487 47.3897 936.877 Q49.8086 934.235 54.1691 934.235 Q59.1344 934.235 62.0308 938.182 Q64.9272 942.097 64.9272 948.972 Q64.9272 951.836 64.3543 954.956 Q63.8132 958.043 62.6992 961.48 L56.6518 961.48 Q58.3387 958.234 59.198 955.083 Q60.0256 951.932 60.0256 948.844 Q60.0256 944.707 58.6251 942.479 Q57.1929 940.251 54.6147 940.251 Q52.2276 940.251 50.9545 941.874 Q49.6813 943.465 48.5037 948.908 L48.0262 950.945 Q46.8804 956.388 44.5251 958.807 Q42.138 961.226 38.0002 961.226 Q32.9713 961.226 30.2341 957.661 Q27.4968 954.096 27.4968 947.539 Q27.4968 944.293 27.9743 941.428 Q28.4517 938.564 29.4065 936.145 Z" fill="#000000" fill-rule="nonzero" fill-opacity="1" /><path clip-path="url(#clip040)" d="M20.8447 884.646 Q20.8447 891.649 26.0645 895.786 Q31.2844 899.892 40.2919 899.892 Q49.2675 899.892 54.4874 895.786 Q59.7073 891.649 59.7073 884.646 Q59.7073 877.644 54.4874 873.57 Q49.2675 869.464 40.2919 869.464 Q31.2844 869.464 26.0645 873.57 Q20.8447 877.644 20.8447 884.646 M63.1448 875.639 L72.4069 867.172 L72.4069 874.939 L64.7999 881.973 Q64.8635 883.023 64.8954 883.596 Q64.9272 884.137 64.9272 884.646 Q64.9272 894.672 58.2432 900.688 Q51.5274 906.672 40.2919 906.672 Q29.0246 906.672 22.3406 900.688 Q15.6248 894.672 15.6248 884.646 Q15.6248 874.652 22.3406 868.668 Q29.0246 862.685 40.2919 862.685 Q48.5673 862.685 54.4556 866.027 Q60.3439 869.337 63.1448 875.639 Z" fill="#000000" fill-rule="nonzero" fill-opacity="1" /><path clip-path="url(#clip040)" d="M16.4842 852.627 L16.4842 846.197 L58.5933 846.197 L58.5933 823.058 L64.0042 823.058 L64.0042 852.627 L16.4842 852.627 Z" fill="#000000" fill-rule="nonzero" fill-opacity="1" /><path clip-path="url(#clip040)" d="M14.479 777.798 L19.3487 777.798 L19.3487 783.4 Q19.3487 786.551 20.6219 787.792 Q21.895 789.002 25.2052 789.002 L28.3562 789.002 L28.3562 779.357 L32.9077 779.357 L32.9077 789.002 L64.0042 789.002 L64.0042 794.89 L32.9077 794.89 L32.9077 800.492 L28.3562 800.492 L28.3562 794.89 L25.8736 794.89 Q19.9216 794.89 17.2162 792.121 Q14.479 789.352 14.479 783.336 L14.479 777.798 Z" fill="#000000" fill-rule="nonzero" fill-opacity="1" /><path clip-path="url(#clip040)" d="M32.4621 759.083 Q32.4621 763.793 36.1542 766.531 Q39.8145 769.268 46.212 769.268 Q52.6095 769.268 56.3017 766.562 Q59.9619 763.825 59.9619 759.083 Q59.9619 754.404 56.2698 751.667 Q52.5777 748.929 46.212 748.929 Q39.8781 748.929 36.186 751.667 Q32.4621 754.404 32.4621 759.083 M27.4968 759.083 Q27.4968 751.444 32.4621 747.083 Q37.4273 742.723 46.212 742.723 Q54.9649 742.723 59.9619 747.083 Q64.9272 751.444 64.9272 759.083 Q64.9272 766.753 59.9619 771.114 Q54.9649 775.443 46.212 775.443 Q37.4273 775.443 32.4621 771.114 Q27.4968 766.753 27.4968 759.083 Z" fill="#000000" fill-rule="nonzero" fill-opacity="1" /><path clip-path="url(#clip040)" d="M49.9359 733.62 L28.3562 733.62 L28.3562 727.763 L49.7131 727.763 Q54.7739 727.763 57.3202 725.79 Q59.8346 723.817 59.8346 719.87 Q59.8346 715.128 56.8109 712.39 Q53.7872 709.621 48.5673 709.621 L28.3562 709.621 L28.3562 703.765 L64.0042 703.765 L64.0042 709.621 L58.5296 709.621 Q61.7762 711.754 63.3676 714.586 Q64.9272 717.387 64.9272 721.111 Q64.9272 727.254 61.1078 730.437 Q57.2883 733.62 49.9359 733.62 M27.4968 718.883 L27.4968 718.883 Z" fill="#000000" fill-rule="nonzero" fill-opacity="1" /><path clip-path="url(#clip040)" d="M42.4881 662.069 L64.0042 662.069 L64.0042 667.926 L42.679 667.926 Q37.6183 667.926 35.1038 669.899 Q32.5894 671.873 32.5894 675.819 Q32.5894 680.562 35.6131 683.299 Q38.6368 686.036 43.8567 686.036 L64.0042 686.036 L64.0042 691.925 L28.3562 691.925 L28.3562 686.036 L33.8944 686.036 Q30.6797 683.936 29.0883 681.103 Q27.4968 678.238 27.4968 674.514 Q27.4968 668.371 31.3163 665.22 Q35.1038 662.069 42.4881 662.069 Z" fill="#000000" fill-rule="nonzero" fill-opacity="1" /><path clip-path="url(#clip040)" d="M33.7671 626.931 L14.479 626.931 L14.479 621.074 L64.0042 621.074 L64.0042 626.931 L58.657 626.931 Q61.8398 628.777 63.3994 631.609 Q64.9272 634.41 64.9272 638.357 Q64.9272 644.818 59.771 648.892 Q54.6147 652.935 46.212 652.935 Q37.8093 652.935 32.6531 648.892 Q27.4968 644.818 27.4968 638.357 Q27.4968 634.41 29.0564 631.609 Q30.5842 628.777 33.7671 626.931 M46.212 646.887 Q52.6732 646.887 56.3653 644.245 Q60.0256 641.572 60.0256 636.925 Q60.0256 632.278 56.3653 629.604 Q52.6732 626.931 46.212 626.931 Q39.7508 626.931 36.0905 629.604 Q32.3984 632.278 32.3984 636.925 Q32.3984 641.572 36.0905 644.245 Q39.7508 646.887 46.212 646.887 Z" fill="#000000" fill-rule="nonzero" fill-opacity="1" /><path clip-path="url(#clip040)" d="M32.4621 574.477 Q32.4621 579.188 36.1542 581.925 Q39.8145 584.662 46.212 584.662 Q52.6095 584.662 56.3017 581.957 Q59.9619 579.22 59.9619 574.477 Q59.9619 569.798 56.2698 567.061 Q52.5777 564.324 46.212 564.324 Q39.8781 564.324 36.186 567.061 Q32.4621 569.798 32.4621 574.477 M27.4968 574.477 Q27.4968 566.838 32.4621 562.478 Q37.4273 558.117 46.212 558.117 Q54.9649 558.117 59.9619 562.478 Q64.9272 566.838 64.9272 574.477 Q64.9272 582.148 59.9619 586.508 Q54.9649 590.837 46.212 590.837 Q37.4273 590.837 32.4621 586.508 Q27.4968 582.148 27.4968 574.477 Z" fill="#000000" fill-rule="nonzero" fill-opacity="1" /><path clip-path="url(#clip040)" d="M58.657 542.744 L77.5631 542.744 L77.5631 548.632 L28.3562 548.632 L28.3562 542.744 L33.7671 542.744 Q30.5842 540.898 29.0564 538.097 Q27.4968 535.264 27.4968 531.35 Q27.4968 524.857 32.6531 520.814 Q37.8093 516.74 46.212 516.74 Q54.6147 516.74 59.771 520.814 Q64.9272 524.857 64.9272 531.35 Q64.9272 535.264 63.3994 538.097 Q61.8398 540.898 58.657 542.744 M46.212 522.82 Q39.7508 522.82 36.0905 525.493 Q32.3984 528.135 32.3984 532.782 Q32.3984 537.429 36.0905 540.102 Q39.7508 542.744 46.212 542.744 Q52.6732 542.744 56.3653 540.102 Q60.0256 537.429 60.0256 532.782 Q60.0256 528.135 56.3653 525.493 Q52.6732 522.82 46.212 522.82 Z" fill="#000000" fill-rule="nonzero" fill-opacity="1" /><path clip-path="url(#clip040)" d="M18.2347 501.24 L28.3562 501.24 L28.3562 489.177 L32.9077 489.177 L32.9077 501.24 L52.2594 501.24 Q56.6199 501.24 57.8613 500.062 Q59.1026 498.853 59.1026 495.192 L59.1026 489.177 L64.0042 489.177 L64.0042 495.192 Q64.0042 501.972 61.4897 504.55 Q58.9434 507.128 52.2594 507.128 L32.9077 507.128 L32.9077 511.425 L28.3562 511.425 L28.3562 507.128 L18.2347 507.128 L18.2347 501.24 Z" fill="#000000" fill-rule="nonzero" fill-opacity="1" /><path clip-path="url(#clip040)" d="M28.3562 481.474 L28.3562 475.618 L64.0042 475.618 L64.0042 481.474 L28.3562 481.474 M14.479 481.474 L14.479 475.618 L21.895 475.618 L21.895 481.474 L14.479 481.474 Z" fill="#000000" fill-rule="nonzero" fill-opacity="1" /><path clip-path="url(#clip040)" d="M35.1993 435.609 Q31.2526 433.413 29.3747 430.358 Q27.4968 427.302 27.4968 423.164 Q27.4968 417.594 31.4117 414.571 Q35.2948 411.547 42.4881 411.547 L64.0042 411.547 L64.0042 417.435 L42.679 417.435 Q37.5546 417.435 35.072 419.249 Q32.5894 421.064 32.5894 424.788 Q32.5894 429.339 35.6131 431.981 Q38.6368 434.623 43.8567 434.623 L64.0042 434.623 L64.0042 440.511 L42.679 440.511 Q37.5228 440.511 35.072 442.325 Q32.5894 444.139 32.5894 447.927 Q32.5894 452.415 35.6449 455.057 Q38.6686 457.698 43.8567 457.698 L64.0042 457.698 L64.0042 463.587 L28.3562 463.587 L28.3562 457.698 L33.8944 457.698 Q30.616 455.693 29.0564 452.892 Q27.4968 450.091 27.4968 446.24 Q27.4968 442.357 29.4702 439.652 Q31.4436 436.914 35.1993 435.609 Z" fill="#000000" fill-rule="nonzero" fill-opacity="1" /><path clip-path="url(#clip040)" d="M46.0847 383.665 Q46.0847 390.763 47.7079 393.5 Q49.3312 396.237 53.2461 396.237 Q56.3653 396.237 58.2114 394.2 Q60.0256 392.132 60.0256 388.599 Q60.0256 383.729 56.5881 380.801 Q53.1188 377.841 47.3897 377.841 L46.0847 377.841 L46.0847 383.665 M43.6657 371.984 L64.0042 371.984 L64.0042 377.841 L58.5933 377.841 Q61.8398 379.846 63.3994 382.838 Q64.9272 385.83 64.9272 390.158 Q64.9272 395.633 61.8716 398.879 Q58.7843 402.094 53.6281 402.094 Q47.6125 402.094 44.5569 398.083 Q41.5014 394.041 41.5014 386.052 L41.5014 377.841 L40.9285 377.841 Q36.8862 377.841 34.6901 380.514 Q32.4621 383.156 32.4621 387.962 Q32.4621 391.018 33.1941 393.914 Q33.9262 396.81 35.3903 399.484 L29.9795 399.484 Q28.7381 396.269 28.1334 393.246 Q27.4968 390.222 27.4968 387.357 Q27.4968 379.623 31.5072 375.804 Q35.5176 371.984 43.6657 371.984 Z" fill="#000000" fill-rule="nonzero" fill-opacity="1" /><path clip-path="url(#clip040)" d="M14.479 359.921 L14.479 354.065 L64.0042 354.065 L64.0042 359.921 L14.479 359.921 Z" fill="#000000" fill-rule="nonzero" fill-opacity="1" /><path clip-path="url(#clip040)" d="M29.4065 298.365 L34.9447 298.365 Q33.6716 300.847 33.035 303.521 Q32.3984 306.195 32.3984 309.059 Q32.3984 313.42 33.7352 315.616 Q35.072 317.78 37.7456 317.78 Q39.7826 317.78 40.9603 316.221 Q42.1061 314.661 43.1565 309.95 L43.6021 307.945 Q44.9389 301.707 47.3897 299.097 Q49.8086 296.455 54.1691 296.455 Q59.1344 296.455 62.0308 300.402 Q64.9272 304.317 64.9272 311.192 Q64.9272 314.056 64.3543 317.175 Q63.8132 320.263 62.6992 323.7 L56.6518 323.7 Q58.3387 320.454 59.198 317.303 Q60.0256 314.152 60.0256 311.064 Q60.0256 306.927 58.6251 304.699 Q57.1929 302.471 54.6147 302.471 Q52.2276 302.471 50.9545 304.094 Q49.6813 305.685 48.5037 311.128 L48.0262 313.165 Q46.8804 318.608 44.5251 321.027 Q42.138 323.446 38.0002 323.446 Q32.9713 323.446 30.2341 319.881 Q27.4968 316.316 27.4968 309.759 Q27.4968 306.513 27.9743 303.648 Q28.4517 300.784 29.4065 298.365 Z" fill="#000000" fill-rule="nonzero" fill-opacity="1" /><path clip-path="url(#clip040)" d="M32.4621 273.316 Q32.4621 278.026 36.1542 280.764 Q39.8145 283.501 46.212 283.501 Q52.6095 283.501 56.3017 280.795 Q59.9619 278.058 59.9619 273.316 Q59.9619 268.637 56.2698 265.9 Q52.5777 263.162 46.212 263.162 Q39.8781 263.162 36.186 265.9 Q32.4621 268.637 32.4621 273.316 M27.4968 273.316 Q27.4968 265.677 32.4621 261.316 Q37.4273 256.956 46.212 256.956 Q54.9649 256.956 59.9619 261.316 Q64.9272 265.677 64.9272 273.316 Q64.9272 280.986 59.9619 285.347 Q54.9649 289.676 46.212 289.676 Q37.4273 289.676 32.4621 285.347 Q27.4968 280.986 27.4968 273.316 Z" fill="#000000" fill-rule="nonzero" fill-opacity="1" /><path clip-path="url(#clip040)" d="M14.479 247.248 L14.479 241.392 L64.0042 241.392 L64.0042 247.248 L14.479 247.248 Z" fill="#000000" fill-rule="nonzero" fill-opacity="1" /><path clip-path="url(#clip040)" d="M49.9359 229.742 L28.3562 229.742 L28.3562 223.886 L49.7131 223.886 Q54.7739 223.886 57.3202 221.913 Q59.8346 219.939 59.8346 215.992 Q59.8346 211.25 56.8109 208.513 Q53.7872 205.744 48.5673 205.744 L28.3562 205.744 L28.3562 199.887 L64.0042 199.887 L64.0042 205.744 L58.5296 205.744 Q61.7762 207.876 63.3676 210.709 Q64.9272 213.51 64.9272 217.234 Q64.9272 223.377 61.1078 226.56 Q57.2883 229.742 49.9359 229.742 M27.4968 215.006 L27.4968 215.006 Z" fill="#000000" fill-rule="nonzero" fill-opacity="1" /><path clip-path="url(#clip040)" d="M18.2347 182.031 L28.3562 182.031 L28.3562 169.968 L32.9077 169.968 L32.9077 182.031 L52.2594 182.031 Q56.6199 182.031 57.8613 180.854 Q59.1026 179.644 59.1026 175.984 L59.1026 169.968 L64.0042 169.968 L64.0042 175.984 Q64.0042 182.763 61.4897 185.342 Q58.9434 187.92 52.2594 187.92 L32.9077 187.92 L32.9077 192.217 L28.3562 192.217 L28.3562 187.92 L18.2347 187.92 L18.2347 182.031 Z" fill="#000000" fill-rule="nonzero" fill-opacity="1" /><path clip-path="url(#clip040)" d="M28.3562 162.266 L28.3562 156.409 L64.0042 156.409 L64.0042 162.266 L28.3562 162.266 M14.479 162.266 L14.479 156.409 L21.895 156.409 L21.895 162.266 L14.479 162.266 Z" fill="#000000" fill-rule="nonzero" fill-opacity="1" /><path clip-path="url(#clip040)" d="M32.4621 130.342 Q32.4621 135.052 36.1542 137.79 Q39.8145 140.527 46.212 140.527 Q52.6095 140.527 56.3017 137.822 Q59.9619 135.084 59.9619 130.342 Q59.9619 125.663 56.2698 122.926 Q52.5777 120.189 46.212 120.189 Q39.8781 120.189 36.186 122.926 Q32.4621 125.663 32.4621 130.342 M27.4968 130.342 Q27.4968 122.703 32.4621 118.343 Q37.4273 113.982 46.212 113.982 Q54.9649 113.982 59.9619 118.343 Q64.9272 122.703 64.9272 130.342 Q64.9272 138.013 59.9619 142.373 Q54.9649 146.702 46.212 146.702 Q37.4273 146.702 32.4621 142.373 Q27.4968 138.013 27.4968 130.342 Z" fill="#000000" fill-rule="nonzero" fill-opacity="1" /><path clip-path="url(#clip040)" d="M42.4881 74.6419 L64.0042 74.6419 L64.0042 80.4984 L42.679 80.4984 Q37.6183 80.4984 35.1038 82.4718 Q32.5894 84.4451 32.5894 88.3919 Q32.5894 93.1343 35.6131 95.8716 Q38.6368 98.6088 43.8567 98.6088 L64.0042 98.6088 L64.0042 104.497 L28.3562 104.497 L28.3562 98.6088 L33.8944 98.6088 Q30.6797 96.5081 29.0883 93.6754 Q27.4968 90.8108 27.4968 87.0869 Q27.4968 80.944 31.3163 77.793 Q35.1038 74.6419 42.4881 74.6419 Z" fill="#000000" fill-rule="nonzero" fill-opacity="1" /><path clip-path="url(#clip040)" d="M651.685 12.096 L689.925 12.096 L689.925 18.9825 L659.868 18.9825 L659.868 36.8875 L688.67 36.8875 L688.67 43.7741 L659.868 43.7741 L659.868 65.6895 L690.655 65.6895 L690.655 72.576 L651.685 72.576 L651.685 12.096 Z" fill="#000000" fill-rule="nonzero" fill-opacity="1" /><path clip-path="url(#clip040)" d="M710.99 65.7705 L710.99 89.8329 L703.496 89.8329 L703.496 27.2059 L710.99 27.2059 L710.99 34.0924 Q713.34 30.0415 716.904 28.0971 Q720.51 26.1121 725.492 26.1121 Q733.756 26.1121 738.901 32.6746 Q744.086 39.2371 744.086 49.9314 Q744.086 60.6258 738.901 67.1883 Q733.756 73.7508 725.492 73.7508 Q720.51 73.7508 716.904 71.8063 Q713.34 69.8214 710.99 65.7705 M736.349 49.9314 Q736.349 41.7081 732.946 37.0496 Q729.584 32.3505 723.669 32.3505 Q717.755 32.3505 714.352 37.0496 Q710.99 41.7081 710.99 49.9314 Q710.99 58.1548 714.352 62.8538 Q717.755 67.5124 723.669 67.5124 Q729.584 67.5124 732.946 62.8538 Q736.349 58.1548 736.349 49.9314 Z" fill="#000000" fill-rule="nonzero" fill-opacity="1" /><path clip-path="url(#clip040)" d="M785.365 28.5427 L785.365 35.5912 Q782.205 33.9709 778.802 33.1607 Q775.399 32.3505 771.754 32.3505 Q766.204 32.3505 763.409 34.0519 Q760.654 35.7533 760.654 39.156 Q760.654 41.7486 762.639 43.2475 Q764.624 44.7058 770.619 46.0426 L773.171 46.6097 Q781.111 48.3111 784.433 51.4303 Q787.795 54.509 787.795 60.0587 Q787.795 66.3781 782.772 70.0644 Q777.79 73.7508 769.04 73.7508 Q765.394 73.7508 761.424 73.0216 Q757.494 72.3329 753.119 70.9151 L753.119 63.2184 Q757.251 65.3654 761.262 66.4591 Q765.272 67.5124 769.202 67.5124 Q774.468 67.5124 777.303 65.73 Q780.139 63.9071 780.139 60.6258 Q780.139 57.5877 778.073 55.9673 Q776.048 54.3469 769.121 52.8481 L766.528 52.2405 Q759.601 50.7821 756.522 47.7845 Q753.444 44.7463 753.444 39.4801 Q753.444 33.0797 757.981 29.5959 Q762.518 26.1121 770.862 26.1121 Q774.994 26.1121 778.64 26.7198 Q782.286 27.3274 785.365 28.5427 Z" fill="#000000" fill-rule="nonzero" fill-opacity="1" /><path clip-path="url(#clip040)" d="M799.664 27.2059 L807.118 27.2059 L807.118 72.576 L799.664 72.576 L799.664 27.2059 M799.664 9.54393 L807.118 9.54393 L807.118 18.9825 L799.664 18.9825 L799.664 9.54393 Z" fill="#000000" fill-rule="nonzero" fill-opacity="1" /><path clip-path="url(#clip040)" d="M822.714 9.54393 L830.168 9.54393 L830.168 72.576 L822.714 72.576 L822.714 9.54393 Z" fill="#000000" fill-rule="nonzero" fill-opacity="1" /><path clip-path="url(#clip040)" d="M863.345 32.4315 Q857.349 32.4315 853.865 37.1306 Q850.382 41.7891 850.382 49.9314 Q850.382 58.0738 853.825 62.7728 Q857.309 67.4314 863.345 67.4314 Q869.299 67.4314 872.783 62.7323 Q876.267 58.0333 876.267 49.9314 Q876.267 41.8701 872.783 37.1711 Q869.299 32.4315 863.345 32.4315 M863.345 26.1121 Q873.067 26.1121 878.617 32.4315 Q884.166 38.7509 884.166 49.9314 Q884.166 61.0714 878.617 67.4314 Q873.067 73.7508 863.345 73.7508 Q853.582 73.7508 848.032 67.4314 Q842.523 61.0714 842.523 49.9314 Q842.523 38.7509 848.032 32.4315 Q853.582 26.1121 863.345 26.1121 Z" fill="#000000" fill-rule="nonzero" fill-opacity="1" /><path clip-path="url(#clip040)" d="M934.235 45.1919 L934.235 72.576 L926.782 72.576 L926.782 45.4349 Q926.782 38.994 924.27 35.7938 Q921.759 32.5936 916.736 32.5936 Q910.7 32.5936 907.216 36.4419 Q903.732 40.2903 903.732 46.9338 L903.732 72.576 L896.238 72.576 L896.238 27.2059 L903.732 27.2059 L903.732 34.2544 Q906.406 30.163 910.011 28.1376 Q913.657 26.1121 918.396 26.1121 Q926.215 26.1121 930.225 30.9732 Q934.235 35.7938 934.235 45.1919 Z" fill="#000000" fill-rule="nonzero" fill-opacity="1" /><path clip-path="url(#clip040)" d="M1008.12 28.9478 L1008.12 35.9153 Q1004.96 34.1734 1001.76 33.3227 Q998.604 32.4315 995.364 32.4315 Q988.112 32.4315 984.102 37.0496 Q980.092 41.6271 980.092 49.9314 Q980.092 58.2358 984.102 62.8538 Q988.112 67.4314 995.364 67.4314 Q998.604 67.4314 1001.76 66.5807 Q1004.96 65.6895 1008.12 63.9476 L1008.12 70.8341 Q1005 72.2924 1001.64 73.0216 Q998.321 73.7508 994.553 73.7508 Q984.305 73.7508 978.269 67.3098 Q972.233 60.8689 972.233 49.9314 Q972.233 38.832 978.309 32.472 Q984.426 26.1121 995.039 26.1121 Q998.483 26.1121 1001.76 26.8413 Q1005.05 27.5299 1008.12 28.9478 Z" fill="#000000" fill-rule="nonzero" fill-opacity="1" /><path clip-path="url(#clip040)" d="M1038.67 32.4315 Q1032.67 32.4315 1029.19 37.1306 Q1025.7 41.7891 1025.7 49.9314 Q1025.7 58.0738 1029.15 62.7728 Q1032.63 67.4314 1038.67 67.4314 Q1044.62 67.4314 1048.11 62.7323 Q1051.59 58.0333 1051.59 49.9314 Q1051.59 41.8701 1048.11 37.1711 Q1044.62 32.4315 1038.67 32.4315 M1038.67 26.1121 Q1048.39 26.1121 1053.94 32.4315 Q1059.49 38.7509 1059.49 49.9314 Q1059.49 61.0714 1053.94 67.4314 Q1048.39 73.7508 1038.67 73.7508 Q1028.91 73.7508 1023.36 67.4314 Q1017.85 61.0714 1017.85 49.9314 Q1017.85 38.7509 1023.36 32.4315 Q1028.91 26.1121 1038.67 26.1121 Z" fill="#000000" fill-rule="nonzero" fill-opacity="1" /><path clip-path="url(#clip040)" d="M1109.56 45.1919 L1109.56 72.576 L1102.1 72.576 L1102.1 45.4349 Q1102.1 38.994 1099.59 35.7938 Q1097.08 32.5936 1092.06 32.5936 Q1086.02 32.5936 1082.54 36.4419 Q1079.06 40.2903 1079.06 46.9338 L1079.06 72.576 L1071.56 72.576 L1071.56 27.2059 L1079.06 27.2059 L1079.06 34.2544 Q1081.73 30.163 1085.33 28.1376 Q1088.98 26.1121 1093.72 26.1121 Q1101.54 26.1121 1105.55 30.9732 Q1109.56 35.7938 1109.56 45.1919 Z" fill="#000000" fill-rule="nonzero" fill-opacity="1" /><path clip-path="url(#clip040)" d="M1119.08 27.2059 L1126.98 27.2059 L1141.16 65.2844 L1155.33 27.2059 L1163.23 27.2059 L1146.22 72.576 L1136.09 72.576 L1119.08 27.2059 Z" fill="#000000" fill-rule="nonzero" fill-opacity="1" /><path clip-path="url(#clip040)" d="M1212.33 48.0275 L1212.33 51.6733 L1178.06 51.6733 Q1178.55 59.3701 1182.68 63.421 Q1186.85 67.4314 1194.26 67.4314 Q1198.56 67.4314 1202.57 66.3781 Q1206.62 65.3249 1210.59 63.2184 L1210.59 70.267 Q1206.58 71.9684 1202.36 72.8596 Q1198.15 73.7508 1193.82 73.7508 Q1182.96 73.7508 1176.6 67.4314 Q1170.28 61.1119 1170.28 50.3365 Q1170.28 39.1965 1176.28 32.6746 Q1182.31 26.1121 1192.52 26.1121 Q1201.68 26.1121 1206.98 32.0264 Q1212.33 37.9003 1212.33 48.0275 M1204.88 45.84 Q1204.8 39.7232 1201.43 36.0774 Q1198.11 32.4315 1192.6 32.4315 Q1186.36 32.4315 1182.6 35.9558 Q1178.87 39.4801 1178.3 45.8805 L1204.88 45.84 Z" fill="#000000" fill-rule="nonzero" fill-opacity="1" /><path clip-path="url(#clip040)" d="M1250.85 34.1734 Q1249.6 33.4443 1248.1 33.1202 Q1246.64 32.7556 1244.86 32.7556 Q1238.54 32.7556 1235.14 36.8875 Q1231.77 40.9789 1231.77 48.6757 L1231.77 72.576 L1224.28 72.576 L1224.28 27.2059 L1231.77 27.2059 L1231.77 34.2544 Q1234.12 30.1225 1237.89 28.1376 Q1241.66 26.1121 1247.05 26.1121 Q1247.82 26.1121 1248.75 26.2337 Q1249.68 26.3147 1250.81 26.5172 L1250.85 34.1734 Z" fill="#000000" fill-rule="nonzero" fill-opacity="1" /><path clip-path="url(#clip040)" d="M1287.07 49.3643 Q1287.07 41.2625 1283.71 36.8065 Q1280.39 32.3505 1274.35 32.3505 Q1268.35 32.3505 1264.99 36.8065 Q1261.67 41.2625 1261.67 49.3643 Q1261.67 57.4256 1264.99 61.8816 Q1268.35 66.3376 1274.35 66.3376 Q1280.39 66.3376 1283.71 61.8816 Q1287.07 57.4256 1287.07 49.3643 M1294.52 66.9452 Q1294.52 78.5308 1289.38 84.1616 Q1284.23 89.8329 1273.62 89.8329 Q1269.69 89.8329 1266.21 89.2252 Q1262.72 88.6581 1259.44 87.4428 L1259.44 80.1917 Q1262.72 81.9741 1265.92 82.8248 Q1269.12 83.6755 1272.45 83.6755 Q1279.78 83.6755 1283.42 79.8271 Q1287.07 76.0193 1287.07 68.282 L1287.07 64.5957 Q1284.76 68.6061 1281.15 70.5911 Q1277.55 72.576 1272.53 72.576 Q1264.18 72.576 1259.08 66.2161 Q1253.97 59.8562 1253.97 49.3643 Q1253.97 38.832 1259.08 32.472 Q1264.18 26.1121 1272.53 26.1121 Q1277.55 26.1121 1281.15 28.0971 Q1284.76 30.082 1287.07 34.0924 L1287.07 27.2059 L1294.52 27.2059 L1294.52 66.9452 Z" fill="#000000" fill-rule="nonzero" fill-opacity="1" /><path clip-path="url(#clip040)" d="M1348.68 48.0275 L1348.68 51.6733 L1314.41 51.6733 Q1314.9 59.3701 1319.03 63.421 Q1323.2 67.4314 1330.62 67.4314 Q1334.91 67.4314 1338.92 66.3781 Q1342.97 65.3249 1346.94 63.2184 L1346.94 70.267 Q1342.93 71.9684 1338.72 72.8596 Q1334.51 73.7508 1330.17 73.7508 Q1319.31 73.7508 1312.95 67.4314 Q1306.64 61.1119 1306.64 50.3365 Q1306.64 39.1965 1312.63 32.6746 Q1318.67 26.1121 1328.87 26.1121 Q1338.03 26.1121 1343.34 32.0264 Q1348.68 37.9003 1348.68 48.0275 M1341.23 45.84 Q1341.15 39.7232 1337.79 36.0774 Q1334.46 32.4315 1328.96 32.4315 Q1322.72 32.4315 1318.95 35.9558 Q1315.22 39.4801 1314.66 45.8805 L1341.23 45.84 Z" fill="#000000" fill-rule="nonzero" fill-opacity="1" /><path clip-path="url(#clip040)" d="M1398.63 45.1919 L1398.63 72.576 L1391.18 72.576 L1391.18 45.4349 Q1391.18 38.994 1388.67 35.7938 Q1386.15 32.5936 1381.13 32.5936 Q1375.1 32.5936 1371.61 36.4419 Q1368.13 40.2903 1368.13 46.9338 L1368.13 72.576 L1360.63 72.576 L1360.63 27.2059 L1368.13 27.2059 L1368.13 34.2544 Q1370.8 30.163 1374.41 28.1376 Q1378.05 26.1121 1382.79 26.1121 Q1390.61 26.1121 1394.62 30.9732 Q1398.63 35.7938 1398.63 45.1919 Z" fill="#000000" fill-rule="nonzero" fill-opacity="1" /><path clip-path="url(#clip040)" d="M1446.15 28.9478 L1446.15 35.9153 Q1442.99 34.1734 1439.79 33.3227 Q1436.63 32.4315 1433.39 32.4315 Q1426.14 32.4315 1422.13 37.0496 Q1418.12 41.6271 1418.12 49.9314 Q1418.12 58.2358 1422.13 62.8538 Q1426.14 67.4314 1433.39 67.4314 Q1436.63 67.4314 1439.79 66.5807 Q1442.99 65.6895 1446.15 63.9476 L1446.15 70.8341 Q1443.03 72.2924 1439.67 73.0216 Q1436.35 73.7508 1432.58 73.7508 Q1422.33 73.7508 1416.29 67.3098 Q1410.26 60.8689 1410.26 49.9314 Q1410.26 38.832 1416.33 32.472 Q1422.45 26.1121 1433.06 26.1121 Q1436.51 26.1121 1439.79 26.8413 Q1443.07 27.5299 1446.15 28.9478 Z" fill="#000000" fill-rule="nonzero" fill-opacity="1" /><path clip-path="url(#clip040)" d="M1497.92 48.0275 L1497.92 51.6733 L1463.65 51.6733 Q1464.13 59.3701 1468.27 63.421 Q1472.44 67.4314 1479.85 67.4314 Q1484.15 67.4314 1488.16 66.3781 Q1492.21 65.3249 1496.18 63.2184 L1496.18 70.267 Q1492.17 71.9684 1487.95 72.8596 Q1483.74 73.7508 1479.41 73.7508 Q1468.55 73.7508 1462.19 67.4314 Q1455.87 61.1119 1455.87 50.3365 Q1455.87 39.1965 1461.87 32.6746 Q1467.9 26.1121 1478.11 26.1121 Q1487.26 26.1121 1492.57 32.0264 Q1497.92 37.9003 1497.92 48.0275 M1490.47 45.84 Q1490.38 39.7232 1487.02 36.0774 Q1483.7 32.4315 1478.19 32.4315 Q1471.95 32.4315 1468.19 35.9558 Q1464.46 39.4801 1463.89 45.8805 L1490.47 45.84 Z" fill="#000000" fill-rule="nonzero" fill-opacity="1" /><path clip-path="url(#clip040)" d="M1536.52 27.2059 L1543.98 27.2059 L1543.98 72.576 L1536.52 72.576 L1536.52 27.2059 M1536.52 9.54393 L1543.98 9.54393 L1543.98 18.9825 L1536.52 18.9825 L1536.52 9.54393 Z" fill="#000000" fill-rule="nonzero" fill-opacity="1" /><path clip-path="url(#clip040)" d="M1597.29 45.1919 L1597.29 72.576 L1589.83 72.576 L1589.83 45.4349 Q1589.83 38.994 1587.32 35.7938 Q1584.81 32.5936 1579.79 32.5936 Q1573.75 32.5936 1570.27 36.4419 Q1566.78 40.2903 1566.78 46.9338 L1566.78 72.576 L1559.29 72.576 L1559.29 27.2059 L1566.78 27.2059 L1566.78 34.2544 Q1569.46 30.163 1573.06 28.1376 Q1576.71 26.1121 1581.45 26.1121 Q1589.27 26.1121 1593.28 30.9732 Q1597.29 35.7938 1597.29 45.1919 Z" fill="#000000" fill-rule="nonzero" fill-opacity="1" /><path clip-path="url(#clip040)" d="M1635.12 9.54393 L1635.12 15.7418 L1627.99 15.7418 Q1623.98 15.7418 1622.4 17.3622 Q1620.86 18.9825 1620.86 23.1955 L1620.86 27.2059 L1633.14 27.2059 L1633.14 32.9987 L1620.86 32.9987 L1620.86 72.576 L1613.37 72.576 L1613.37 32.9987 L1606.24 32.9987 L1606.24 27.2059 L1613.37 27.2059 L1613.37 24.0462 Q1613.37 16.471 1616.89 13.0277 Q1620.42 9.54393 1628.07 9.54393 L1635.12 9.54393 Z" fill="#000000" fill-rule="nonzero" fill-opacity="1" /><path clip-path="url(#clip040)" d="M1641.36 9.54393 L1648.81 9.54393 L1648.81 72.576 L1641.36 72.576 L1641.36 9.54393 Z" fill="#000000" fill-rule="nonzero" fill-opacity="1" /><path clip-path="url(#clip040)" d="M1663.64 54.671 L1663.64 27.2059 L1671.09 27.2059 L1671.09 54.3874 Q1671.09 60.8284 1673.61 64.0691 Q1676.12 67.2693 1681.14 67.2693 Q1687.18 67.2693 1690.66 63.421 Q1694.19 59.5726 1694.19 52.9291 L1694.19 27.2059 L1701.64 27.2059 L1701.64 72.576 L1694.19 72.576 L1694.19 65.6084 Q1691.47 69.7404 1687.87 71.7658 Q1684.3 73.7508 1679.56 73.7508 Q1671.74 73.7508 1667.69 68.8897 Q1663.64 64.0286 1663.64 54.671 M1682.4 26.1121 L1682.4 26.1121 Z" fill="#000000" fill-rule="nonzero" fill-opacity="1" /><path clip-path="url(#clip040)" d="M1755.8 48.0275 L1755.8 51.6733 L1721.53 51.6733 Q1722.01 59.3701 1726.15 63.421 Q1730.32 67.4314 1737.73 67.4314 Q1742.03 67.4314 1746.04 66.3781 Q1750.09 65.3249 1754.06 63.2184 L1754.06 70.267 Q1750.05 71.9684 1745.83 72.8596 Q1741.62 73.7508 1737.29 73.7508 Q1726.43 73.7508 1720.07 67.4314 Q1713.75 61.1119 1713.75 50.3365 Q1713.75 39.1965 1719.75 32.6746 Q1725.78 26.1121 1735.99 26.1121 Q1745.15 26.1121 1750.45 32.0264 Q1755.8 37.9003 1755.8 48.0275 M1748.35 45.84 Q1748.26 39.7232 1744.9 36.0774 Q1741.58 32.4315 1736.07 32.4315 Q1729.83 32.4315 1726.07 35.9558 Q1722.34 39.4801 1721.77 45.8805 L1748.35 45.84 Z" fill="#000000" fill-rule="nonzero" fill-opacity="1" /><path clip-path="url(#clip040)" d="M1805.75 45.1919 L1805.75 72.576 L1798.29 72.576 L1798.29 45.4349 Q1798.29 38.994 1795.78 35.7938 Q1793.27 32.5936 1788.25 32.5936 Q1782.21 32.5936 1778.73 36.4419 Q1775.24 40.2903 1775.24 46.9338 L1775.24 72.576 L1767.75 72.576 L1767.75 27.2059 L1775.24 27.2059 L1775.24 34.2544 Q1777.92 30.163 1781.52 28.1376 Q1785.17 26.1121 1789.91 26.1121 Q1797.73 26.1121 1801.74 30.9732 Q1805.75 35.7938 1805.75 45.1919 Z" fill="#000000" fill-rule="nonzero" fill-opacity="1" /><path clip-path="url(#clip040)" d="M1853.26 28.9478 L1853.26 35.9153 Q1850.1 34.1734 1846.9 33.3227 Q1843.74 32.4315 1840.5 32.4315 Q1833.25 32.4315 1829.24 37.0496 Q1825.23 41.6271 1825.23 49.9314 Q1825.23 58.2358 1829.24 62.8538 Q1833.25 67.4314 1840.5 67.4314 Q1843.74 67.4314 1846.9 66.5807 Q1850.1 65.6895 1853.26 63.9476 L1853.26 70.8341 Q1850.14 72.2924 1846.78 73.0216 Q1843.46 73.7508 1839.69 73.7508 Q1829.44 73.7508 1823.41 67.3098 Q1817.37 60.8689 1817.37 49.9314 Q1817.37 38.832 1823.45 32.472 Q1829.57 26.1121 1840.18 26.1121 Q1843.62 26.1121 1846.9 26.8413 Q1850.19 27.5299 1853.26 28.9478 Z" fill="#000000" fill-rule="nonzero" fill-opacity="1" /><path clip-path="url(#clip040)" d="M1905.03 48.0275 L1905.03 51.6733 L1870.76 51.6733 Q1871.25 59.3701 1875.38 63.421 Q1879.55 67.4314 1886.97 67.4314 Q1891.26 67.4314 1895.27 66.3781 Q1899.32 65.3249 1903.29 63.2184 L1903.29 70.267 Q1899.28 71.9684 1895.07 72.8596 Q1890.86 73.7508 1886.52 73.7508 Q1875.67 73.7508 1869.31 67.4314 Q1862.99 61.1119 1862.99 50.3365 Q1862.99 39.1965 1868.98 32.6746 Q1875.02 26.1121 1885.23 26.1121 Q1894.38 26.1121 1899.69 32.0264 Q1905.03 37.9003 1905.03 48.0275 M1897.58 45.84 Q1897.5 39.7232 1894.14 36.0774 Q1890.82 32.4315 1885.31 32.4315 Q1879.07 32.4315 1875.3 35.9558 Q1871.57 39.4801 1871.01 45.8805 L1897.58 45.84 Z" fill="#000000" fill-rule="nonzero" fill-opacity="1" /><polyline clip-path="url(#clip042)" style="stroke:#009af9; stroke-linecap:round; stroke-linejoin:round; stroke-width:4; stroke-opacity:1; fill:none" points="264.778,1386.4 366.137,895.94 467.495,1325.09 568.853,1386.4 670.211,1325.09 771.569,1018.55 872.927,1141.17 974.285,1018.55 1075.64,160.256 1177,160.256 1278.36,160.256 1379.72,160.256 1481.08,160.256 1582.43,160.256 1683.79,160.256 1785.15,160.256 1886.51,160.256 1987.87,160.256 2089.22,160.256 2190.58,160.256 2291.94,160.256 "/>
<polyline clip-path="url(#clip042)" style="stroke:#e26f46; stroke-linecap:round; stroke-linejoin:round; stroke-width:4; stroke-opacity:1; fill:none" points="264.778,1386.4 366.137,1141.17 467.495,1386.4 568.853,1325.09 670.211,1141.17 771.569,1386.4 872.927,1141.17 974.285,1018.55 1075.64,282.87 1177,282.87 1278.36,282.87 1379.72,282.87 1481.08,282.87 1582.43,282.87 1683.79,282.87 1785.15,221.563 1886.51,221.563 1987.87,221.563 2089.22,221.563 2190.58,160.256 2291.94,160.256 "/>
<polyline clip-path="url(#clip042)" style="stroke:#3da44d; stroke-linecap:round; stroke-linejoin:round; stroke-width:4; stroke-opacity:1; fill:none" points="264.778,1386.4 366.137,1386.4 467.495,1325.09 568.853,1325.09 670.211,1263.78 771.569,1141.17 872.927,1202.47 974.285,1141.17 1075.64,528.098 1177,221.563 1278.36,221.563 1379.72,221.563 1481.08,221.563 1582.43,221.563 1683.79,221.563 1785.15,221.563 1886.51,221.563 1987.87,221.563 2089.22,221.563 2190.58,221.563 2291.94,221.563 "/>
<polyline clip-path="url(#clip042)" style="stroke:#c271d2; stroke-linecap:round; stroke-linejoin:round; stroke-width:4; stroke-opacity:1; fill:none" points="264.778,1386.4 366.137,1325.09 467.495,1018.55 568.853,1202.47 670.211,1141.17 771.569,1202.47 872.927,957.247 974.285,1018.55 1075.64,712.019 1177,405.484 1278.36,344.177 1379.72,282.87 1481.08,282.87 1582.43,282.87 1683.79,282.87 1785.15,344.177 1886.51,282.87 1987.87,282.87 2089.22,282.87 2190.58,282.87 2291.94,282.87 "/>
<polyline clip-path="url(#clip042)" style="stroke:#ac8d18; stroke-linecap:round; stroke-linejoin:round; stroke-width:4; stroke-opacity:1; fill:none" points="264.778,1386.4 366.137,1325.09 467.495,1079.86 568.853,1386.4 670.211,1325.09 771.569,1202.47 872.927,1018.55 974.285,1202.47 1075.64,834.633 1177,712.019 1278.36,589.405 1379.72,528.098 1481.08,528.098 1582.43,466.791 1683.79,405.484 1785.15,344.177 1886.51,282.87 1987.87,405.484 2089.22,405.484 2190.58,221.563 2291.94,344.177 "/>
<path clip-path="url(#clip040)" d="M275.59 477.836 L659.612 477.836 L659.612 166.796 L275.59 166.796  Z" fill="#ffffff" fill-rule="evenodd" fill-opacity="1"/>
<polyline clip-path="url(#clip040)" style="stroke:#000000; stroke-linecap:round; stroke-linejoin:round; stroke-width:4; stroke-opacity:1; fill:none" points="275.59,477.836 659.612,477.836 659.612,166.796 275.59,166.796 275.59,477.836 "/>
<polyline clip-path="url(#clip040)" style="stroke:#009af9; stroke-linecap:round; stroke-linejoin:round; stroke-width:4; stroke-opacity:1; fill:none" points="299.465,218.636 442.718,218.636 "/>
<path clip-path="url(#clip040)" d="M486.756 214.11 Q485.899 213.809 485.043 213.578 Q482.751 212.976 480.297 212.976 Q476.061 212.976 473.7 215.268 Q471.501 217.397 471.084 221.309 L486.756 221.309 L486.756 224.643 L471.084 224.643 Q471.501 228.555 473.7 230.684 Q476.061 232.976 480.297 232.976 Q483.26 232.976 485.043 232.374 L486.756 231.795 L486.756 235.661 L484.927 236.078 Q482.52 236.587 480.043 236.587 Q473.839 236.587 470.228 232.976 Q466.594 229.365 466.594 222.976 Q466.594 216.587 470.228 212.976 Q473.839 209.365 480.043 209.365 Q482.381 209.365 484.927 209.874 Q485.853 210.059 486.756 210.337 L486.756 214.11 Z" fill="#000000" fill-rule="nonzero" fill-opacity="1" /><path clip-path="url(#clip040)" d="M513.237 214.388 L542.913 214.388 L542.913 218.277 L513.237 218.277 L513.237 214.388 M513.237 223.832 L542.913 223.832 L542.913 227.768 L513.237 227.768 L513.237 223.832 Z" fill="#000000" fill-rule="nonzero" fill-opacity="1" /><path clip-path="url(#clip040)" d="M578.075 204.434 Q574.464 204.434 572.635 207.999 Q570.829 211.541 570.829 218.67 Q570.829 225.777 572.635 229.342 Q574.464 232.883 578.075 232.883 Q581.709 232.883 583.514 229.342 Q585.343 225.777 585.343 218.67 Q585.343 211.541 583.514 207.999 Q581.709 204.434 578.075 204.434 M578.075 200.731 Q583.885 200.731 586.94 205.337 Q590.019 209.92 590.019 218.67 Q590.019 227.397 586.94 232.004 Q583.885 236.587 578.075 236.587 Q572.264 236.587 569.186 232.004 Q566.13 227.397 566.13 218.67 Q566.13 209.92 569.186 205.337 Q572.264 200.731 578.075 200.731 Z" fill="#000000" fill-rule="nonzero" fill-opacity="1" /><path clip-path="url(#clip040)" d="M598.237 230.036 L603.121 230.036 L603.121 235.916 L598.237 235.916 L598.237 230.036 Z" fill="#000000" fill-rule="nonzero" fill-opacity="1" /><path clip-path="url(#clip040)" d="M614.116 231.981 L621.755 231.981 L621.755 205.615 L613.445 207.282 L613.445 203.022 L621.709 201.356 L626.385 201.356 L626.385 231.981 L634.023 231.981 L634.023 235.916 L614.116 235.916 L614.116 231.981 Z" fill="#000000" fill-rule="nonzero" fill-opacity="1" /><polyline clip-path="url(#clip040)" style="stroke:#e26f46; stroke-linecap:round; stroke-linejoin:round; stroke-width:4; stroke-opacity:1; fill:none" points="299.465,270.476 442.718,270.476 "/>
<path clip-path="url(#clip040)" d="M486.756 265.95 Q485.899 265.649 485.043 265.418 Q482.751 264.816 480.297 264.816 Q476.061 264.816 473.7 267.108 Q471.501 269.237 471.084 273.149 L486.756 273.149 L486.756 276.483 L471.084 276.483 Q471.501 280.395 473.7 282.524 Q476.061 284.816 480.297 284.816 Q483.26 284.816 485.043 284.214 L486.756 283.635 L486.756 287.501 L484.927 287.918 Q482.52 288.427 480.043 288.427 Q473.839 288.427 470.228 284.816 Q466.594 281.205 466.594 274.816 Q466.594 268.427 470.228 264.816 Q473.839 261.205 480.043 261.205 Q482.381 261.205 484.927 261.714 Q485.853 261.899 486.756 262.177 L486.756 265.95 Z" fill="#000000" fill-rule="nonzero" fill-opacity="1" /><path clip-path="url(#clip040)" d="M513.237 266.228 L542.913 266.228 L542.913 270.117 L513.237 270.117 L513.237 266.228 M513.237 275.672 L542.913 275.672 L542.913 279.608 L513.237 279.608 L513.237 275.672 Z" fill="#000000" fill-rule="nonzero" fill-opacity="1" /><path clip-path="url(#clip040)" d="M578.075 256.274 Q574.464 256.274 572.635 259.839 Q570.829 263.381 570.829 270.51 Q570.829 277.617 572.635 281.182 Q574.464 284.723 578.075 284.723 Q581.709 284.723 583.514 281.182 Q585.343 277.617 585.343 270.51 Q585.343 263.381 583.514 259.839 Q581.709 256.274 578.075 256.274 M578.075 252.571 Q583.885 252.571 586.94 257.177 Q590.019 261.76 590.019 270.51 Q590.019 279.237 586.94 283.844 Q583.885 288.427 578.075 288.427 Q572.264 288.427 569.186 283.844 Q566.13 279.237 566.13 270.51 Q566.13 261.76 569.186 257.177 Q572.264 252.571 578.075 252.571 Z" fill="#000000" fill-rule="nonzero" fill-opacity="1" /><path clip-path="url(#clip040)" d="M598.237 281.876 L603.121 281.876 L603.121 287.756 L598.237 287.756 L598.237 281.876 Z" fill="#000000" fill-rule="nonzero" fill-opacity="1" /><path clip-path="url(#clip040)" d="M617.334 283.821 L633.653 283.821 L633.653 287.756 L611.709 287.756 L611.709 283.821 Q614.371 281.066 618.954 276.436 Q623.56 271.784 624.741 270.441 Q626.986 267.918 627.866 266.182 Q628.769 264.423 628.769 262.733 Q628.769 259.978 626.824 258.242 Q624.903 256.506 621.801 256.506 Q619.602 256.506 617.148 257.27 Q614.718 258.034 611.94 259.585 L611.94 254.862 Q614.764 253.728 617.218 253.149 Q619.672 252.571 621.709 252.571 Q627.079 252.571 630.273 255.256 Q633.468 257.941 633.468 262.432 Q633.468 264.561 632.658 266.483 Q631.871 268.381 629.764 270.973 Q629.185 271.645 626.084 274.862 Q622.982 278.057 617.334 283.821 Z" fill="#000000" fill-rule="nonzero" fill-opacity="1" /><polyline clip-path="url(#clip040)" style="stroke:#3da44d; stroke-linecap:round; stroke-linejoin:round; stroke-width:4; stroke-opacity:1; fill:none" points="299.465,322.316 442.718,322.316 "/>
<path clip-path="url(#clip040)" d="M486.756 317.79 Q485.899 317.489 485.043 317.258 Q482.751 316.656 480.297 316.656 Q476.061 316.656 473.7 318.948 Q471.501 321.077 471.084 324.989 L486.756 324.989 L486.756 328.323 L471.084 328.323 Q471.501 332.235 473.7 334.364 Q476.061 336.656 480.297 336.656 Q483.26 336.656 485.043 336.054 L486.756 335.475 L486.756 339.341 L484.927 339.758 Q482.52 340.267 480.043 340.267 Q473.839 340.267 470.228 336.656 Q466.594 333.045 466.594 326.656 Q466.594 320.267 470.228 316.656 Q473.839 313.045 480.043 313.045 Q482.381 313.045 484.927 313.554 Q485.853 313.739 486.756 314.017 L486.756 317.79 Z" fill="#000000" fill-rule="nonzero" fill-opacity="1" /><path clip-path="url(#clip040)" d="M513.237 318.068 L542.913 318.068 L542.913 321.957 L513.237 321.957 L513.237 318.068 M513.237 327.512 L542.913 327.512 L542.913 331.448 L513.237 331.448 L513.237 327.512 Z" fill="#000000" fill-rule="nonzero" fill-opacity="1" /><path clip-path="url(#clip040)" d="M578.075 308.114 Q574.464 308.114 572.635 311.679 Q570.829 315.221 570.829 322.35 Q570.829 329.457 572.635 333.022 Q574.464 336.563 578.075 336.563 Q581.709 336.563 583.514 333.022 Q585.343 329.457 585.343 322.35 Q585.343 315.221 583.514 311.679 Q581.709 308.114 578.075 308.114 M578.075 304.411 Q583.885 304.411 586.94 309.017 Q590.019 313.6 590.019 322.35 Q590.019 331.077 586.94 335.684 Q583.885 340.267 578.075 340.267 Q572.264 340.267 569.186 335.684 Q566.13 331.077 566.13 322.35 Q566.13 313.6 569.186 309.017 Q572.264 304.411 578.075 304.411 Z" fill="#000000" fill-rule="nonzero" fill-opacity="1" /><path clip-path="url(#clip040)" d="M598.237 333.716 L603.121 333.716 L603.121 339.596 L598.237 339.596 L598.237 333.716 Z" fill="#000000" fill-rule="nonzero" fill-opacity="1" /><path clip-path="url(#clip040)" d="M626.153 309.11 L614.348 327.559 L626.153 327.559 L626.153 309.11 M624.926 305.036 L630.806 305.036 L630.806 327.559 L635.736 327.559 L635.736 331.448 L630.806 331.448 L630.806 339.596 L626.153 339.596 L626.153 331.448 L610.551 331.448 L610.551 326.934 L624.926 305.036 Z" fill="#000000" fill-rule="nonzero" fill-opacity="1" /><polyline clip-path="url(#clip040)" style="stroke:#c271d2; stroke-linecap:round; stroke-linejoin:round; stroke-width:4; stroke-opacity:1; fill:none" points="299.465,374.156 442.718,374.156 "/>
<path clip-path="url(#clip040)" d="M486.756 369.63 Q485.899 369.329 485.043 369.098 Q482.751 368.496 480.297 368.496 Q476.061 368.496 473.7 370.788 Q471.501 372.917 471.084 376.829 L486.756 376.829 L486.756 380.163 L471.084 380.163 Q471.501 384.075 473.7 386.204 Q476.061 388.496 480.297 388.496 Q483.26 388.496 485.043 387.894 L486.756 387.315 L486.756 391.181 L484.927 391.598 Q482.52 392.107 480.043 392.107 Q473.839 392.107 470.228 388.496 Q466.594 384.885 466.594 378.496 Q466.594 372.107 470.228 368.496 Q473.839 364.885 480.043 364.885 Q482.381 364.885 484.927 365.394 Q485.853 365.579 486.756 365.857 L486.756 369.63 Z" fill="#000000" fill-rule="nonzero" fill-opacity="1" /><path clip-path="url(#clip040)" d="M513.237 369.908 L542.913 369.908 L542.913 373.797 L513.237 373.797 L513.237 369.908 M513.237 379.352 L542.913 379.352 L542.913 383.288 L513.237 383.288 L513.237 379.352 Z" fill="#000000" fill-rule="nonzero" fill-opacity="1" /><path clip-path="url(#clip040)" d="M578.075 359.954 Q574.464 359.954 572.635 363.519 Q570.829 367.061 570.829 374.19 Q570.829 381.297 572.635 384.862 Q574.464 388.403 578.075 388.403 Q581.709 388.403 583.514 384.862 Q585.343 381.297 585.343 374.19 Q585.343 367.061 583.514 363.519 Q581.709 359.954 578.075 359.954 M578.075 356.251 Q583.885 356.251 586.94 360.857 Q590.019 365.44 590.019 374.19 Q590.019 382.917 586.94 387.524 Q583.885 392.107 578.075 392.107 Q572.264 392.107 569.186 387.524 Q566.13 382.917 566.13 374.19 Q566.13 365.44 569.186 360.857 Q572.264 356.251 578.075 356.251 Z" fill="#000000" fill-rule="nonzero" fill-opacity="1" /><path clip-path="url(#clip040)" d="M598.237 385.556 L603.121 385.556 L603.121 391.436 L598.237 391.436 L598.237 385.556 Z" fill="#000000" fill-rule="nonzero" fill-opacity="1" /><path clip-path="url(#clip040)" d="M623.885 372.292 Q620.736 372.292 618.885 374.445 Q617.056 376.598 617.056 380.348 Q617.056 384.075 618.885 386.251 Q620.736 388.403 623.885 388.403 Q627.033 388.403 628.861 386.251 Q630.713 384.075 630.713 380.348 Q630.713 376.598 628.861 374.445 Q627.033 372.292 623.885 372.292 M633.167 357.64 L633.167 361.899 Q631.408 361.066 629.602 360.626 Q627.82 360.186 626.06 360.186 Q621.431 360.186 618.977 363.311 Q616.547 366.436 616.199 372.755 Q617.565 370.741 619.625 369.677 Q621.686 368.589 624.162 368.589 Q629.371 368.589 632.38 371.76 Q635.412 374.908 635.412 380.348 Q635.412 385.672 632.264 388.889 Q629.116 392.107 623.885 392.107 Q617.889 392.107 614.718 387.524 Q611.547 382.917 611.547 374.19 Q611.547 365.996 615.436 361.135 Q619.324 356.251 625.875 356.251 Q627.635 356.251 629.417 356.598 Q631.222 356.945 633.167 357.64 Z" fill="#000000" fill-rule="nonzero" fill-opacity="1" /><polyline clip-path="url(#clip040)" style="stroke:#ac8d18; stroke-linecap:round; stroke-linejoin:round; stroke-width:4; stroke-opacity:1; fill:none" points="299.465,425.996 442.718,425.996 "/>
<path clip-path="url(#clip040)" d="M486.756 421.47 Q485.899 421.169 485.043 420.938 Q482.751 420.336 480.297 420.336 Q476.061 420.336 473.7 422.628 Q471.501 424.757 471.084 428.669 L486.756 428.669 L486.756 432.003 L471.084 432.003 Q471.501 435.915 473.7 438.044 Q476.061 440.336 480.297 440.336 Q483.26 440.336 485.043 439.734 L486.756 439.155 L486.756 443.021 L484.927 443.438 Q482.52 443.947 480.043 443.947 Q473.839 443.947 470.228 440.336 Q466.594 436.725 466.594 430.336 Q466.594 423.947 470.228 420.336 Q473.839 416.725 480.043 416.725 Q482.381 416.725 484.927 417.234 Q485.853 417.419 486.756 417.697 L486.756 421.47 Z" fill="#000000" fill-rule="nonzero" fill-opacity="1" /><path clip-path="url(#clip040)" d="M513.237 421.748 L542.913 421.748 L542.913 425.637 L513.237 425.637 L513.237 421.748 M513.237 431.192 L542.913 431.192 L542.913 435.128 L513.237 435.128 L513.237 431.192 Z" fill="#000000" fill-rule="nonzero" fill-opacity="1" /><path clip-path="url(#clip040)" d="M578.075 411.794 Q574.464 411.794 572.635 415.359 Q570.829 418.901 570.829 426.03 Q570.829 433.137 572.635 436.702 Q574.464 440.243 578.075 440.243 Q581.709 440.243 583.514 436.702 Q585.343 433.137 585.343 426.03 Q585.343 418.901 583.514 415.359 Q581.709 411.794 578.075 411.794 M578.075 408.091 Q583.885 408.091 586.94 412.697 Q590.019 417.28 590.019 426.03 Q590.019 434.757 586.94 439.364 Q583.885 443.947 578.075 443.947 Q572.264 443.947 569.186 439.364 Q566.13 434.757 566.13 426.03 Q566.13 417.28 569.186 412.697 Q572.264 408.091 578.075 408.091 Z" fill="#000000" fill-rule="nonzero" fill-opacity="1" /><path clip-path="url(#clip040)" d="M598.237 437.396 L603.121 437.396 L603.121 443.276 L598.237 443.276 L598.237 437.396 Z" fill="#000000" fill-rule="nonzero" fill-opacity="1" /><path clip-path="url(#clip040)" d="M623.306 426.864 Q619.973 426.864 618.051 428.646 Q616.153 430.429 616.153 433.554 Q616.153 436.679 618.051 438.461 Q619.973 440.243 623.306 440.243 Q626.639 440.243 628.56 438.461 Q630.482 436.655 630.482 433.554 Q630.482 430.429 628.56 428.646 Q626.662 426.864 623.306 426.864 M618.63 424.873 Q615.621 424.132 613.931 422.072 Q612.264 420.012 612.264 417.049 Q612.264 412.906 615.204 410.498 Q618.167 408.091 623.306 408.091 Q628.468 408.091 631.408 410.498 Q634.347 412.906 634.347 417.049 Q634.347 420.012 632.658 422.072 Q630.991 424.132 628.005 424.873 Q631.385 425.66 633.26 427.952 Q635.158 430.243 635.158 433.554 Q635.158 438.577 632.079 441.262 Q629.023 443.947 623.306 443.947 Q617.588 443.947 614.51 441.262 Q611.454 438.577 611.454 433.554 Q611.454 430.243 613.352 427.952 Q615.25 425.66 618.63 424.873 M616.917 417.489 Q616.917 420.174 618.584 421.679 Q620.273 423.183 623.306 423.183 Q626.315 423.183 628.005 421.679 Q629.718 420.174 629.718 417.489 Q629.718 414.804 628.005 413.299 Q626.315 411.794 623.306 411.794 Q620.273 411.794 618.584 413.299 Q616.917 414.804 616.917 417.489 Z" fill="#000000" fill-rule="nonzero" fill-opacity="1" /></svg>
