<?xml version="1.0" encoding="utf-8"?>
<svg xmlns="http://www.w3.org/2000/svg" xmlns:xlink="http://www.w3.org/1999/xlink" width="600" height="400" viewBox="0 0 2400 1600">
<defs>
  <clipPath id="clip270">
    <rect x="0" y="0" width="2400" height="1600"/>
  </clipPath>
</defs>
<path clip-path="url(#clip270)" d="M0 1600 L2400 1600 L2400 0 L0 0  Z" fill="#ffffff" fill-rule="evenodd" fill-opacity="1"/>
<defs>
  <clipPath id="clip271">
    <rect x="480" y="0" width="1681" height="1600"/>
  </clipPath>
</defs>
<path clip-path="url(#clip270)" d="M203.964 1423.18 L2352.76 1423.18 L2352.76 123.472 L203.964 123.472  Z" fill="#ffffff" fill-rule="evenodd" fill-opacity="1"/>
<defs>
  <clipPath id="clip272">
    <rect x="203" y="123" width="2150" height="1301"/>
  </clipPath>
</defs>
<polyline clip-path="url(#clip272)" style="stroke:#000000; stroke-linecap:round; stroke-linejoin:round; stroke-width:2; stroke-opacity:0.1; fill:none" points="264.778,1423.18 264.778,123.472 "/>
<polyline clip-path="url(#clip272)" style="stroke:#000000; stroke-linecap:round; stroke-linejoin:round; stroke-width:2; stroke-opacity:0.1; fill:none" points="771.569,1423.18 771.569,123.472 "/>
<polyline clip-path="url(#clip272)" style="stroke:#000000; stroke-linecap:round; stroke-linejoin:round; stroke-width:2; stroke-opacity:0.1; fill:none" points="1278.36,1423.18 1278.36,123.472 "/>
<polyline clip-path="url(#clip272)" style="stroke:#000000; stroke-linecap:round; stroke-linejoin:round; stroke-width:2; stroke-opacity:0.1; fill:none" points="1785.15,1423.18 1785.15,123.472 "/>
<polyline clip-path="url(#clip272)" style="stroke:#000000; stroke-linecap:round; stroke-linejoin:round; stroke-width:2; stroke-opacity:0.1; fill:none" points="2291.94,1423.18 2291.94,123.472 "/>
<polyline clip-path="url(#clip270)" style="stroke:#000000; stroke-linecap:round; stroke-linejoin:round; stroke-width:4; stroke-opacity:1; fill:none" points="203.964,1423.18 2352.76,1423.18 "/>
<polyline clip-path="url(#clip270)" style="stroke:#000000; stroke-linecap:round; stroke-linejoin:round; stroke-width:4; stroke-opacity:1; fill:none" points="264.778,1423.18 264.778,1404.28 "/>
<polyline clip-path="url(#clip270)" style="stroke:#000000; stroke-linecap:round; stroke-linejoin:round; stroke-width:4; stroke-opacity:1; fill:none" points="771.569,1423.18 771.569,1404.28 "/>
<polyline clip-path="url(#clip270)" style="stroke:#000000; stroke-linecap:round; stroke-linejoin:round; stroke-width:4; stroke-opacity:1; fill:none" points="1278.36,1423.18 1278.36,1404.28 "/>
<polyline clip-path="url(#clip270)" style="stroke:#000000; stroke-linecap:round; stroke-linejoin:round; stroke-width:4; stroke-opacity:1; fill:none" points="1785.15,1423.18 1785.15,1404.28 "/>
<polyline clip-path="url(#clip270)" style="stroke:#000000; stroke-linecap:round; stroke-linejoin:round; stroke-width:4; stroke-opacity:1; fill:none" points="2291.94,1423.18 2291.94,1404.28 "/>
<path clip-path="url(#clip270)" d="M264.778 1454.1 Q261.167 1454.1 259.339 1457.66 Q257.533 1461.2 257.533 1468.33 Q257.533 1475.44 259.339 1479.01 Q261.167 1482.55 264.778 1482.55 Q268.413 1482.55 270.218 1479.01 Q272.047 1475.44 272.047 1468.33 Q272.047 1461.2 270.218 1457.66 Q268.413 1454.1 264.778 1454.1 M264.778 1450.39 Q270.589 1450.39 273.644 1455 Q276.723 1459.58 276.723 1468.33 Q276.723 1477.06 273.644 1481.67 Q270.589 1486.25 264.778 1486.25 Q258.968 1486.25 255.89 1481.67 Q252.834 1477.06 252.834 1468.33 Q252.834 1459.58 255.89 1455 Q258.968 1450.39 264.778 1450.39 Z" fill="#000000" fill-rule="nonzero" fill-opacity="1" /><path clip-path="url(#clip270)" d="M735.261 1481.64 L751.581 1481.64 L751.581 1485.58 L729.636 1485.58 L729.636 1481.64 Q732.298 1478.89 736.882 1474.26 Q741.488 1469.61 742.669 1468.27 Q744.914 1465.74 745.794 1464.01 Q746.697 1462.25 746.697 1460.56 Q746.697 1457.8 744.752 1456.07 Q742.831 1454.33 739.729 1454.33 Q737.53 1454.33 735.076 1455.09 Q732.646 1455.86 729.868 1457.41 L729.868 1452.69 Q732.692 1451.55 735.146 1450.97 Q737.599 1450.39 739.636 1450.39 Q745.007 1450.39 748.201 1453.08 Q751.396 1455.77 751.396 1460.26 Q751.396 1462.39 750.585 1464.31 Q749.798 1466.2 747.692 1468.8 Q747.113 1469.47 744.011 1472.69 Q740.91 1475.88 735.261 1481.64 Z" fill="#000000" fill-rule="nonzero" fill-opacity="1" /><path clip-path="url(#clip270)" d="M761.442 1451.02 L779.798 1451.02 L779.798 1454.96 L765.724 1454.96 L765.724 1463.43 Q766.743 1463.08 767.761 1462.92 Q768.78 1462.73 769.798 1462.73 Q775.585 1462.73 778.965 1465.9 Q782.345 1469.08 782.345 1474.49 Q782.345 1480.07 778.872 1483.17 Q775.4 1486.25 769.081 1486.25 Q766.905 1486.25 764.636 1485.88 Q762.391 1485.51 759.984 1484.77 L759.984 1480.07 Q762.067 1481.2 764.289 1481.76 Q766.511 1482.32 768.988 1482.32 Q772.993 1482.32 775.331 1480.21 Q777.669 1478.1 777.669 1474.49 Q777.669 1470.88 775.331 1468.77 Q772.993 1466.67 768.988 1466.67 Q767.113 1466.67 765.238 1467.08 Q763.386 1467.5 761.442 1468.38 L761.442 1451.02 Z" fill="#000000" fill-rule="nonzero" fill-opacity="1" /><path clip-path="url(#clip270)" d="M801.557 1454.1 Q797.946 1454.1 796.118 1457.66 Q794.312 1461.2 794.312 1468.33 Q794.312 1475.44 796.118 1479.01 Q797.946 1482.55 801.557 1482.55 Q805.192 1482.55 806.997 1479.01 Q808.826 1475.44 808.826 1468.33 Q808.826 1461.2 806.997 1457.66 Q805.192 1454.1 801.557 1454.1 M801.557 1450.39 Q807.368 1450.39 810.423 1455 Q813.502 1459.58 813.502 1468.33 Q813.502 1477.06 810.423 1481.67 Q807.368 1486.25 801.557 1486.25 Q795.747 1486.25 792.669 1481.67 Q789.613 1477.06 789.613 1468.33 Q789.613 1459.58 792.669 1455 Q795.747 1450.39 801.557 1450.39 Z" fill="#000000" fill-rule="nonzero" fill-opacity="1" /><path clip-path="url(#clip270)" d="M1237.98 1451.02 L1256.33 1451.02 L1256.33 1454.96 L1242.26 1454.96 L1242.26 1463.43 Q1243.28 1463.08 1244.3 1462.92 Q1245.32 1462.73 1246.33 1462.73 Q1252.12 1462.73 1255.5 1465.9 Q1258.88 1469.08 1258.88 1474.49 Q1258.88 1480.07 1255.41 1483.17 Q1251.94 1486.25 1245.62 1486.25 Q1243.44 1486.25 1241.17 1485.88 Q1238.93 1485.51 1236.52 1484.77 L1236.52 1480.07 Q1238.6 1481.2 1240.83 1481.76 Q1243.05 1482.32 1245.52 1482.32 Q1249.53 1482.32 1251.87 1480.21 Q1254.2 1478.1 1254.2 1474.49 Q1254.2 1470.88 1251.87 1468.77 Q1249.53 1466.67 1245.52 1466.67 Q1243.65 1466.67 1241.77 1467.08 Q1239.92 1467.5 1237.98 1468.38 L1237.98 1451.02 Z" fill="#000000" fill-rule="nonzero" fill-opacity="1" /><path clip-path="url(#clip270)" d="M1278.09 1454.1 Q1274.48 1454.1 1272.65 1457.66 Q1270.85 1461.2 1270.85 1468.33 Q1270.85 1475.44 1272.65 1479.01 Q1274.48 1482.55 1278.09 1482.55 Q1281.73 1482.55 1283.53 1479.01 Q1285.36 1475.44 1285.36 1468.33 Q1285.36 1461.2 1283.53 1457.66 Q1281.73 1454.1 1278.09 1454.1 M1278.09 1450.39 Q1283.9 1450.39 1286.96 1455 Q1290.04 1459.58 1290.04 1468.33 Q1290.04 1477.06 1286.96 1481.67 Q1283.9 1486.25 1278.09 1486.25 Q1272.28 1486.25 1269.2 1481.67 Q1266.15 1477.06 1266.15 1468.33 Q1266.15 1459.58 1269.2 1455 Q1272.28 1450.39 1278.09 1450.39 Z" fill="#000000" fill-rule="nonzero" fill-opacity="1" /><path clip-path="url(#clip270)" d="M1308.26 1454.1 Q1304.64 1454.1 1302.82 1457.66 Q1301.01 1461.2 1301.01 1468.33 Q1301.01 1475.44 1302.82 1479.01 Q1304.64 1482.55 1308.26 1482.55 Q1311.89 1482.55 1313.7 1479.01 Q1315.52 1475.44 1315.52 1468.33 Q1315.52 1461.2 1313.7 1457.66 Q1311.89 1454.1 1308.26 1454.1 M1308.26 1450.39 Q1314.07 1450.39 1317.12 1455 Q1320.2 1459.58 1320.2 1468.33 Q1320.2 1477.06 1317.12 1481.67 Q1314.07 1486.25 1308.26 1486.25 Q1302.45 1486.25 1299.37 1481.67 Q1296.31 1477.06 1296.31 1468.33 Q1296.31 1459.58 1299.37 1455 Q1302.45 1450.39 1308.26 1450.39 Z" fill="#000000" fill-rule="nonzero" fill-opacity="1" /><path clip-path="url(#clip270)" d="M1743.43 1451.02 L1765.65 1451.02 L1765.65 1453.01 L1753.1 1485.58 L1748.22 1485.58 L1760.02 1454.96 L1743.43 1454.96 L1743.43 1451.02 Z" fill="#000000" fill-rule="nonzero" fill-opacity="1" /><path clip-path="url(#clip270)" d="M1774.81 1451.02 L1793.17 1451.02 L1793.17 1454.96 L1779.1 1454.96 L1779.1 1463.43 Q1780.12 1463.08 1781.13 1462.92 Q1782.15 1462.73 1783.17 1462.73 Q1788.96 1462.73 1792.34 1465.9 Q1795.72 1469.08 1795.72 1474.49 Q1795.72 1480.07 1792.25 1483.17 Q1788.77 1486.25 1782.45 1486.25 Q1780.28 1486.25 1778.01 1485.88 Q1775.76 1485.51 1773.36 1484.77 L1773.36 1480.07 Q1775.44 1481.2 1777.66 1481.76 Q1779.88 1482.32 1782.36 1482.32 Q1786.37 1482.32 1788.7 1480.21 Q1791.04 1478.1 1791.04 1474.49 Q1791.04 1470.88 1788.7 1468.77 Q1786.37 1466.67 1782.36 1466.67 Q1780.49 1466.67 1778.61 1467.08 Q1776.76 1467.5 1774.81 1468.38 L1774.81 1451.02 Z" fill="#000000" fill-rule="nonzero" fill-opacity="1" /><path clip-path="url(#clip270)" d="M1814.93 1454.1 Q1811.32 1454.1 1809.49 1457.66 Q1807.68 1461.2 1807.68 1468.33 Q1807.68 1475.44 1809.49 1479.01 Q1811.32 1482.55 1814.93 1482.55 Q1818.56 1482.55 1820.37 1479.01 Q1822.2 1475.44 1822.2 1468.33 Q1822.2 1461.2 1820.37 1457.66 Q1818.56 1454.1 1814.93 1454.1 M1814.93 1450.39 Q1820.74 1450.39 1823.8 1455 Q1826.87 1459.58 1826.87 1468.33 Q1826.87 1477.06 1823.8 1481.67 Q1820.74 1486.25 1814.93 1486.25 Q1809.12 1486.25 1806.04 1481.67 Q1802.99 1477.06 1802.99 1468.33 Q1802.99 1459.58 1806.04 1455 Q1809.12 1450.39 1814.93 1450.39 Z" fill="#000000" fill-rule="nonzero" fill-opacity="1" /><path clip-path="url(#clip270)" d="M2236.47 1481.64 L2244.11 1481.64 L2244.11 1455.28 L2235.8 1456.95 L2235.8 1452.69 L2244.06 1451.02 L2248.74 1451.02 L2248.74 1481.64 L2256.37 1481.64 L2256.37 1485.58 L2236.47 1485.58 L2236.47 1481.64 Z" fill="#000000" fill-rule="nonzero" fill-opacity="1" /><path clip-path="url(#clip270)" d="M2275.82 1454.1 Q2272.21 1454.1 2270.38 1457.66 Q2268.57 1461.2 2268.57 1468.33 Q2268.57 1475.44 2270.38 1479.01 Q2272.21 1482.55 2275.82 1482.55 Q2279.45 1482.55 2281.26 1479.01 Q2283.09 1475.44 2283.09 1468.33 Q2283.09 1461.2 2281.26 1457.66 Q2279.45 1454.1 2275.82 1454.1 M2275.82 1450.39 Q2281.63 1450.39 2284.68 1455 Q2287.76 1459.58 2287.76 1468.33 Q2287.76 1477.06 2284.68 1481.67 Q2281.63 1486.25 2275.82 1486.25 Q2270.01 1486.25 2266.93 1481.67 Q2263.87 1477.06 2263.87 1468.33 Q2263.87 1459.58 2266.93 1455 Q2270.01 1450.39 2275.82 1450.39 Z" fill="#000000" fill-rule="nonzero" fill-opacity="1" /><path clip-path="url(#clip270)" d="M2305.98 1454.1 Q2302.37 1454.1 2300.54 1457.66 Q2298.73 1461.2 2298.73 1468.33 Q2298.73 1475.44 2300.54 1479.01 Q2302.37 1482.55 2305.98 1482.55 Q2309.61 1482.55 2311.42 1479.01 Q2313.25 1475.44 2313.25 1468.33 Q2313.25 1461.2 2311.42 1457.66 Q2309.61 1454.1 2305.98 1454.1 M2305.98 1450.39 Q2311.79 1450.39 2314.85 1455 Q2317.92 1459.58 2317.92 1468.33 Q2317.92 1477.06 2314.85 1481.67 Q2311.79 1486.25 2305.98 1486.25 Q2300.17 1486.25 2297.09 1481.67 Q2294.04 1477.06 2294.04 1468.33 Q2294.04 1459.58 2297.09 1455 Q2300.17 1450.39 2305.98 1450.39 Z" fill="#000000" fill-rule="nonzero" fill-opacity="1" /><path clip-path="url(#clip270)" d="M2336.14 1454.1 Q2332.53 1454.1 2330.7 1457.66 Q2328.9 1461.2 2328.9 1468.33 Q2328.9 1475.44 2330.7 1479.01 Q2332.53 1482.55 2336.14 1482.55 Q2339.78 1482.55 2341.58 1479.01 Q2343.41 1475.44 2343.41 1468.33 Q2343.41 1461.2 2341.58 1457.66 Q2339.78 1454.1 2336.14 1454.1 M2336.14 1450.39 Q2341.95 1450.39 2345.01 1455 Q2348.09 1459.58 2348.09 1468.33 Q2348.09 1477.06 2345.01 1481.67 Q2341.95 1486.25 2336.14 1486.25 Q2330.33 1486.25 2327.25 1481.67 Q2324.2 1477.06 2324.2 1468.33 Q2324.2 1459.58 2327.25 1455 Q2330.33 1450.39 2336.14 1450.39 Z" fill="#000000" fill-rule="nonzero" fill-opacity="1" /><path clip-path="url(#clip270)" d="M1146.08 1520.52 L1152.51 1520.52 L1152.51 1568.04 L1146.08 1568.04 L1146.08 1520.52 Z" fill="#000000" fill-rule="nonzero" fill-opacity="1" /><path clip-path="url(#clip270)" d="M1170.84 1522.27 L1170.84 1532.4 L1182.91 1532.4 L1182.91 1536.95 L1170.84 1536.95 L1170.84 1556.3 Q1170.84 1560.66 1172.02 1561.9 Q1173.23 1563.14 1176.89 1563.14 L1182.91 1563.14 L1182.91 1568.04 L1176.89 1568.04 Q1170.11 1568.04 1167.53 1565.53 Q1164.95 1562.98 1164.95 1556.3 L1164.95 1536.95 L1160.66 1536.95 L1160.66 1532.4 L1164.95 1532.4 L1164.95 1522.27 L1170.84 1522.27 Z" fill="#000000" fill-rule="nonzero" fill-opacity="1" /><path clip-path="url(#clip270)" d="M1221.1 1548.76 L1221.1 1551.62 L1194.17 1551.62 Q1194.56 1557.67 1197.8 1560.85 Q1201.08 1564 1206.9 1564 Q1210.28 1564 1213.43 1563.17 Q1216.61 1562.35 1219.73 1560.69 L1219.73 1566.23 Q1216.58 1567.57 1213.27 1568.27 Q1209.96 1568.97 1206.55 1568.97 Q1198.02 1568.97 1193.03 1564 Q1188.06 1559.04 1188.06 1550.57 Q1188.06 1541.82 1192.77 1536.69 Q1197.52 1531.54 1205.54 1531.54 Q1212.73 1531.54 1216.9 1536.18 Q1221.1 1540.8 1221.1 1548.76 M1215.24 1547.04 Q1215.18 1542.23 1212.54 1539.37 Q1209.93 1536.5 1205.6 1536.5 Q1200.7 1536.5 1197.74 1539.27 Q1194.81 1542.04 1194.36 1547.07 L1215.24 1547.04 Z" fill="#000000" fill-rule="nonzero" fill-opacity="1" /><path clip-path="url(#clip270)" d="M1251.37 1537.87 Q1250.38 1537.3 1249.2 1537.04 Q1248.06 1536.76 1246.66 1536.76 Q1241.69 1536.76 1239.02 1540 Q1236.38 1543.22 1236.38 1549.27 L1236.38 1568.04 L1230.49 1568.04 L1230.49 1532.4 L1236.38 1532.4 L1236.38 1537.93 Q1238.22 1534.69 1241.18 1533.13 Q1244.14 1531.54 1248.38 1531.54 Q1248.98 1531.54 1249.71 1531.63 Q1250.45 1531.7 1251.34 1531.85 L1251.37 1537.87 Z" fill="#000000" fill-rule="nonzero" fill-opacity="1" /><path clip-path="url(#clip270)" d="M1273.71 1550.12 Q1266.62 1550.12 1263.88 1551.75 Q1261.14 1553.37 1261.14 1557.29 Q1261.14 1560.4 1263.18 1562.25 Q1265.25 1564.07 1268.78 1564.07 Q1273.65 1564.07 1276.58 1560.63 Q1279.54 1557.16 1279.54 1551.43 L1279.54 1550.12 L1273.71 1550.12 M1285.39 1547.71 L1285.39 1568.04 L1279.54 1568.04 L1279.54 1562.63 Q1277.53 1565.88 1274.54 1567.44 Q1271.55 1568.97 1267.22 1568.97 Q1261.75 1568.97 1258.5 1565.91 Q1255.28 1562.82 1255.28 1557.67 Q1255.28 1551.65 1259.29 1548.6 Q1263.34 1545.54 1271.33 1545.54 L1279.54 1545.54 L1279.54 1544.97 Q1279.54 1540.93 1276.86 1538.73 Q1274.22 1536.5 1269.42 1536.5 Q1266.36 1536.5 1263.46 1537.23 Q1260.57 1537.97 1257.89 1539.43 L1257.89 1534.02 Q1261.11 1532.78 1264.13 1532.17 Q1267.16 1531.54 1270.02 1531.54 Q1277.75 1531.54 1281.57 1535.55 Q1285.39 1539.56 1285.39 1547.71 Z" fill="#000000" fill-rule="nonzero" fill-opacity="1" /><path clip-path="url(#clip270)" d="M1303.25 1522.27 L1303.25 1532.4 L1315.31 1532.4 L1315.31 1536.95 L1303.25 1536.95 L1303.25 1556.3 Q1303.25 1560.66 1304.43 1561.9 Q1305.64 1563.14 1309.3 1563.14 L1315.31 1563.14 L1315.31 1568.04 L1309.3 1568.04 Q1302.52 1568.04 1299.94 1565.53 Q1297.36 1562.98 1297.36 1556.3 L1297.36 1536.95 L1293.06 1536.95 L1293.06 1532.4 L1297.36 1532.4 L1297.36 1522.27 L1303.25 1522.27 Z" fill="#000000" fill-rule="nonzero" fill-opacity="1" /><path clip-path="url(#clip270)" d="M1323.02 1532.4 L1328.87 1532.4 L1328.87 1568.04 L1323.02 1568.04 L1323.02 1532.4 M1323.02 1518.52 L1328.87 1518.52 L1328.87 1525.93 L1323.02 1525.93 L1323.02 1518.52 Z" fill="#000000" fill-rule="nonzero" fill-opacity="1" /><path clip-path="url(#clip270)" d="M1354.94 1536.5 Q1350.23 1536.5 1347.49 1540.19 Q1344.75 1543.85 1344.75 1550.25 Q1344.75 1556.65 1347.46 1560.34 Q1350.2 1564 1354.94 1564 Q1359.62 1564 1362.36 1560.31 Q1365.09 1556.62 1365.09 1550.25 Q1365.09 1543.92 1362.36 1540.23 Q1359.62 1536.5 1354.94 1536.5 M1354.94 1531.54 Q1362.58 1531.54 1366.94 1536.5 Q1371.3 1541.47 1371.3 1550.25 Q1371.3 1559 1366.94 1564 Q1362.58 1568.97 1354.94 1568.97 Q1347.27 1568.97 1342.91 1564 Q1338.58 1559 1338.58 1550.25 Q1338.58 1541.47 1342.91 1536.5 Q1347.27 1531.54 1354.94 1531.54 Z" fill="#000000" fill-rule="nonzero" fill-opacity="1" /><path clip-path="url(#clip270)" d="M1410.64 1546.53 L1410.64 1568.04 L1404.78 1568.04 L1404.78 1546.72 Q1404.78 1541.66 1402.81 1539.14 Q1400.84 1536.63 1396.89 1536.63 Q1392.15 1536.63 1389.41 1539.65 Q1386.67 1542.68 1386.67 1547.9 L1386.67 1568.04 L1380.78 1568.04 L1380.78 1532.4 L1386.67 1532.4 L1386.67 1537.93 Q1388.77 1534.72 1391.61 1533.13 Q1394.47 1531.54 1398.19 1531.54 Q1404.34 1531.54 1407.49 1535.36 Q1410.64 1539.14 1410.64 1546.53 Z" fill="#000000" fill-rule="nonzero" fill-opacity="1" /><polyline clip-path="url(#clip272)" style="stroke:#000000; stroke-linecap:round; stroke-linejoin:round; stroke-width:2; stroke-opacity:0.1; fill:none" points="203.964,1386.4 2352.76,1386.4 "/>
<polyline clip-path="url(#clip272)" style="stroke:#000000; stroke-linecap:round; stroke-linejoin:round; stroke-width:2; stroke-opacity:0.1; fill:none" points="203.964,1079.86 2352.76,1079.86 "/>
<polyline clip-path="url(#clip272)" style="stroke:#000000; stroke-linecap:round; stroke-linejoin:round; stroke-width:2; stroke-opacity:0.1; fill:none" points="203.964,773.326 2352.76,773.326 "/>
<polyline clip-path="url(#clip272)" style="stroke:#000000; stroke-linecap:round; stroke-linejoin:round; stroke-width:2; stroke-opacity:0.1; fill:none" points="203.964,466.791 2352.76,466.791 "/>
<polyline clip-path="url(#clip272)" style="stroke:#000000; stroke-linecap:round; stroke-linejoin:round; stroke-width:2; stroke-opacity:0.1; fill:none" points="203.964,160.256 2352.76,160.256 "/>
<polyline clip-path="url(#clip270)" style="stroke:#000000; stroke-linecap:round; stroke-linejoin:round; stroke-width:4; stroke-opacity:1; fill:none" points="203.964,1423.18 203.964,123.472 "/>
<polyline clip-path="url(#clip270)" style="stroke:#000000; stroke-linecap:round; stroke-linejoin:round; stroke-width:4; stroke-opacity:1; fill:none" points="203.964,1386.4 222.861,1386.4 "/>
<polyline clip-path="url(#clip270)" style="stroke:#000000; stroke-linecap:round; stroke-linejoin:round; stroke-width:4; stroke-opacity:1; fill:none" points="203.964,1079.86 222.861,1079.86 "/>
<polyline clip-path="url(#clip270)" style="stroke:#000000; stroke-linecap:round; stroke-linejoin:round; stroke-width:4; stroke-opacity:1; fill:none" points="203.964,773.326 222.861,773.326 "/>
<polyline clip-path="url(#clip270)" style="stroke:#000000; stroke-linecap:round; stroke-linejoin:round; stroke-width:4; stroke-opacity:1; fill:none" points="203.964,466.791 222.861,466.791 "/>
<polyline clip-path="url(#clip270)" style="stroke:#000000; stroke-linecap:round; stroke-linejoin:round; stroke-width:4; stroke-opacity:1; fill:none" points="203.964,160.256 222.861,160.256 "/>
<path clip-path="url(#clip270)" d="M156.019 1372.19 Q152.408 1372.19 150.579 1375.76 Q148.774 1379.3 148.774 1386.43 Q148.774 1393.54 150.579 1397.1 Q152.408 1400.64 156.019 1400.64 Q159.653 1400.64 161.459 1397.1 Q163.288 1393.54 163.288 1386.43 Q163.288 1379.3 161.459 1375.76 Q159.653 1372.19 156.019 1372.19 M156.019 1368.49 Q161.829 1368.49 164.885 1373.1 Q167.964 1377.68 167.964 1386.43 Q167.964 1395.16 164.885 1399.76 Q161.829 1404.35 156.019 1404.35 Q150.209 1404.35 147.13 1399.76 Q144.075 1395.16 144.075 1386.43 Q144.075 1377.68 147.13 1373.1 Q150.209 1368.49 156.019 1368.49 Z" fill="#000000" fill-rule="nonzero" fill-opacity="1" /><path clip-path="url(#clip270)" d="M147.061 1062.58 L165.417 1062.58 L165.417 1066.52 L151.343 1066.52 L151.343 1074.99 Q152.362 1074.64 153.38 1074.48 Q154.399 1074.29 155.417 1074.29 Q161.204 1074.29 164.584 1077.47 Q167.964 1080.64 167.964 1086.05 Q167.964 1091.63 164.491 1094.73 Q161.019 1097.81 154.7 1097.81 Q152.524 1097.81 150.255 1097.44 Q148.01 1097.07 145.603 1096.33 L145.603 1091.63 Q147.686 1092.77 149.908 1093.32 Q152.13 1093.88 154.607 1093.88 Q158.612 1093.88 160.95 1091.77 Q163.288 1089.66 163.288 1086.05 Q163.288 1082.44 160.95 1080.34 Q158.612 1078.23 154.607 1078.23 Q152.732 1078.23 150.857 1078.65 Q149.005 1079.06 147.061 1079.94 L147.061 1062.58 Z" fill="#000000" fill-rule="nonzero" fill-opacity="1" /><path clip-path="url(#clip270)" d="M116.668 786.671 L124.306 786.671 L124.306 760.305 L115.996 761.972 L115.996 757.713 L124.26 756.046 L128.936 756.046 L128.936 786.671 L136.575 786.671 L136.575 790.606 L116.668 790.606 L116.668 786.671 Z" fill="#000000" fill-rule="nonzero" fill-opacity="1" /><path clip-path="url(#clip270)" d="M156.019 759.125 Q152.408 759.125 150.579 762.689 Q148.774 766.231 148.774 773.361 Q148.774 780.467 150.579 784.032 Q152.408 787.574 156.019 787.574 Q159.653 787.574 161.459 784.032 Q163.288 780.467 163.288 773.361 Q163.288 766.231 161.459 762.689 Q159.653 759.125 156.019 759.125 M156.019 755.421 Q161.829 755.421 164.885 760.027 Q167.964 764.611 167.964 773.361 Q167.964 782.088 164.885 786.694 Q161.829 791.277 156.019 791.277 Q150.209 791.277 147.13 786.694 Q144.075 782.088 144.075 773.361 Q144.075 764.611 147.13 760.027 Q150.209 755.421 156.019 755.421 Z" fill="#000000" fill-rule="nonzero" fill-opacity="1" /><path clip-path="url(#clip270)" d="M117.663 480.136 L125.302 480.136 L125.302 453.77 L116.992 455.437 L116.992 451.178 L125.255 449.511 L129.931 449.511 L129.931 480.136 L137.57 480.136 L137.57 484.071 L117.663 484.071 L117.663 480.136 Z" fill="#000000" fill-rule="nonzero" fill-opacity="1" /><path clip-path="url(#clip270)" d="M147.061 449.511 L165.417 449.511 L165.417 453.446 L151.343 453.446 L151.343 461.918 Q152.362 461.571 153.38 461.409 Q154.399 461.224 155.417 461.224 Q161.204 461.224 164.584 464.395 Q167.964 467.567 167.964 472.983 Q167.964 478.562 164.491 481.664 Q161.019 484.742 154.7 484.742 Q152.524 484.742 150.255 484.372 Q148.01 484.002 145.603 483.261 L145.603 478.562 Q147.686 479.696 149.908 480.252 Q152.13 480.807 154.607 480.807 Q158.612 480.807 160.95 478.701 Q163.288 476.594 163.288 472.983 Q163.288 469.372 160.95 467.266 Q158.612 465.159 154.607 465.159 Q152.732 465.159 150.857 465.576 Q149.005 465.993 147.061 466.872 L147.061 449.511 Z" fill="#000000" fill-rule="nonzero" fill-opacity="1" /><path clip-path="url(#clip270)" d="M119.885 173.601 L136.204 173.601 L136.204 177.536 L114.26 177.536 L114.26 173.601 Q116.922 170.847 121.505 166.217 Q126.112 161.564 127.292 160.222 Q129.538 157.698 130.417 155.962 Q131.32 154.203 131.32 152.513 Q131.32 149.759 129.376 148.023 Q127.455 146.286 124.353 146.286 Q122.154 146.286 119.7 147.05 Q117.269 147.814 114.492 149.365 L114.492 144.643 Q117.316 143.509 119.769 142.93 Q122.223 142.351 124.26 142.351 Q129.63 142.351 132.825 145.036 Q136.019 147.722 136.019 152.212 Q136.019 154.342 135.209 156.263 Q134.422 158.161 132.316 160.754 Q131.737 161.425 128.635 164.643 Q125.533 167.837 119.885 173.601 Z" fill="#000000" fill-rule="nonzero" fill-opacity="1" /><path clip-path="url(#clip270)" d="M156.019 146.055 Q152.408 146.055 150.579 149.62 Q148.774 153.161 148.774 160.291 Q148.774 167.397 150.579 170.962 Q152.408 174.504 156.019 174.504 Q159.653 174.504 161.459 170.962 Q163.288 167.397 163.288 160.291 Q163.288 153.161 161.459 149.62 Q159.653 146.055 156.019 146.055 M156.019 142.351 Q161.829 142.351 164.885 146.958 Q167.964 151.541 167.964 160.291 Q167.964 169.018 164.885 173.624 Q161.829 178.208 156.019 178.208 Q150.209 178.208 147.13 173.624 Q144.075 169.018 144.075 160.291 Q144.075 151.541 147.13 146.958 Q150.209 142.351 156.019 142.351 Z" fill="#000000" fill-rule="nonzero" fill-opacity="1" /><path clip-path="url(#clip270)" d="M16.4842 1417.84 L16.4842 1409.18 L56.238 1388.11 L16.4842 1388.11 L16.4842 1381.87 L64.0042 1381.87 L64.0042 1390.53 L24.2503 1411.6 L64.0042 1411.6 L64.0042 1417.84 L16.4842 1417.84 Z" fill="#000000" fill-rule="nonzero" fill-opacity="1" /><path clip-path="url(#clip270)" d="M49.9359 1369.94 L28.3562 1369.94 L28.3562 1364.08 L49.7131 1364.08 Q54.7739 1364.08 57.3202 1362.11 Q59.8346 1360.13 59.8346 1356.19 Q59.8346 1351.44 56.8109 1348.71 Q53.7872 1345.94 48.5673 1345.94 L28.3562 1345.94 L28.3562 1340.08 L64.0042 1340.08 L64.0042 1345.94 L58.5296 1345.94 Q61.7762 1348.07 63.3676 1350.9 Q64.9272 1353.7 64.9272 1357.43 Q64.9272 1363.57 61.1078 1366.75 Q57.2883 1369.94 49.9359 1369.94 M27.4968 1355.2 L27.4968 1355.2 Z" fill="#000000" fill-rule="nonzero" fill-opacity="1" /><path clip-path="url(#clip270)" d="M35.1993 1300.26 Q31.2526 1298.07 29.3747 1295.01 Q27.4968 1291.96 27.4968 1287.82 Q27.4968 1282.25 31.4117 1279.22 Q35.2948 1276.2 42.4881 1276.2 L64.0042 1276.2 L64.0042 1282.09 L42.679 1282.09 Q37.5546 1282.09 35.072 1283.9 Q32.5894 1285.72 32.5894 1289.44 Q32.5894 1293.99 35.6131 1296.63 Q38.6368 1299.28 43.8567 1299.28 L64.0042 1299.28 L64.0042 1305.16 L42.679 1305.16 Q37.5228 1305.16 35.072 1306.98 Q32.5894 1308.79 32.5894 1312.58 Q32.5894 1317.07 35.6449 1319.71 Q38.6686 1322.35 43.8567 1322.35 L64.0042 1322.35 L64.0042 1328.24 L28.3562 1328.24 L28.3562 1322.35 L33.8944 1322.35 Q30.616 1320.35 29.0564 1317.55 Q27.4968 1314.75 27.4968 1310.89 Q27.4968 1307.01 29.4702 1304.31 Q31.4436 1301.57 35.1993 1300.26 Z" fill="#000000" fill-rule="nonzero" fill-opacity="1" /><path clip-path="url(#clip270)" d="M46.212 1238.93 Q39.7508 1238.93 36.0905 1241.6 Q32.3984 1244.25 32.3984 1248.89 Q32.3984 1253.54 36.0905 1256.21 Q39.7508 1258.85 46.212 1258.85 Q52.6732 1258.85 56.3653 1256.21 Q60.0256 1253.54 60.0256 1248.89 Q60.0256 1244.25 56.3653 1241.6 Q52.6732 1238.93 46.212 1238.93 M33.7671 1258.85 Q30.5842 1257.01 29.0564 1254.21 Q27.4968 1251.37 27.4968 1247.46 Q27.4968 1240.97 32.6531 1236.92 Q37.8093 1232.85 46.212 1232.85 Q54.6147 1232.85 59.771 1236.92 Q64.9272 1240.97 64.9272 1247.46 Q64.9272 1251.37 63.3994 1254.21 Q61.8398 1257.01 58.657 1258.85 L64.0042 1258.85 L64.0042 1264.74 L14.479 1264.74 L14.479 1258.85 L33.7671 1258.85 Z" fill="#000000" fill-rule="nonzero" fill-opacity="1" /><path clip-path="url(#clip270)" d="M44.7161 1192.65 L47.5806 1192.65 L47.5806 1219.58 Q53.6281 1219.2 56.8109 1215.95 Q59.9619 1212.67 59.9619 1206.85 Q59.9619 1203.47 59.1344 1200.32 Q58.3069 1197.14 56.6518 1194.02 L62.1899 1194.02 Q63.5267 1197.17 64.227 1200.48 Q64.9272 1203.79 64.9272 1207.2 Q64.9272 1215.73 59.9619 1220.72 Q54.9967 1225.69 46.5303 1225.69 Q37.7774 1225.69 32.6531 1220.98 Q27.4968 1216.24 27.4968 1208.22 Q27.4968 1201.02 32.1438 1196.85 Q36.7589 1192.65 44.7161 1192.65 M42.9973 1198.51 Q38.1912 1198.57 35.3266 1201.21 Q32.4621 1203.82 32.4621 1208.15 Q32.4621 1213.05 35.2312 1216.01 Q38.0002 1218.94 43.0292 1219.39 L42.9973 1198.51 Z" fill="#000000" fill-rule="nonzero" fill-opacity="1" /><path clip-path="url(#clip270)" d="M33.8307 1162.38 Q33.2578 1163.37 33.0032 1164.55 Q32.7167 1165.69 32.7167 1167.09 Q32.7167 1172.06 35.9632 1174.73 Q39.1779 1177.37 45.2253 1177.37 L64.0042 1177.37 L64.0042 1183.26 L28.3562 1183.26 L28.3562 1177.37 L33.8944 1177.37 Q30.6479 1175.53 29.0883 1172.57 Q27.4968 1169.61 27.4968 1165.37 Q27.4968 1164.77 27.5923 1164.04 Q27.656 1163.31 27.8151 1162.41 L33.8307 1162.38 Z" fill="#000000" fill-rule="nonzero" fill-opacity="1" /><path clip-path="url(#clip270)" d="M32.4621 1121.71 Q32.4621 1126.42 36.1542 1129.15 Q39.8145 1131.89 46.212 1131.89 Q52.6095 1131.89 56.3017 1129.18 Q59.9619 1126.45 59.9619 1121.71 Q59.9619 1117.03 56.2698 1114.29 Q52.5777 1111.55 46.212 1111.55 Q39.8781 1111.55 36.186 1114.29 Q32.4621 1117.03 32.4621 1121.71 M27.4968 1121.71 Q27.4968 1114.07 32.4621 1109.71 Q37.4273 1105.35 46.212 1105.35 Q54.9649 1105.35 59.9619 1109.71 Q64.9272 1114.07 64.9272 1121.71 Q64.9272 1129.38 59.9619 1133.74 Q54.9649 1138.07 46.212 1138.07 Q37.4273 1138.07 32.4621 1133.74 Q27.4968 1129.38 27.4968 1121.71 Z" fill="#000000" fill-rule="nonzero" fill-opacity="1" /><path clip-path="url(#clip270)" d="M14.479 1077.59 L19.3487 1077.59 L19.3487 1083.19 Q19.3487 1086.34 20.6219 1087.59 Q21.895 1088.79 25.2052 1088.79 L28.3562 1088.79 L28.3562 1079.15 L32.9077 1079.15 L32.9077 1088.79 L64.0042 1088.79 L64.0042 1094.68 L32.9077 1094.68 L32.9077 1100.28 L28.3562 1100.28 L28.3562 1094.68 L25.8736 1094.68 Q19.9216 1094.68 17.2162 1091.91 Q14.479 1089.14 14.479 1083.13 L14.479 1077.59 Z" fill="#000000" fill-rule="nonzero" fill-opacity="1" /><path clip-path="url(#clip270)" d="M18.2347 1046.18 L28.3562 1046.18 L28.3562 1034.11 L32.9077 1034.11 L32.9077 1046.18 L52.2594 1046.18 Q56.6199 1046.18 57.8613 1045 Q59.1026 1043.79 59.1026 1040.13 L59.1026 1034.11 L64.0042 1034.11 L64.0042 1040.13 Q64.0042 1046.91 61.4897 1049.49 Q58.9434 1052.06 52.2594 1052.06 L32.9077 1052.06 L32.9077 1056.36 L28.3562 1056.36 L28.3562 1052.06 L18.2347 1052.06 L18.2347 1046.18 Z" fill="#000000" fill-rule="nonzero" fill-opacity="1" /><path clip-path="url(#clip270)" d="M28.3562 1026.41 L28.3562 1020.55 L64.0042 1020.55 L64.0042 1026.41 L28.3562 1026.41 M14.479 1026.41 L14.479 1020.55 L21.895 1020.55 L21.895 1026.41 L14.479 1026.41 Z" fill="#000000" fill-rule="nonzero" fill-opacity="1" /><path clip-path="url(#clip270)" d="M35.1993 980.546 Q31.2526 978.349 29.3747 975.294 Q27.4968 972.238 27.4968 968.101 Q27.4968 962.531 31.4117 959.507 Q35.2948 956.483 42.4881 956.483 L64.0042 956.483 L64.0042 962.372 L42.679 962.372 Q37.5546 962.372 35.072 964.186 Q32.5894 966 32.5894 969.724 Q32.5894 974.275 35.6131 976.917 Q38.6368 979.559 43.8567 979.559 L64.0042 979.559 L64.0042 985.447 L42.679 985.447 Q37.5228 985.447 35.072 987.261 Q32.5894 989.076 32.5894 992.863 Q32.5894 997.351 35.6449 999.993 Q38.6686 1002.63 43.8567 1002.63 L64.0042 1002.63 L64.0042 1008.52 L28.3562 1008.52 L28.3562 1002.63 L33.8944 1002.63 Q30.616 1000.63 29.0564 997.829 Q27.4968 995.028 27.4968 991.176 Q27.4968 987.293 29.4702 984.588 Q31.4436 981.851 35.1993 980.546 Z" fill="#000000" fill-rule="nonzero" fill-opacity="1" /><path clip-path="url(#clip270)" d="M44.7161 914.31 L47.5806 914.31 L47.5806 941.237 Q53.6281 940.855 56.8109 937.609 Q59.9619 934.331 59.9619 928.506 Q59.9619 925.132 59.1344 921.981 Q58.3069 918.798 56.6518 915.679 L62.1899 915.679 Q63.5267 918.83 64.227 922.14 Q64.9272 925.45 64.9272 928.856 Q64.9272 937.386 59.9619 942.383 Q54.9967 947.348 46.5303 947.348 Q37.7774 947.348 32.6531 942.638 Q27.4968 937.895 27.4968 929.875 Q27.4968 922.681 32.1438 918.512 Q36.7589 914.31 44.7161 914.31 M42.9973 920.167 Q38.1912 920.231 35.3266 922.872 Q32.4621 925.482 32.4621 929.811 Q32.4621 934.713 35.2312 937.673 Q38.0002 940.601 43.0292 941.046 L42.9973 920.167 Z" fill="#000000" fill-rule="nonzero" fill-opacity="1" /><path clip-path="url(#clip270)" d="M29.4065 881.973 L34.9447 881.973 Q33.6716 884.455 33.035 887.129 Q32.3984 889.803 32.3984 892.667 Q32.3984 897.028 33.7352 899.224 Q35.072 901.388 37.7456 901.388 Q39.7826 901.388 40.9603 899.828 Q42.1061 898.269 43.1565 893.558 L43.6021 891.553 Q44.9389 885.315 47.3897 882.705 Q49.8086 880.063 54.1691 880.063 Q59.1344 880.063 62.0308 884.01 Q64.9272 887.925 64.9272 894.8 Q64.9272 897.664 64.3543 900.783 Q63.8132 903.871 62.6992 907.308 L56.6518 907.308 Q58.3387 904.062 59.198 900.911 Q60.0256 897.76 60.0256 894.672 Q60.0256 890.535 58.6251 888.307 Q57.1929 886.079 54.6147 886.079 Q52.2276 886.079 50.9545 887.702 Q49.6813 889.293 48.5037 894.736 L48.0262 896.773 Q46.8804 902.216 44.5251 904.635 Q42.138 907.054 38.0002 907.054 Q32.9713 907.054 30.2341 903.489 Q27.4968 899.924 27.4968 893.367 Q27.4968 890.121 27.9743 887.256 Q28.4517 884.392 29.4065 881.973 Z" fill="#000000" fill-rule="nonzero" fill-opacity="1" /><path clip-path="url(#clip270)" d="M14.479 831.97 L19.3487 831.97 L19.3487 837.572 Q19.3487 840.723 20.6219 841.964 Q21.895 843.174 25.2052 843.174 L28.3562 843.174 L28.3562 833.53 L32.9077 833.53 L32.9077 843.174 L64.0042 843.174 L64.0042 849.062 L32.9077 849.062 L32.9077 854.664 L28.3562 854.664 L28.3562 849.062 L25.8736 849.062 Q19.9216 849.062 17.2162 846.293 Q14.479 843.524 14.479 837.508 L14.479 831.97 Z" fill="#000000" fill-rule="nonzero" fill-opacity="1" /><path clip-path="url(#clip270)" d="M32.4621 813.255 Q32.4621 817.966 36.1542 820.703 Q39.8145 823.44 46.212 823.44 Q52.6095 823.44 56.3017 820.735 Q59.9619 817.997 59.9619 813.255 Q59.9619 808.576 56.2698 805.839 Q52.5777 803.102 46.212 803.102 Q39.8781 803.102 36.186 805.839 Q32.4621 808.576 32.4621 813.255 M27.4968 813.255 Q27.4968 805.616 32.4621 801.256 Q37.4273 796.895 46.212 796.895 Q54.9649 796.895 59.9619 801.256 Q64.9272 805.616 64.9272 813.255 Q64.9272 820.926 59.9619 825.286 Q54.9649 829.615 46.212 829.615 Q37.4273 829.615 32.4621 825.286 Q27.4968 820.926 27.4968 813.255 Z" fill="#000000" fill-rule="nonzero" fill-opacity="1" /><path clip-path="url(#clip270)" d="M49.9359 787.792 L28.3562 787.792 L28.3562 781.936 L49.7131 781.936 Q54.7739 781.936 57.3202 779.962 Q59.8346 777.989 59.8346 774.042 Q59.8346 769.3 56.8109 766.562 Q53.7872 763.793 48.5673 763.793 L28.3562 763.793 L28.3562 757.937 L64.0042 757.937 L64.0042 763.793 L58.5296 763.793 Q61.7762 765.926 63.3676 768.759 Q64.9272 771.56 64.9272 775.283 Q64.9272 781.426 61.1078 784.609 Q57.2883 787.792 49.9359 787.792 M27.4968 773.055 L27.4968 773.055 Z" fill="#000000" fill-rule="nonzero" fill-opacity="1" /><path clip-path="url(#clip270)" d="M42.4881 716.242 L64.0042 716.242 L64.0042 722.098 L42.679 722.098 Q37.6183 722.098 35.1038 724.071 Q32.5894 726.045 32.5894 729.991 Q32.5894 734.734 35.6131 737.471 Q38.6368 740.208 43.8567 740.208 L64.0042 740.208 L64.0042 746.097 L28.3562 746.097 L28.3562 740.208 L33.8944 740.208 Q30.6797 738.108 29.0883 735.275 Q27.4968 732.41 27.4968 728.686 Q27.4968 722.544 31.3163 719.393 Q35.1038 716.242 42.4881 716.242 Z" fill="#000000" fill-rule="nonzero" fill-opacity="1" /><path clip-path="url(#clip270)" d="M33.7671 681.103 L14.479 681.103 L14.479 675.246 L64.0042 675.246 L64.0042 681.103 L58.657 681.103 Q61.8398 682.949 63.3994 685.782 Q64.9272 688.583 64.9272 692.529 Q64.9272 698.99 59.771 703.064 Q54.6147 707.107 46.212 707.107 Q37.8093 707.107 32.6531 703.064 Q27.4968 698.99 27.4968 692.529 Q27.4968 688.583 29.0564 685.782 Q30.5842 682.949 33.7671 681.103 M46.212 701.059 Q52.6732 701.059 56.3653 698.418 Q60.0256 695.744 60.0256 691.097 Q60.0256 686.45 56.3653 683.776 Q52.6732 681.103 46.212 681.103 Q39.7508 681.103 36.0905 683.776 Q32.3984 686.45 32.3984 691.097 Q32.3984 695.744 36.0905 698.418 Q39.7508 701.059 46.212 701.059 Z" fill="#000000" fill-rule="nonzero" fill-opacity="1" /><path clip-path="url(#clip270)" d="M32.4621 628.649 Q32.4621 633.36 36.1542 636.097 Q39.8145 638.835 46.212 638.835 Q52.6095 638.835 56.3017 636.129 Q59.9619 633.392 59.9619 628.649 Q59.9619 623.971 56.2698 621.233 Q52.5777 618.496 46.212 618.496 Q39.8781 618.496 36.186 621.233 Q32.4621 623.971 32.4621 628.649 M27.4968 628.649 Q27.4968 621.011 32.4621 616.65 Q37.4273 612.29 46.212 612.29 Q54.9649 612.29 59.9619 616.65 Q64.9272 621.011 64.9272 628.649 Q64.9272 636.32 59.9619 640.681 Q54.9649 645.009 46.212 645.009 Q37.4273 645.009 32.4621 640.681 Q27.4968 636.32 27.4968 628.649 Z" fill="#000000" fill-rule="nonzero" fill-opacity="1" /><path clip-path="url(#clip270)" d="M58.657 596.916 L77.5631 596.916 L77.5631 602.805 L28.3562 602.805 L28.3562 596.916 L33.7671 596.916 Q30.5842 595.07 29.0564 592.269 Q27.4968 589.437 27.4968 585.522 Q27.4968 579.029 32.6531 574.986 Q37.8093 570.912 46.212 570.912 Q54.6147 570.912 59.771 574.986 Q64.9272 579.029 64.9272 585.522 Q64.9272 589.437 63.3994 592.269 Q61.8398 595.07 58.657 596.916 M46.212 576.992 Q39.7508 576.992 36.0905 579.665 Q32.3984 582.307 32.3984 586.954 Q32.3984 591.601 36.0905 594.275 Q39.7508 596.916 46.212 596.916 Q52.6732 596.916 56.3653 594.275 Q60.0256 591.601 60.0256 586.954 Q60.0256 582.307 56.3653 579.665 Q52.6732 576.992 46.212 576.992 Z" fill="#000000" fill-rule="nonzero" fill-opacity="1" /><path clip-path="url(#clip270)" d="M18.2347 555.412 L28.3562 555.412 L28.3562 543.349 L32.9077 543.349 L32.9077 555.412 L52.2594 555.412 Q56.6199 555.412 57.8613 554.234 Q59.1026 553.025 59.1026 549.365 L59.1026 543.349 L64.0042 543.349 L64.0042 549.365 Q64.0042 556.144 61.4897 558.722 Q58.9434 561.3 52.2594 561.3 L32.9077 561.3 L32.9077 565.597 L28.3562 565.597 L28.3562 561.3 L18.2347 561.3 L18.2347 555.412 Z" fill="#000000" fill-rule="nonzero" fill-opacity="1" /><path clip-path="url(#clip270)" d="M28.3562 535.646 L28.3562 529.79 L64.0042 529.79 L64.0042 535.646 L28.3562 535.646 M14.479 535.646 L14.479 529.79 L21.895 529.79 L21.895 535.646 L14.479 535.646 Z" fill="#000000" fill-rule="nonzero" fill-opacity="1" /><path clip-path="url(#clip270)" d="M35.1993 489.781 Q31.2526 487.585 29.3747 484.53 Q27.4968 481.474 27.4968 477.337 Q27.4968 471.767 31.4117 468.743 Q35.2948 465.719 42.4881 465.719 L64.0042 465.719 L64.0042 471.607 L42.679 471.607 Q37.5546 471.607 35.072 473.422 Q32.5894 475.236 32.5894 478.96 Q32.5894 483.511 35.6131 486.153 Q38.6368 488.795 43.8567 488.795 L64.0042 488.795 L64.0042 494.683 L42.679 494.683 Q37.5228 494.683 35.072 496.497 Q32.5894 498.312 32.5894 502.099 Q32.5894 506.587 35.6449 509.229 Q38.6686 511.87 43.8567 511.87 L64.0042 511.87 L64.0042 517.759 L28.3562 517.759 L28.3562 511.87 L33.8944 511.87 Q30.616 509.865 29.0564 507.064 Q27.4968 504.263 27.4968 500.412 Q27.4968 496.529 29.4702 493.824 Q31.4436 491.086 35.1993 489.781 Z" fill="#000000" fill-rule="nonzero" fill-opacity="1" /><path clip-path="url(#clip270)" d="M46.0847 437.837 Q46.0847 444.935 47.7079 447.672 Q49.3312 450.41 53.2461 450.41 Q56.3653 450.41 58.2114 448.373 Q60.0256 446.304 60.0256 442.771 Q60.0256 437.901 56.5881 434.973 Q53.1188 432.013 47.3897 432.013 L46.0847 432.013 L46.0847 437.837 M43.6657 426.156 L64.0042 426.156 L64.0042 432.013 L58.5933 432.013 Q61.8398 434.018 63.3994 437.01 Q64.9272 440.002 64.9272 444.33 Q64.9272 449.805 61.8716 453.051 Q58.7843 456.266 53.6281 456.266 Q47.6125 456.266 44.5569 452.256 Q41.5014 448.213 41.5014 440.224 L41.5014 432.013 L40.9285 432.013 Q36.8862 432.013 34.6901 434.686 Q32.4621 437.328 32.4621 442.134 Q32.4621 445.19 33.1941 448.086 Q33.9262 450.983 35.3903 453.656 L29.9795 453.656 Q28.7381 450.441 28.1334 447.418 Q27.4968 444.394 27.4968 441.529 Q27.4968 433.795 31.5072 429.976 Q35.5176 426.156 43.6657 426.156 Z" fill="#000000" fill-rule="nonzero" fill-opacity="1" /><path clip-path="url(#clip270)" d="M14.479 414.093 L14.479 408.237 L64.0042 408.237 L64.0042 414.093 L14.479 414.093 Z" fill="#000000" fill-rule="nonzero" fill-opacity="1" /><path clip-path="url(#clip270)" d="M29.4065 352.537 L34.9447 352.537 Q33.6716 355.019 33.035 357.693 Q32.3984 360.367 32.3984 363.231 Q32.3984 367.592 33.7352 369.788 Q35.072 371.952 37.7456 371.952 Q39.7826 371.952 40.9603 370.393 Q42.1061 368.833 43.1565 364.122 L43.6021 362.117 Q44.9389 355.879 47.3897 353.269 Q49.8086 350.627 54.1691 350.627 Q59.1344 350.627 62.0308 354.574 Q64.9272 358.489 64.9272 365.364 Q64.9272 368.228 64.3543 371.348 Q63.8132 374.435 62.6992 377.872 L56.6518 377.872 Q58.3387 374.626 59.198 371.475 Q60.0256 368.324 60.0256 365.236 Q60.0256 361.099 58.6251 358.871 Q57.1929 356.643 54.6147 356.643 Q52.2276 356.643 50.9545 358.266 Q49.6813 359.857 48.5037 365.3 L48.0262 367.337 Q46.8804 372.78 44.5251 375.199 Q42.138 377.618 38.0002 377.618 Q32.9713 377.618 30.2341 374.053 Q27.4968 370.488 27.4968 363.931 Q27.4968 360.685 27.9743 357.82 Q28.4517 354.956 29.4065 352.537 Z" fill="#000000" fill-rule="nonzero" fill-opacity="1" /><path clip-path="url(#clip270)" d="M32.4621 327.488 Q32.4621 332.198 36.1542 334.936 Q39.8145 337.673 46.212 337.673 Q52.6095 337.673 56.3017 334.968 Q59.9619 332.23 59.9619 327.488 Q59.9619 322.809 56.2698 320.072 Q52.5777 317.335 46.212 317.335 Q39.8781 317.335 36.186 320.072 Q32.4621 322.809 32.4621 327.488 M27.4968 327.488 Q27.4968 319.849 32.4621 315.488 Q37.4273 311.128 46.212 311.128 Q54.9649 311.128 59.9619 315.488 Q64.9272 319.849 64.9272 327.488 Q64.9272 335.158 59.9619 339.519 Q54.9649 343.848 46.212 343.848 Q37.4273 343.848 32.4621 339.519 Q27.4968 335.158 27.4968 327.488 Z" fill="#000000" fill-rule="nonzero" fill-opacity="1" /><path clip-path="url(#clip270)" d="M14.479 301.42 L14.479 295.564 L64.0042 295.564 L64.0042 301.42 L14.479 301.42 Z" fill="#000000" fill-rule="nonzero" fill-opacity="1" /><path clip-path="url(#clip270)" d="M49.9359 283.915 L28.3562 283.915 L28.3562 278.058 L49.7131 278.058 Q54.7739 278.058 57.3202 276.085 Q59.8346 274.111 59.8346 270.165 Q59.8346 265.422 56.8109 262.685 Q53.7872 259.916 48.5673 259.916 L28.3562 259.916 L28.3562 254.059 L64.0042 254.059 L64.0042 259.916 L58.5296 259.916 Q61.7762 262.048 63.3676 264.881 Q64.9272 267.682 64.9272 271.406 Q64.9272 277.549 61.1078 280.732 Q57.2883 283.915 49.9359 283.915 M27.4968 269.178 L27.4968 269.178 Z" fill="#000000" fill-rule="nonzero" fill-opacity="1" /><path clip-path="url(#clip270)" d="M18.2347 236.204 L28.3562 236.204 L28.3562 224.141 L32.9077 224.141 L32.9077 236.204 L52.2594 236.204 Q56.6199 236.204 57.8613 235.026 Q59.1026 233.816 59.1026 230.156 L59.1026 224.141 L64.0042 224.141 L64.0042 230.156 Q64.0042 236.936 61.4897 239.514 Q58.9434 242.092 52.2594 242.092 L32.9077 242.092 L32.9077 246.389 L28.3562 246.389 L28.3562 242.092 L18.2347 242.092 L18.2347 236.204 Z" fill="#000000" fill-rule="nonzero" fill-opacity="1" /><path clip-path="url(#clip270)" d="M28.3562 216.438 L28.3562 210.582 L64.0042 210.582 L64.0042 216.438 L28.3562 216.438 M14.479 216.438 L14.479 210.582 L21.895 210.582 L21.895 216.438 L14.479 216.438 Z" fill="#000000" fill-rule="nonzero" fill-opacity="1" /><path clip-path="url(#clip270)" d="M32.4621 184.514 Q32.4621 189.225 36.1542 191.962 Q39.8145 194.699 46.212 194.699 Q52.6095 194.699 56.3017 191.994 Q59.9619 189.256 59.9619 184.514 Q59.9619 179.835 56.2698 177.098 Q52.5777 174.361 46.212 174.361 Q39.8781 174.361 36.186 177.098 Q32.4621 179.835 32.4621 184.514 M27.4968 184.514 Q27.4968 176.875 32.4621 172.515 Q37.4273 168.154 46.212 168.154 Q54.9649 168.154 59.9619 172.515 Q64.9272 176.875 64.9272 184.514 Q64.9272 192.185 59.9619 196.545 Q54.9649 200.874 46.212 200.874 Q37.4273 200.874 32.4621 196.545 Q27.4968 192.185 27.4968 184.514 Z" fill="#000000" fill-rule="nonzero" fill-opacity="1" /><path clip-path="url(#clip270)" d="M42.4881 128.814 L64.0042 128.814 L64.0042 134.671 L42.679 134.671 Q37.6183 134.671 35.1038 136.644 Q32.5894 138.617 32.5894 142.564 Q32.5894 147.306 35.6131 150.044 Q38.6368 152.781 43.8567 152.781 L64.0042 152.781 L64.0042 158.669 L28.3562 158.669 L28.3562 152.781 L33.8944 152.781 Q30.6797 150.68 29.0883 147.848 Q27.4968 144.983 27.4968 141.259 Q27.4968 135.116 31.3163 131.965 Q35.1038 128.814 42.4881 128.814 Z" fill="#000000" fill-rule="nonzero" fill-opacity="1" /><path clip-path="url(#clip270)" d="M596.896 9.54393 L596.896 15.7418 L589.767 15.7418 Q585.756 15.7418 584.177 17.3622 Q582.637 18.9825 582.637 23.1955 L582.637 27.2059 L594.911 27.2059 L594.911 32.9987 L582.637 32.9987 L582.637 72.576 L575.143 72.576 L575.143 32.9987 L568.013 32.9987 L568.013 27.2059 L575.143 27.2059 L575.143 24.0462 Q575.143 16.471 578.667 13.0277 Q582.192 9.54393 589.848 9.54393 L596.896 9.54393 Z" fill="#000000" fill-rule="nonzero" fill-opacity="1" /><path clip-path="url(#clip270)" d="M603.135 27.2059 L610.588 27.2059 L610.588 72.576 L603.135 72.576 L603.135 27.2059 M603.135 9.54393 L610.588 9.54393 L610.588 18.9825 L603.135 18.9825 L603.135 9.54393 Z" fill="#000000" fill-rule="nonzero" fill-opacity="1" /><path clip-path="url(#clip270)" d="M663.898 27.2059 L647.492 49.2833 L664.749 72.576 L655.959 72.576 L642.753 54.752 L629.547 72.576 L620.756 72.576 L638.378 48.8377 L622.255 27.2059 L631.045 27.2059 L643.077 43.369 L655.108 27.2059 L663.898 27.2059 Z" fill="#000000" fill-rule="nonzero" fill-opacity="1" /><path clip-path="url(#clip270)" d="M711.537 48.0275 L711.537 51.6733 L677.266 51.6733 Q677.752 59.3701 681.884 63.421 Q686.057 67.4314 693.47 67.4314 Q697.764 67.4314 701.774 66.3781 Q705.825 65.3249 709.795 63.2184 L709.795 70.267 Q705.785 71.9684 701.572 72.8596 Q697.359 73.7508 693.024 73.7508 Q682.168 73.7508 675.808 67.4314 Q669.489 61.1119 669.489 50.3365 Q669.489 39.1965 675.484 32.6746 Q681.52 26.1121 691.728 26.1121 Q700.883 26.1121 706.19 32.0264 Q711.537 37.9003 711.537 48.0275 M704.083 45.84 Q704.002 39.7232 700.64 36.0774 Q697.318 32.4315 691.809 32.4315 Q685.571 32.4315 681.803 35.9558 Q678.076 39.4801 677.509 45.8805 L704.083 45.84 Z" fill="#000000" fill-rule="nonzero" fill-opacity="1" /><path clip-path="url(#clip270)" d="M753.626 34.0924 L753.626 9.54393 L761.08 9.54393 L761.08 72.576 L753.626 72.576 L753.626 65.7705 Q751.276 69.8214 747.671 71.8063 Q744.106 73.7508 739.083 73.7508 Q730.86 73.7508 725.675 67.1883 Q720.53 60.6258 720.53 49.9314 Q720.53 39.2371 725.675 32.6746 Q730.86 26.1121 739.083 26.1121 Q744.106 26.1121 747.671 28.0971 Q751.276 30.0415 753.626 34.0924 M728.227 49.9314 Q728.227 58.1548 731.589 62.8538 Q734.992 67.5124 740.906 67.5124 Q746.82 67.5124 750.223 62.8538 Q753.626 58.1548 753.626 49.9314 Q753.626 41.7081 750.223 37.0496 Q746.82 32.3505 740.906 32.3505 Q734.992 32.3505 731.589 37.0496 Q728.227 41.7081 728.227 49.9314 Z" fill="#000000" fill-rule="nonzero" fill-opacity="1" /><path clip-path="url(#clip270)" d="M823.423 49.7694 Q814.389 49.7694 810.906 51.8354 Q807.422 53.9013 807.422 58.8839 Q807.422 62.8538 810.014 65.2034 Q812.648 67.5124 817.144 67.5124 Q823.342 67.5124 827.069 63.1374 Q830.836 58.7219 830.836 51.4303 L830.836 49.7694 L823.423 49.7694 M838.29 46.6907 L838.29 72.576 L830.836 72.576 L830.836 65.6895 Q828.284 69.8214 824.476 71.8063 Q820.668 73.7508 815.159 73.7508 Q808.192 73.7508 804.06 69.8619 Q799.968 65.9325 799.968 59.3701 Q799.968 51.7138 805.072 47.825 Q810.217 43.9361 820.385 43.9361 L830.836 43.9361 L830.836 43.2069 Q830.836 38.0623 827.433 35.2672 Q824.071 32.4315 817.954 32.4315 Q814.065 32.4315 810.379 33.3632 Q806.693 34.295 803.29 36.1584 L803.29 29.2718 Q807.381 27.692 811.23 26.9223 Q815.078 26.1121 818.724 26.1121 Q828.568 26.1121 833.429 31.2163 Q838.29 36.3204 838.29 46.6907 Z" fill="#000000" fill-rule="nonzero" fill-opacity="1" /><path clip-path="url(#clip270)" d="M853.643 9.54393 L861.096 9.54393 L861.096 72.576 L853.643 72.576 L853.643 9.54393 Z" fill="#000000" fill-rule="nonzero" fill-opacity="1" /><path clip-path="url(#clip270)" d="M883.903 65.7705 L883.903 89.8329 L876.409 89.8329 L876.409 27.2059 L883.903 27.2059 L883.903 34.0924 Q886.252 30.0415 889.817 28.0971 Q893.423 26.1121 898.405 26.1121 Q906.669 26.1121 911.814 32.6746 Q916.999 39.2371 916.999 49.9314 Q916.999 60.6258 911.814 67.1883 Q906.669 73.7508 898.405 73.7508 Q893.423 73.7508 889.817 71.8063 Q886.252 69.8214 883.903 65.7705 M909.262 49.9314 Q909.262 41.7081 905.859 37.0496 Q902.497 32.3505 896.582 32.3505 Q890.668 32.3505 887.265 37.0496 Q883.903 41.7081 883.903 49.9314 Q883.903 58.1548 887.265 62.8538 Q890.668 67.5124 896.582 67.5124 Q902.497 67.5124 905.859 62.8538 Q909.262 58.1548 909.262 49.9314 Z" fill="#000000" fill-rule="nonzero" fill-opacity="1" /><path clip-path="url(#clip270)" d="M967.068 45.1919 L967.068 72.576 L959.614 72.576 L959.614 45.4349 Q959.614 38.994 957.103 35.7938 Q954.591 32.5936 949.568 32.5936 Q943.532 32.5936 940.048 36.4419 Q936.565 40.2903 936.565 46.9338 L936.565 72.576 L929.071 72.576 L929.071 9.54393 L936.565 9.54393 L936.565 34.2544 Q939.238 30.163 942.844 28.1376 Q946.489 26.1121 951.229 26.1121 Q959.047 26.1121 963.058 30.9732 Q967.068 35.7938 967.068 45.1919 Z" fill="#000000" fill-rule="nonzero" fill-opacity="1" /><path clip-path="url(#clip270)" d="M1002.55 49.7694 Q993.52 49.7694 990.037 51.8354 Q986.553 53.9013 986.553 58.8839 Q986.553 62.8538 989.145 65.2034 Q991.779 67.5124 996.275 67.5124 Q1002.47 67.5124 1006.2 63.1374 Q1009.97 58.7219 1009.97 51.4303 L1009.97 49.7694 L1002.55 49.7694 M1017.42 46.6907 L1017.42 72.576 L1009.97 72.576 L1009.97 65.6895 Q1007.42 69.8214 1003.61 71.8063 Q999.799 73.7508 994.29 73.7508 Q987.323 73.7508 983.191 69.8619 Q979.099 65.9325 979.099 59.3701 Q979.099 51.7138 984.203 47.825 Q989.348 43.9361 999.516 43.9361 L1009.97 43.9361 L1009.97 43.2069 Q1009.97 38.0623 1006.56 35.2672 Q1003.2 32.4315 997.085 32.4315 Q993.196 32.4315 989.51 33.3632 Q985.824 34.295 982.421 36.1584 L982.421 29.2718 Q986.512 27.692 990.361 26.9223 Q994.209 26.1121 997.855 26.1121 Q1007.7 26.1121 1012.56 31.2163 Q1017.42 36.3204 1017.42 46.6907 Z" fill="#000000" fill-rule="nonzero" fill-opacity="1" /><path clip-path="url(#clip270)" d="M1091.8 28.9478 L1091.8 35.9153 Q1088.64 34.1734 1085.44 33.3227 Q1082.28 32.4315 1079.03 32.4315 Q1071.78 32.4315 1067.77 37.0496 Q1063.76 41.6271 1063.76 49.9314 Q1063.76 58.2358 1067.77 62.8538 Q1071.78 67.4314 1079.03 67.4314 Q1082.28 67.4314 1085.44 66.5807 Q1088.64 65.6895 1091.8 63.9476 L1091.8 70.8341 Q1088.68 72.2924 1085.31 73.0216 Q1081.99 73.7508 1078.22 73.7508 Q1067.98 73.7508 1061.94 67.3098 Q1055.9 60.8689 1055.9 49.9314 Q1055.9 38.832 1061.98 32.472 Q1068.1 26.1121 1078.71 26.1121 Q1082.15 26.1121 1085.44 26.8413 Q1088.72 27.5299 1091.8 28.9478 Z" fill="#000000" fill-rule="nonzero" fill-opacity="1" /><path clip-path="url(#clip270)" d="M1122.34 32.4315 Q1116.34 32.4315 1112.86 37.1306 Q1109.38 41.7891 1109.38 49.9314 Q1109.38 58.0738 1112.82 62.7728 Q1116.3 67.4314 1122.34 67.4314 Q1128.29 67.4314 1131.78 62.7323 Q1135.26 58.0333 1135.26 49.9314 Q1135.26 41.8701 1131.78 37.1711 Q1128.29 32.4315 1122.34 32.4315 M1122.34 26.1121 Q1132.06 26.1121 1137.61 32.4315 Q1143.16 38.7509 1143.16 49.9314 Q1143.16 61.0714 1137.61 67.4314 Q1132.06 73.7508 1122.34 73.7508 Q1112.58 73.7508 1107.03 67.4314 Q1101.52 61.0714 1101.52 49.9314 Q1101.52 38.7509 1107.03 32.4315 Q1112.58 26.1121 1122.34 26.1121 Z" fill="#000000" fill-rule="nonzero" fill-opacity="1" /><path clip-path="url(#clip270)" d="M1193.23 45.1919 L1193.23 72.576 L1185.78 72.576 L1185.78 45.4349 Q1185.78 38.994 1183.26 35.7938 Q1180.75 32.5936 1175.73 32.5936 Q1169.69 32.5936 1166.21 36.4419 Q1162.73 40.2903 1162.73 46.9338 L1162.73 72.576 L1155.23 72.576 L1155.23 27.2059 L1162.73 27.2059 L1162.73 34.2544 Q1165.4 30.163 1169.01 28.1376 Q1172.65 26.1121 1177.39 26.1121 Q1185.21 26.1121 1189.22 30.9732 Q1193.23 35.7938 1193.23 45.1919 Z" fill="#000000" fill-rule="nonzero" fill-opacity="1" /><path clip-path="url(#clip270)" d="M1202.75 27.2059 L1210.65 27.2059 L1224.83 65.2844 L1239.01 27.2059 L1246.9 27.2059 L1229.89 72.576 L1219.76 72.576 L1202.75 27.2059 Z" fill="#000000" fill-rule="nonzero" fill-opacity="1" /><path clip-path="url(#clip270)" d="M1296 48.0275 L1296 51.6733 L1261.73 51.6733 Q1262.22 59.3701 1266.35 63.421 Q1270.52 67.4314 1277.93 67.4314 Q1282.23 67.4314 1286.24 66.3781 Q1290.29 65.3249 1294.26 63.2184 L1294.26 70.267 Q1290.25 71.9684 1286.04 72.8596 Q1281.82 73.7508 1277.49 73.7508 Q1266.63 73.7508 1260.27 67.4314 Q1253.95 61.1119 1253.95 50.3365 Q1253.95 39.1965 1259.95 32.6746 Q1265.98 26.1121 1276.19 26.1121 Q1285.35 26.1121 1290.65 32.0264 Q1296 37.9003 1296 48.0275 M1288.55 45.84 Q1288.47 39.7232 1285.1 36.0774 Q1281.78 32.4315 1276.27 32.4315 Q1270.04 32.4315 1266.27 35.9558 Q1262.54 39.4801 1261.97 45.8805 L1288.55 45.84 Z" fill="#000000" fill-rule="nonzero" fill-opacity="1" /><path clip-path="url(#clip270)" d="M1334.53 34.1734 Q1333.27 33.4443 1331.77 33.1202 Q1330.31 32.7556 1328.53 32.7556 Q1322.21 32.7556 1318.81 36.8875 Q1315.45 40.9789 1315.45 48.6757 L1315.45 72.576 L1307.95 72.576 L1307.95 27.2059 L1315.45 27.2059 L1315.45 34.2544 Q1317.8 30.1225 1321.56 28.1376 Q1325.33 26.1121 1330.72 26.1121 Q1331.49 26.1121 1332.42 26.2337 Q1333.35 26.3147 1334.49 26.5172 L1334.53 34.1734 Z" fill="#000000" fill-rule="nonzero" fill-opacity="1" /><path clip-path="url(#clip270)" d="M1370.74 49.3643 Q1370.74 41.2625 1367.38 36.8065 Q1364.06 32.3505 1358.02 32.3505 Q1352.03 32.3505 1348.66 36.8065 Q1345.34 41.2625 1345.34 49.3643 Q1345.34 57.4256 1348.66 61.8816 Q1352.03 66.3376 1358.02 66.3376 Q1364.06 66.3376 1367.38 61.8816 Q1370.74 57.4256 1370.74 49.3643 M1378.19 66.9452 Q1378.19 78.5308 1373.05 84.1616 Q1367.9 89.8329 1357.29 89.8329 Q1353.36 89.8329 1349.88 89.2252 Q1346.39 88.6581 1343.11 87.4428 L1343.11 80.1917 Q1346.39 81.9741 1349.59 82.8248 Q1352.8 83.6755 1356.12 83.6755 Q1363.45 83.6755 1367.09 79.8271 Q1370.74 76.0193 1370.74 68.282 L1370.74 64.5957 Q1368.43 68.6061 1364.83 70.5911 Q1361.22 72.576 1356.2 72.576 Q1347.85 72.576 1342.75 66.2161 Q1337.64 59.8562 1337.64 49.3643 Q1337.64 38.832 1342.75 32.472 Q1347.85 26.1121 1356.2 26.1121 Q1361.22 26.1121 1364.83 28.0971 Q1368.43 30.082 1370.74 34.0924 L1370.74 27.2059 L1378.19 27.2059 L1378.19 66.9452 Z" fill="#000000" fill-rule="nonzero" fill-opacity="1" /><path clip-path="url(#clip270)" d="M1432.35 48.0275 L1432.35 51.6733 L1398.08 51.6733 Q1398.57 59.3701 1402.7 63.421 Q1406.87 67.4314 1414.29 67.4314 Q1418.58 67.4314 1422.59 66.3781 Q1426.64 65.3249 1430.61 63.2184 L1430.61 70.267 Q1426.6 71.9684 1422.39 72.8596 Q1418.18 73.7508 1413.84 73.7508 Q1402.99 73.7508 1396.63 67.4314 Q1390.31 61.1119 1390.31 50.3365 Q1390.31 39.1965 1396.3 32.6746 Q1402.34 26.1121 1412.55 26.1121 Q1421.7 26.1121 1427.01 32.0264 Q1432.35 37.9003 1432.35 48.0275 M1424.9 45.84 Q1424.82 39.7232 1421.46 36.0774 Q1418.14 32.4315 1412.63 32.4315 Q1406.39 32.4315 1402.62 35.9558 Q1398.89 39.4801 1398.33 45.8805 L1424.9 45.84 Z" fill="#000000" fill-rule="nonzero" fill-opacity="1" /><path clip-path="url(#clip270)" d="M1482.3 45.1919 L1482.3 72.576 L1474.85 72.576 L1474.85 45.4349 Q1474.85 38.994 1472.34 35.7938 Q1469.83 32.5936 1464.8 32.5936 Q1458.77 32.5936 1455.28 36.4419 Q1451.8 40.2903 1451.8 46.9338 L1451.8 72.576 L1444.31 72.576 L1444.31 27.2059 L1451.8 27.2059 L1451.8 34.2544 Q1454.47 30.163 1458.08 28.1376 Q1461.72 26.1121 1466.46 26.1121 Q1474.28 26.1121 1478.29 30.9732 Q1482.3 35.7938 1482.3 45.1919 Z" fill="#000000" fill-rule="nonzero" fill-opacity="1" /><path clip-path="url(#clip270)" d="M1529.82 28.9478 L1529.82 35.9153 Q1526.66 34.1734 1523.46 33.3227 Q1520.3 32.4315 1517.06 32.4315 Q1509.81 32.4315 1505.8 37.0496 Q1501.79 41.6271 1501.79 49.9314 Q1501.79 58.2358 1505.8 62.8538 Q1509.81 67.4314 1517.06 67.4314 Q1520.3 67.4314 1523.46 66.5807 Q1526.66 65.6895 1529.82 63.9476 L1529.82 70.8341 Q1526.7 72.2924 1523.34 73.0216 Q1520.02 73.7508 1516.25 73.7508 Q1506 73.7508 1499.96 67.3098 Q1493.93 60.8689 1493.93 49.9314 Q1493.93 38.832 1500 32.472 Q1506.12 26.1121 1516.74 26.1121 Q1520.18 26.1121 1523.46 26.8413 Q1526.74 27.5299 1529.82 28.9478 Z" fill="#000000" fill-rule="nonzero" fill-opacity="1" /><path clip-path="url(#clip270)" d="M1581.59 48.0275 L1581.59 51.6733 L1547.32 51.6733 Q1547.81 59.3701 1551.94 63.421 Q1556.11 67.4314 1563.52 67.4314 Q1567.82 67.4314 1571.83 66.3781 Q1575.88 65.3249 1579.85 63.2184 L1579.85 70.267 Q1575.84 71.9684 1571.62 72.8596 Q1567.41 73.7508 1563.08 73.7508 Q1552.22 73.7508 1545.86 67.4314 Q1539.54 61.1119 1539.54 50.3365 Q1539.54 39.1965 1545.54 32.6746 Q1551.57 26.1121 1561.78 26.1121 Q1570.94 26.1121 1576.24 32.0264 Q1581.59 37.9003 1581.59 48.0275 M1574.14 45.84 Q1574.06 39.7232 1570.69 36.0774 Q1567.37 32.4315 1561.86 32.4315 Q1555.62 32.4315 1551.86 35.9558 Q1548.13 39.4801 1547.56 45.8805 L1574.14 45.84 Z" fill="#000000" fill-rule="nonzero" fill-opacity="1" /><path clip-path="url(#clip270)" d="M1620.2 27.2059 L1627.65 27.2059 L1627.65 72.576 L1620.2 72.576 L1620.2 27.2059 M1620.2 9.54393 L1627.65 9.54393 L1627.65 18.9825 L1620.2 18.9825 L1620.2 9.54393 Z" fill="#000000" fill-rule="nonzero" fill-opacity="1" /><path clip-path="url(#clip270)" d="M1680.96 45.1919 L1680.96 72.576 L1673.51 72.576 L1673.51 45.4349 Q1673.51 38.994 1670.99 35.7938 Q1668.48 32.5936 1663.46 32.5936 Q1657.42 32.5936 1653.94 36.4419 Q1650.46 40.2903 1650.46 46.9338 L1650.46 72.576 L1642.96 72.576 L1642.96 27.2059 L1650.46 27.2059 L1650.46 34.2544 Q1653.13 30.163 1656.73 28.1376 Q1660.38 26.1121 1665.12 26.1121 Q1672.94 26.1121 1676.95 30.9732 Q1680.96 35.7938 1680.96 45.1919 Z" fill="#000000" fill-rule="nonzero" fill-opacity="1" /><path clip-path="url(#clip270)" d="M1718.79 9.54393 L1718.79 15.7418 L1711.66 15.7418 Q1707.65 15.7418 1706.07 17.3622 Q1704.54 18.9825 1704.54 23.1955 L1704.54 27.2059 L1716.81 27.2059 L1716.81 32.9987 L1704.54 32.9987 L1704.54 72.576 L1697.04 72.576 L1697.04 32.9987 L1689.91 32.9987 L1689.91 27.2059 L1697.04 27.2059 L1697.04 24.0462 Q1697.04 16.471 1700.57 13.0277 Q1704.09 9.54393 1711.75 9.54393 L1718.79 9.54393 Z" fill="#000000" fill-rule="nonzero" fill-opacity="1" /><path clip-path="url(#clip270)" d="M1725.03 9.54393 L1732.49 9.54393 L1732.49 72.576 L1725.03 72.576 L1725.03 9.54393 Z" fill="#000000" fill-rule="nonzero" fill-opacity="1" /><path clip-path="url(#clip270)" d="M1747.31 54.671 L1747.31 27.2059 L1754.77 27.2059 L1754.77 54.3874 Q1754.77 60.8284 1757.28 64.0691 Q1759.79 67.2693 1764.81 67.2693 Q1770.85 67.2693 1774.33 63.421 Q1777.86 59.5726 1777.86 52.9291 L1777.86 27.2059 L1785.31 27.2059 L1785.31 72.576 L1777.86 72.576 L1777.86 65.6084 Q1775.14 69.7404 1771.54 71.7658 Q1767.97 73.7508 1763.23 73.7508 Q1755.41 73.7508 1751.36 68.8897 Q1747.31 64.0286 1747.31 54.671 M1766.07 26.1121 L1766.07 26.1121 Z" fill="#000000" fill-rule="nonzero" fill-opacity="1" /><path clip-path="url(#clip270)" d="M1839.47 48.0275 L1839.47 51.6733 L1805.2 51.6733 Q1805.69 59.3701 1809.82 63.421 Q1813.99 67.4314 1821.4 67.4314 Q1825.7 67.4314 1829.71 66.3781 Q1833.76 65.3249 1837.73 63.2184 L1837.73 70.267 Q1833.72 71.9684 1829.51 72.8596 Q1825.29 73.7508 1820.96 73.7508 Q1810.1 73.7508 1803.74 67.4314 Q1797.42 61.1119 1797.42 50.3365 Q1797.42 39.1965 1803.42 32.6746 Q1809.45 26.1121 1819.66 26.1121 Q1828.82 26.1121 1834.12 32.0264 Q1839.47 37.9003 1839.47 48.0275 M1832.02 45.84 Q1831.94 39.7232 1828.57 36.0774 Q1825.25 32.4315 1819.74 32.4315 Q1813.5 32.4315 1809.74 35.9558 Q1806.01 39.4801 1805.44 45.8805 L1832.02 45.84 Z" fill="#000000" fill-rule="nonzero" fill-opacity="1" /><path clip-path="url(#clip270)" d="M1889.42 45.1919 L1889.42 72.576 L1881.96 72.576 L1881.96 45.4349 Q1881.96 38.994 1879.45 35.7938 Q1876.94 32.5936 1871.92 32.5936 Q1865.88 32.5936 1862.4 36.4419 Q1858.92 40.2903 1858.92 46.9338 L1858.92 72.576 L1851.42 72.576 L1851.42 27.2059 L1858.92 27.2059 L1858.92 34.2544 Q1861.59 30.163 1865.19 28.1376 Q1868.84 26.1121 1873.58 26.1121 Q1881.4 26.1121 1885.41 30.9732 Q1889.42 35.7938 1889.42 45.1919 Z" fill="#000000" fill-rule="nonzero" fill-opacity="1" /><path clip-path="url(#clip270)" d="M1936.94 28.9478 L1936.94 35.9153 Q1933.78 34.1734 1930.58 33.3227 Q1927.42 32.4315 1924.18 32.4315 Q1916.92 32.4315 1912.91 37.0496 Q1908.9 41.6271 1908.9 49.9314 Q1908.9 58.2358 1912.91 62.8538 Q1916.92 67.4314 1924.18 67.4314 Q1927.42 67.4314 1930.58 66.5807 Q1933.78 65.6895 1936.94 63.9476 L1936.94 70.8341 Q1933.82 72.2924 1930.45 73.0216 Q1927.13 73.7508 1923.36 73.7508 Q1913.12 73.7508 1907.08 67.3098 Q1901.04 60.8689 1901.04 49.9314 Q1901.04 38.832 1907.12 32.472 Q1913.24 26.1121 1923.85 26.1121 Q1927.29 26.1121 1930.58 26.8413 Q1933.86 27.5299 1936.94 28.9478 Z" fill="#000000" fill-rule="nonzero" fill-opacity="1" /><path clip-path="url(#clip270)" d="M1988.71 48.0275 L1988.71 51.6733 L1954.44 51.6733 Q1954.92 59.3701 1959.05 63.421 Q1963.23 67.4314 1970.64 67.4314 Q1974.93 67.4314 1978.94 66.3781 Q1982.99 65.3249 1986.96 63.2184 L1986.96 70.267 Q1982.95 71.9684 1978.74 72.8596 Q1974.53 73.7508 1970.19 73.7508 Q1959.34 73.7508 1952.98 67.4314 Q1946.66 61.1119 1946.66 50.3365 Q1946.66 39.1965 1952.65 32.6746 Q1958.69 26.1121 1968.9 26.1121 Q1978.05 26.1121 1983.36 32.0264 Q1988.71 37.9003 1988.71 48.0275 M1981.25 45.84 Q1981.17 39.7232 1977.81 36.0774 Q1974.49 32.4315 1968.98 32.4315 Q1962.74 32.4315 1958.97 35.9558 Q1955.25 39.4801 1954.68 45.8805 L1981.25 45.84 Z" fill="#000000" fill-rule="nonzero" fill-opacity="1" /><polyline clip-path="url(#clip272)" style="stroke:#009af9; stroke-linecap:round; stroke-linejoin:round; stroke-width:4; stroke-opacity:1; fill:none" points="264.778,1386.4 366.137,1386.4 467.495,1263.78 568.853,1202.47 670.211,1263.78 771.569,1018.55 872.927,1386.4 974.285,1079.86 1075.64,1202.47 1177,1325.09 1278.36,1202.47 1379.72,1202.47 1481.08,1141.17 1582.43,1263.78 1683.79,895.94 1785.15,773.326 1886.51,160.256 1987.87,160.256 2089.22,160.256 2190.58,160.256 2291.94,160.256 "/>
<polyline clip-path="url(#clip272)" style="stroke:#e26f46; stroke-linecap:round; stroke-linejoin:round; stroke-width:4; stroke-opacity:1; fill:none" points="264.778,1386.4 366.137,1079.86 467.495,1386.4 568.853,1263.78 670.211,1325.09 771.569,1386.4 872.927,1141.17 974.285,1079.86 1075.64,160.256 1177,160.256 1278.36,160.256 1379.72,160.256 1481.08,160.256 1582.43,160.256 1683.79,160.256 1785.15,160.256 1886.51,160.256 1987.87,160.256 2089.22,160.256 2190.58,160.256 2291.94,160.256 "/>
<polyline clip-path="url(#clip272)" style="stroke:#3da44d; stroke-linecap:round; stroke-linejoin:round; stroke-width:4; stroke-opacity:1; fill:none" points="264.778,1386.4 366.137,1263.78 467.495,1263.78 568.853,1263.78 670.211,1141.17 771.569,528.098 872.927,405.484 974.285,344.177 1075.64,344.177 1177,344.177 1278.36,344.177 1379.72,344.177 1481.08,344.177 1582.43,344.177 1683.79,344.177 1785.15,405.484 1886.51,405.484 1987.87,405.484 2089.22,405.484 2190.58,405.484 2291.94,405.484 "/>
<polyline clip-path="url(#clip272)" style="stroke:#c271d2; stroke-linecap:round; stroke-linejoin:round; stroke-width:4; stroke-opacity:1; fill:none" points="264.778,1386.4 366.137,1202.47 467.495,1263.78 568.853,1141.17 670.211,650.712 771.569,589.405 872.927,589.405 974.285,466.791 1075.64,466.791 1177,466.791 1278.36,466.791 1379.72,466.791 1481.08,528.098 1582.43,589.405 1683.79,589.405 1785.15,589.405 1886.51,589.405 1987.87,589.405 2089.22,589.405 2190.58,589.405 2291.94,589.405 "/>
<polyline clip-path="url(#clip272)" style="stroke:#ac8d18; stroke-linecap:round; stroke-linejoin:round; stroke-width:4; stroke-opacity:1; fill:none" points="264.778,1386.4 366.137,1263.78 467.495,1141.17 568.853,957.247 670.211,589.405 771.569,405.484 872.927,405.484 974.285,589.405 1075.64,712.019 1177,650.712 1278.36,712.019 1379.72,712.019 1481.08,712.019 1582.43,712.019 1683.79,650.712 1785.15,834.633 1886.51,773.326 1987.87,773.326 2089.22,773.326 2190.58,895.94 2291.94,834.633 "/>
<polyline clip-path="url(#clip272)" style="stroke:#00a9ad; stroke-linecap:round; stroke-linejoin:round; stroke-width:4; stroke-opacity:1; fill:none" points="264.778,1386.4 366.137,1386.4 467.495,1325.09 568.853,834.633 670.211,528.098 771.569,528.098 872.927,405.484 974.285,344.177 1075.64,405.484 1177,405.484 1278.36,221.563 1379.72,466.791 1481.08,466.791 1582.43,650.712 1683.79,528.098 1785.15,650.712 1886.51,712.019 1987.87,834.633 2089.22,895.94 2190.58,895.94 2291.94,895.94 "/>
<polyline clip-path="url(#clip272)" style="stroke:#ed5d92; stroke-linecap:round; stroke-linejoin:round; stroke-width:4; stroke-opacity:1; fill:none" points="264.778,1386.4 366.137,1325.09 467.495,1018.55 568.853,834.633 670.211,834.633 771.569,895.94 872.927,895.94 974.285,712.019 1075.64,466.791 1177,650.712 1278.36,650.712 1379.72,650.712 1481.08,528.098 1582.43,589.405 1683.79,589.405 1785.15,650.712 1886.51,773.326 1987.87,712.019 2089.22,712.019 2190.58,712.019 2291.94,712.019 "/>
<polyline clip-path="url(#clip272)" style="stroke:#c68125; stroke-linecap:round; stroke-linejoin:round; stroke-width:4; stroke-opacity:1; fill:none" points="264.778,1386.4 366.137,1386.4 467.495,1018.55 568.853,895.94 670.211,650.712 771.569,957.247 872.927,650.712 974.285,895.94 1075.64,895.94 1177,834.633 1278.36,957.247 1379.72,834.633 1481.08,650.712 1582.43,834.633 1683.79,895.94 1785.15,834.633 1886.51,834.633 1987.87,834.633 2089.22,589.405 2190.58,589.405 2291.94,650.712 "/>
<path clip-path="url(#clip270)" d="M275.59 633.356 L661.695 633.356 L661.695 166.796 L275.59 166.796  Z" fill="#ffffff" fill-rule="evenodd" fill-opacity="1"/>
<polyline clip-path="url(#clip270)" style="stroke:#000000; stroke-linecap:round; stroke-linejoin:round; stroke-width:4; stroke-opacity:1; fill:none" points="275.59,633.356 661.695,633.356 661.695,166.796 275.59,166.796 275.59,633.356 "/>
<polyline clip-path="url(#clip270)" style="stroke:#009af9; stroke-linecap:round; stroke-linejoin:round; stroke-width:4; stroke-opacity:1; fill:none" points="299.465,218.636 442.718,218.636 "/>
<path clip-path="url(#clip270)" d="M483.561 223.856 L482.543 218.508 Q481.501 213.022 477.381 213.022 Q474.279 213.022 472.867 215.569 Q471.084 218.763 471.084 222.976 Q471.084 228.069 472.821 230.499 Q474.58 232.976 477.381 232.976 Q480.483 232.976 482.149 228.045 L483.561 223.856 M485.945 216.772 L488.237 209.99 L492.033 209.99 L487.288 224.041 L488.214 229.11 Q488.422 230.244 489.233 231.194 Q490.182 232.305 490.922 232.305 L492.959 232.305 L492.959 235.916 L490.413 235.916 Q488.237 235.916 486.293 233.971 Q485.344 232.999 484.95 230.962 Q483.885 233.531 481.709 235.545 Q480.691 236.494 477.381 236.494 Q471.941 236.494 469.302 232.976 Q466.594 229.342 466.594 222.976 Q466.594 216.17 469.534 212.976 Q472.797 209.411 477.381 209.411 Q484.58 209.411 485.945 216.772 Z" fill="#000000" fill-rule="nonzero" fill-opacity="1" /><path clip-path="url(#clip270)" d="M515.32 214.388 L544.996 214.388 L544.996 218.277 L515.32 218.277 L515.32 214.388 M515.32 223.832 L544.996 223.832 L544.996 227.768 L515.32 227.768 L515.32 223.832 Z" fill="#000000" fill-rule="nonzero" fill-opacity="1" /><path clip-path="url(#clip270)" d="M580.158 204.434 Q576.547 204.434 574.718 207.999 Q572.913 211.541 572.913 218.67 Q572.913 225.777 574.718 229.342 Q576.547 232.883 580.158 232.883 Q583.792 232.883 585.598 229.342 Q587.426 225.777 587.426 218.67 Q587.426 211.541 585.598 207.999 Q583.792 204.434 580.158 204.434 M580.158 200.731 Q585.968 200.731 589.024 205.337 Q592.102 209.92 592.102 218.67 Q592.102 227.397 589.024 232.004 Q585.968 236.587 580.158 236.587 Q574.348 236.587 571.269 232.004 Q568.214 227.397 568.214 218.67 Q568.214 209.92 571.269 205.337 Q574.348 200.731 580.158 200.731 Z" fill="#000000" fill-rule="nonzero" fill-opacity="1" /><path clip-path="url(#clip270)" d="M600.32 230.036 L605.204 230.036 L605.204 235.916 L600.32 235.916 L600.32 230.036 Z" fill="#000000" fill-rule="nonzero" fill-opacity="1" /><path clip-path="url(#clip270)" d="M616.199 231.981 L623.838 231.981 L623.838 205.615 L615.528 207.282 L615.528 203.022 L623.792 201.356 L628.468 201.356 L628.468 231.981 L636.107 231.981 L636.107 235.916 L616.199 235.916 L616.199 231.981 Z" fill="#000000" fill-rule="nonzero" fill-opacity="1" /><polyline clip-path="url(#clip270)" style="stroke:#e26f46; stroke-linecap:round; stroke-linejoin:round; stroke-width:4; stroke-opacity:1; fill:none" points="299.465,270.476 442.718,270.476 "/>
<path clip-path="url(#clip270)" d="M483.561 275.696 L482.543 270.348 Q481.501 264.862 477.381 264.862 Q474.279 264.862 472.867 267.409 Q471.084 270.603 471.084 274.816 Q471.084 279.909 472.821 282.339 Q474.58 284.816 477.381 284.816 Q480.483 284.816 482.149 279.885 L483.561 275.696 M485.945 268.612 L488.237 261.83 L492.033 261.83 L487.288 275.881 L488.214 280.95 Q488.422 282.084 489.233 283.034 Q490.182 284.145 490.922 284.145 L492.959 284.145 L492.959 287.756 L490.413 287.756 Q488.237 287.756 486.293 285.811 Q485.344 284.839 484.95 282.802 Q483.885 285.371 481.709 287.385 Q480.691 288.334 477.381 288.334 Q471.941 288.334 469.302 284.816 Q466.594 281.182 466.594 274.816 Q466.594 268.01 469.534 264.816 Q472.797 261.251 477.381 261.251 Q484.58 261.251 485.945 268.612 Z" fill="#000000" fill-rule="nonzero" fill-opacity="1" /><path clip-path="url(#clip270)" d="M515.32 266.228 L544.996 266.228 L544.996 270.117 L515.32 270.117 L515.32 266.228 M515.32 275.672 L544.996 275.672 L544.996 279.608 L515.32 279.608 L515.32 275.672 Z" fill="#000000" fill-rule="nonzero" fill-opacity="1" /><path clip-path="url(#clip270)" d="M580.158 256.274 Q576.547 256.274 574.718 259.839 Q572.913 263.381 572.913 270.51 Q572.913 277.617 574.718 281.182 Q576.547 284.723 580.158 284.723 Q583.792 284.723 585.598 281.182 Q587.426 277.617 587.426 270.51 Q587.426 263.381 585.598 259.839 Q583.792 256.274 580.158 256.274 M580.158 252.571 Q585.968 252.571 589.024 257.177 Q592.102 261.76 592.102 270.51 Q592.102 279.237 589.024 283.844 Q585.968 288.427 580.158 288.427 Q574.348 288.427 571.269 283.844 Q568.214 279.237 568.214 270.51 Q568.214 261.76 571.269 257.177 Q574.348 252.571 580.158 252.571 Z" fill="#000000" fill-rule="nonzero" fill-opacity="1" /><path clip-path="url(#clip270)" d="M600.32 281.876 L605.204 281.876 L605.204 287.756 L600.32 287.756 L600.32 281.876 Z" fill="#000000" fill-rule="nonzero" fill-opacity="1" /><path clip-path="url(#clip270)" d="M619.417 283.821 L635.736 283.821 L635.736 287.756 L613.792 287.756 L613.792 283.821 Q616.454 281.066 621.037 276.436 Q625.644 271.784 626.824 270.441 Q629.07 267.918 629.949 266.182 Q630.852 264.423 630.852 262.733 Q630.852 259.978 628.908 258.242 Q626.986 256.506 623.885 256.506 Q621.686 256.506 619.232 257.27 Q616.801 258.034 614.024 259.585 L614.024 254.862 Q616.848 253.728 619.301 253.149 Q621.755 252.571 623.792 252.571 Q629.162 252.571 632.357 255.256 Q635.551 257.941 635.551 262.432 Q635.551 264.561 634.741 266.483 Q633.954 268.381 631.847 270.973 Q631.269 271.645 628.167 274.862 Q625.065 278.057 619.417 283.821 Z" fill="#000000" fill-rule="nonzero" fill-opacity="1" /><polyline clip-path="url(#clip270)" style="stroke:#3da44d; stroke-linecap:round; stroke-linejoin:round; stroke-width:4; stroke-opacity:1; fill:none" points="299.465,322.316 442.718,322.316 "/>
<path clip-path="url(#clip270)" d="M483.561 327.536 L482.543 322.188 Q481.501 316.702 477.381 316.702 Q474.279 316.702 472.867 319.249 Q471.084 322.443 471.084 326.656 Q471.084 331.749 472.821 334.179 Q474.58 336.656 477.381 336.656 Q480.483 336.656 482.149 331.725 L483.561 327.536 M485.945 320.452 L488.237 313.67 L492.033 313.67 L487.288 327.721 L488.214 332.79 Q488.422 333.924 489.233 334.874 Q490.182 335.985 490.922 335.985 L492.959 335.985 L492.959 339.596 L490.413 339.596 Q488.237 339.596 486.293 337.651 Q485.344 336.679 484.95 334.642 Q483.885 337.211 481.709 339.225 Q480.691 340.174 477.381 340.174 Q471.941 340.174 469.302 336.656 Q466.594 333.022 466.594 326.656 Q466.594 319.85 469.534 316.656 Q472.797 313.091 477.381 313.091 Q484.58 313.091 485.945 320.452 Z" fill="#000000" fill-rule="nonzero" fill-opacity="1" /><path clip-path="url(#clip270)" d="M515.32 318.068 L544.996 318.068 L544.996 321.957 L515.32 321.957 L515.32 318.068 M515.32 327.512 L544.996 327.512 L544.996 331.448 L515.32 331.448 L515.32 327.512 Z" fill="#000000" fill-rule="nonzero" fill-opacity="1" /><path clip-path="url(#clip270)" d="M580.158 308.114 Q576.547 308.114 574.718 311.679 Q572.913 315.221 572.913 322.35 Q572.913 329.457 574.718 333.022 Q576.547 336.563 580.158 336.563 Q583.792 336.563 585.598 333.022 Q587.426 329.457 587.426 322.35 Q587.426 315.221 585.598 311.679 Q583.792 308.114 580.158 308.114 M580.158 304.411 Q585.968 304.411 589.024 309.017 Q592.102 313.6 592.102 322.35 Q592.102 331.077 589.024 335.684 Q585.968 340.267 580.158 340.267 Q574.348 340.267 571.269 335.684 Q568.214 331.077 568.214 322.35 Q568.214 313.6 571.269 309.017 Q574.348 304.411 580.158 304.411 Z" fill="#000000" fill-rule="nonzero" fill-opacity="1" /><path clip-path="url(#clip270)" d="M600.32 333.716 L605.204 333.716 L605.204 339.596 L600.32 339.596 L600.32 333.716 Z" fill="#000000" fill-rule="nonzero" fill-opacity="1" /><path clip-path="url(#clip270)" d="M629.556 320.962 Q632.912 321.679 634.787 323.948 Q636.685 326.216 636.685 329.549 Q636.685 334.665 633.167 337.466 Q629.648 340.267 623.167 340.267 Q620.991 340.267 618.676 339.827 Q616.385 339.411 613.931 338.554 L613.931 334.04 Q615.875 335.174 618.19 335.753 Q620.505 336.332 623.028 336.332 Q627.426 336.332 629.718 334.596 Q632.033 332.86 632.033 329.549 Q632.033 326.494 629.88 324.781 Q627.75 323.045 623.931 323.045 L619.903 323.045 L619.903 319.202 L624.116 319.202 Q627.565 319.202 629.394 317.837 Q631.222 316.448 631.222 313.855 Q631.222 311.193 629.324 309.781 Q627.449 308.346 623.931 308.346 Q622.01 308.346 619.811 308.763 Q617.611 309.179 614.973 310.059 L614.973 305.892 Q617.635 305.151 619.949 304.781 Q622.287 304.411 624.348 304.411 Q629.672 304.411 632.773 306.841 Q635.875 309.249 635.875 313.369 Q635.875 316.239 634.232 318.23 Q632.588 320.198 629.556 320.962 Z" fill="#000000" fill-rule="nonzero" fill-opacity="1" /><polyline clip-path="url(#clip270)" style="stroke:#c271d2; stroke-linecap:round; stroke-linejoin:round; stroke-width:4; stroke-opacity:1; fill:none" points="299.465,374.156 442.718,374.156 "/>
<path clip-path="url(#clip270)" d="M483.561 379.376 L482.543 374.028 Q481.501 368.542 477.381 368.542 Q474.279 368.542 472.867 371.089 Q471.084 374.283 471.084 378.496 Q471.084 383.589 472.821 386.019 Q474.58 388.496 477.381 388.496 Q480.483 388.496 482.149 383.565 L483.561 379.376 M485.945 372.292 L488.237 365.51 L492.033 365.51 L487.288 379.561 L488.214 384.63 Q488.422 385.764 489.233 386.714 Q490.182 387.825 490.922 387.825 L492.959 387.825 L492.959 391.436 L490.413 391.436 Q488.237 391.436 486.293 389.491 Q485.344 388.519 484.95 386.482 Q483.885 389.051 481.709 391.065 Q480.691 392.014 477.381 392.014 Q471.941 392.014 469.302 388.496 Q466.594 384.862 466.594 378.496 Q466.594 371.69 469.534 368.496 Q472.797 364.931 477.381 364.931 Q484.58 364.931 485.945 372.292 Z" fill="#000000" fill-rule="nonzero" fill-opacity="1" /><path clip-path="url(#clip270)" d="M515.32 369.908 L544.996 369.908 L544.996 373.797 L515.32 373.797 L515.32 369.908 M515.32 379.352 L544.996 379.352 L544.996 383.288 L515.32 383.288 L515.32 379.352 Z" fill="#000000" fill-rule="nonzero" fill-opacity="1" /><path clip-path="url(#clip270)" d="M580.158 359.954 Q576.547 359.954 574.718 363.519 Q572.913 367.061 572.913 374.19 Q572.913 381.297 574.718 384.862 Q576.547 388.403 580.158 388.403 Q583.792 388.403 585.598 384.862 Q587.426 381.297 587.426 374.19 Q587.426 367.061 585.598 363.519 Q583.792 359.954 580.158 359.954 M580.158 356.251 Q585.968 356.251 589.024 360.857 Q592.102 365.44 592.102 374.19 Q592.102 382.917 589.024 387.524 Q585.968 392.107 580.158 392.107 Q574.348 392.107 571.269 387.524 Q568.214 382.917 568.214 374.19 Q568.214 365.44 571.269 360.857 Q574.348 356.251 580.158 356.251 Z" fill="#000000" fill-rule="nonzero" fill-opacity="1" /><path clip-path="url(#clip270)" d="M600.32 385.556 L605.204 385.556 L605.204 391.436 L600.32 391.436 L600.32 385.556 Z" fill="#000000" fill-rule="nonzero" fill-opacity="1" /><path clip-path="url(#clip270)" d="M628.236 360.95 L616.431 379.399 L628.236 379.399 L628.236 360.95 M627.01 356.876 L632.889 356.876 L632.889 379.399 L637.82 379.399 L637.82 383.288 L632.889 383.288 L632.889 391.436 L628.236 391.436 L628.236 383.288 L612.635 383.288 L612.635 378.774 L627.01 356.876 Z" fill="#000000" fill-rule="nonzero" fill-opacity="1" /><polyline clip-path="url(#clip270)" style="stroke:#ac8d18; stroke-linecap:round; stroke-linejoin:round; stroke-width:4; stroke-opacity:1; fill:none" points="299.465,425.996 442.718,425.996 "/>
<path clip-path="url(#clip270)" d="M483.561 431.216 L482.543 425.868 Q481.501 420.382 477.381 420.382 Q474.279 420.382 472.867 422.929 Q471.084 426.123 471.084 430.336 Q471.084 435.429 472.821 437.859 Q474.58 440.336 477.381 440.336 Q480.483 440.336 482.149 435.405 L483.561 431.216 M485.945 424.132 L488.237 417.35 L492.033 417.35 L487.288 431.401 L488.214 436.47 Q488.422 437.604 489.233 438.554 Q490.182 439.665 490.922 439.665 L492.959 439.665 L492.959 443.276 L490.413 443.276 Q488.237 443.276 486.293 441.331 Q485.344 440.359 484.95 438.322 Q483.885 440.891 481.709 442.905 Q480.691 443.854 477.381 443.854 Q471.941 443.854 469.302 440.336 Q466.594 436.702 466.594 430.336 Q466.594 423.53 469.534 420.336 Q472.797 416.771 477.381 416.771 Q484.58 416.771 485.945 424.132 Z" fill="#000000" fill-rule="nonzero" fill-opacity="1" /><path clip-path="url(#clip270)" d="M515.32 421.748 L544.996 421.748 L544.996 425.637 L515.32 425.637 L515.32 421.748 M515.32 431.192 L544.996 431.192 L544.996 435.128 L515.32 435.128 L515.32 431.192 Z" fill="#000000" fill-rule="nonzero" fill-opacity="1" /><path clip-path="url(#clip270)" d="M580.158 411.794 Q576.547 411.794 574.718 415.359 Q572.913 418.901 572.913 426.03 Q572.913 433.137 574.718 436.702 Q576.547 440.243 580.158 440.243 Q583.792 440.243 585.598 436.702 Q587.426 433.137 587.426 426.03 Q587.426 418.901 585.598 415.359 Q583.792 411.794 580.158 411.794 M580.158 408.091 Q585.968 408.091 589.024 412.697 Q592.102 417.28 592.102 426.03 Q592.102 434.757 589.024 439.364 Q585.968 443.947 580.158 443.947 Q574.348 443.947 571.269 439.364 Q568.214 434.757 568.214 426.03 Q568.214 417.28 571.269 412.697 Q574.348 408.091 580.158 408.091 Z" fill="#000000" fill-rule="nonzero" fill-opacity="1" /><path clip-path="url(#clip270)" d="M600.32 437.396 L605.204 437.396 L605.204 443.276 L600.32 443.276 L600.32 437.396 Z" fill="#000000" fill-rule="nonzero" fill-opacity="1" /><path clip-path="url(#clip270)" d="M615.436 408.716 L633.792 408.716 L633.792 412.651 L619.718 412.651 L619.718 421.123 Q620.736 420.776 621.755 420.614 Q622.773 420.429 623.792 420.429 Q629.579 420.429 632.959 423.6 Q636.338 426.771 636.338 432.188 Q636.338 437.766 632.866 440.868 Q629.394 443.947 623.074 443.947 Q620.898 443.947 618.63 443.577 Q616.385 443.206 613.977 442.466 L613.977 437.766 Q616.061 438.901 618.283 439.456 Q620.505 440.012 622.982 440.012 Q626.986 440.012 629.324 437.905 Q631.662 435.799 631.662 432.188 Q631.662 428.577 629.324 426.47 Q626.986 424.364 622.982 424.364 Q621.107 424.364 619.232 424.78 Q617.38 425.197 615.436 426.077 L615.436 408.716 Z" fill="#000000" fill-rule="nonzero" fill-opacity="1" /><polyline clip-path="url(#clip270)" style="stroke:#00a9ad; stroke-linecap:round; stroke-linejoin:round; stroke-width:4; stroke-opacity:1; fill:none" points="299.465,477.836 442.718,477.836 "/>
<path clip-path="url(#clip270)" d="M483.561 483.056 L482.543 477.708 Q481.501 472.222 477.381 472.222 Q474.279 472.222 472.867 474.769 Q471.084 477.963 471.084 482.176 Q471.084 487.269 472.821 489.699 Q474.58 492.176 477.381 492.176 Q480.483 492.176 482.149 487.245 L483.561 483.056 M485.945 475.972 L488.237 469.19 L492.033 469.19 L487.288 483.241 L488.214 488.31 Q488.422 489.444 489.233 490.394 Q490.182 491.505 490.922 491.505 L492.959 491.505 L492.959 495.116 L490.413 495.116 Q488.237 495.116 486.293 493.171 Q485.344 492.199 484.95 490.162 Q483.885 492.731 481.709 494.745 Q480.691 495.694 477.381 495.694 Q471.941 495.694 469.302 492.176 Q466.594 488.542 466.594 482.176 Q466.594 475.37 469.534 472.176 Q472.797 468.611 477.381 468.611 Q484.58 468.611 485.945 475.972 Z" fill="#000000" fill-rule="nonzero" fill-opacity="1" /><path clip-path="url(#clip270)" d="M515.32 473.588 L544.996 473.588 L544.996 477.477 L515.32 477.477 L515.32 473.588 M515.32 483.032 L544.996 483.032 L544.996 486.968 L515.32 486.968 L515.32 483.032 Z" fill="#000000" fill-rule="nonzero" fill-opacity="1" /><path clip-path="url(#clip270)" d="M580.158 463.634 Q576.547 463.634 574.718 467.199 Q572.913 470.741 572.913 477.87 Q572.913 484.977 574.718 488.542 Q576.547 492.083 580.158 492.083 Q583.792 492.083 585.598 488.542 Q587.426 484.977 587.426 477.87 Q587.426 470.741 585.598 467.199 Q583.792 463.634 580.158 463.634 M580.158 459.931 Q585.968 459.931 589.024 464.537 Q592.102 469.12 592.102 477.87 Q592.102 486.597 589.024 491.204 Q585.968 495.787 580.158 495.787 Q574.348 495.787 571.269 491.204 Q568.214 486.597 568.214 477.87 Q568.214 469.12 571.269 464.537 Q574.348 459.931 580.158 459.931 Z" fill="#000000" fill-rule="nonzero" fill-opacity="1" /><path clip-path="url(#clip270)" d="M600.32 489.236 L605.204 489.236 L605.204 495.116 L600.32 495.116 L600.32 489.236 Z" fill="#000000" fill-rule="nonzero" fill-opacity="1" /><path clip-path="url(#clip270)" d="M625.968 475.972 Q622.82 475.972 620.968 478.125 Q619.139 480.278 619.139 484.028 Q619.139 487.755 620.968 489.931 Q622.82 492.083 625.968 492.083 Q629.116 492.083 630.945 489.931 Q632.797 487.755 632.797 484.028 Q632.797 480.278 630.945 478.125 Q629.116 475.972 625.968 475.972 M635.25 461.32 L635.25 465.579 Q633.491 464.746 631.685 464.306 Q629.903 463.866 628.144 463.866 Q623.514 463.866 621.061 466.991 Q618.63 470.116 618.283 476.435 Q619.648 474.421 621.709 473.357 Q623.769 472.269 626.246 472.269 Q631.454 472.269 634.463 475.44 Q637.496 478.588 637.496 484.028 Q637.496 489.352 634.347 492.569 Q631.199 495.787 625.968 495.787 Q619.973 495.787 616.801 491.204 Q613.63 486.597 613.63 477.87 Q613.63 469.676 617.519 464.815 Q621.408 459.931 627.959 459.931 Q629.718 459.931 631.5 460.278 Q633.306 460.625 635.25 461.32 Z" fill="#000000" fill-rule="nonzero" fill-opacity="1" /><polyline clip-path="url(#clip270)" style="stroke:#ed5d92; stroke-linecap:round; stroke-linejoin:round; stroke-width:4; stroke-opacity:1; fill:none" points="299.465,529.676 442.718,529.676 "/>
<path clip-path="url(#clip270)" d="M483.561 534.896 L482.543 529.548 Q481.501 524.062 477.381 524.062 Q474.279 524.062 472.867 526.609 Q471.084 529.803 471.084 534.016 Q471.084 539.109 472.821 541.539 Q474.58 544.016 477.381 544.016 Q480.483 544.016 482.149 539.085 L483.561 534.896 M485.945 527.812 L488.237 521.03 L492.033 521.03 L487.288 535.081 L488.214 540.15 Q488.422 541.284 489.233 542.234 Q490.182 543.345 490.922 543.345 L492.959 543.345 L492.959 546.956 L490.413 546.956 Q488.237 546.956 486.293 545.011 Q485.344 544.039 484.95 542.002 Q483.885 544.571 481.709 546.585 Q480.691 547.534 477.381 547.534 Q471.941 547.534 469.302 544.016 Q466.594 540.382 466.594 534.016 Q466.594 527.21 469.534 524.016 Q472.797 520.451 477.381 520.451 Q484.58 520.451 485.945 527.812 Z" fill="#000000" fill-rule="nonzero" fill-opacity="1" /><path clip-path="url(#clip270)" d="M515.32 525.428 L544.996 525.428 L544.996 529.317 L515.32 529.317 L515.32 525.428 M515.32 534.872 L544.996 534.872 L544.996 538.808 L515.32 538.808 L515.32 534.872 Z" fill="#000000" fill-rule="nonzero" fill-opacity="1" /><path clip-path="url(#clip270)" d="M580.158 515.474 Q576.547 515.474 574.718 519.039 Q572.913 522.581 572.913 529.71 Q572.913 536.817 574.718 540.382 Q576.547 543.923 580.158 543.923 Q583.792 543.923 585.598 540.382 Q587.426 536.817 587.426 529.71 Q587.426 522.581 585.598 519.039 Q583.792 515.474 580.158 515.474 M580.158 511.771 Q585.968 511.771 589.024 516.377 Q592.102 520.96 592.102 529.71 Q592.102 538.437 589.024 543.044 Q585.968 547.627 580.158 547.627 Q574.348 547.627 571.269 543.044 Q568.214 538.437 568.214 529.71 Q568.214 520.96 571.269 516.377 Q574.348 511.771 580.158 511.771 Z" fill="#000000" fill-rule="nonzero" fill-opacity="1" /><path clip-path="url(#clip270)" d="M600.32 541.076 L605.204 541.076 L605.204 546.956 L600.32 546.956 L600.32 541.076 Z" fill="#000000" fill-rule="nonzero" fill-opacity="1" /><path clip-path="url(#clip270)" d="M625.389 530.544 Q622.056 530.544 620.135 532.326 Q618.236 534.109 618.236 537.234 Q618.236 540.359 620.135 542.141 Q622.056 543.923 625.389 543.923 Q628.723 543.923 630.644 542.141 Q632.565 540.335 632.565 537.234 Q632.565 534.109 630.644 532.326 Q628.746 530.544 625.389 530.544 M620.713 528.553 Q617.704 527.812 616.014 525.752 Q614.348 523.692 614.348 520.729 Q614.348 516.586 617.287 514.178 Q620.25 511.771 625.389 511.771 Q630.551 511.771 633.491 514.178 Q636.431 516.586 636.431 520.729 Q636.431 523.692 634.741 525.752 Q633.074 527.812 630.088 528.553 Q633.468 529.34 635.343 531.632 Q637.241 533.923 637.241 537.234 Q637.241 542.257 634.162 544.942 Q631.107 547.627 625.389 547.627 Q619.672 547.627 616.593 544.942 Q613.537 542.257 613.537 537.234 Q613.537 533.923 615.436 531.632 Q617.334 529.34 620.713 528.553 M619 521.169 Q619 523.854 620.667 525.359 Q622.357 526.863 625.389 526.863 Q628.398 526.863 630.088 525.359 Q631.801 523.854 631.801 521.169 Q631.801 518.484 630.088 516.979 Q628.398 515.474 625.389 515.474 Q622.357 515.474 620.667 516.979 Q619 518.484 619 521.169 Z" fill="#000000" fill-rule="nonzero" fill-opacity="1" /><polyline clip-path="url(#clip270)" style="stroke:#c68125; stroke-linecap:round; stroke-linejoin:round; stroke-width:4; stroke-opacity:1; fill:none" points="299.465,581.516 442.718,581.516 "/>
<path clip-path="url(#clip270)" d="M483.561 586.736 L482.543 581.388 Q481.501 575.902 477.381 575.902 Q474.279 575.902 472.867 578.449 Q471.084 581.643 471.084 585.856 Q471.084 590.949 472.821 593.379 Q474.58 595.856 477.381 595.856 Q480.483 595.856 482.149 590.925 L483.561 586.736 M485.945 579.652 L488.237 572.87 L492.033 572.87 L487.288 586.921 L488.214 591.99 Q488.422 593.124 489.233 594.074 Q490.182 595.185 490.922 595.185 L492.959 595.185 L492.959 598.796 L490.413 598.796 Q488.237 598.796 486.293 596.851 Q485.344 595.879 484.95 593.842 Q483.885 596.411 481.709 598.425 Q480.691 599.374 477.381 599.374 Q471.941 599.374 469.302 595.856 Q466.594 592.222 466.594 585.856 Q466.594 579.05 469.534 575.856 Q472.797 572.291 477.381 572.291 Q484.58 572.291 485.945 579.652 Z" fill="#000000" fill-rule="nonzero" fill-opacity="1" /><path clip-path="url(#clip270)" d="M515.32 577.268 L544.996 577.268 L544.996 581.157 L515.32 581.157 L515.32 577.268 M515.32 586.712 L544.996 586.712 L544.996 590.648 L515.32 590.648 L515.32 586.712 Z" fill="#000000" fill-rule="nonzero" fill-opacity="1" /><path clip-path="url(#clip270)" d="M570.968 594.861 L578.607 594.861 L578.607 568.495 L570.297 570.162 L570.297 565.902 L578.561 564.236 L583.237 564.236 L583.237 594.861 L590.875 594.861 L590.875 598.796 L570.968 598.796 L570.968 594.861 Z" fill="#000000" fill-rule="nonzero" fill-opacity="1" /><path clip-path="url(#clip270)" d="M600.32 592.916 L605.204 592.916 L605.204 598.796 L600.32 598.796 L600.32 592.916 Z" fill="#000000" fill-rule="nonzero" fill-opacity="1" /><path clip-path="url(#clip270)" d="M625.389 567.314 Q621.778 567.314 619.949 570.879 Q618.144 574.421 618.144 581.55 Q618.144 588.657 619.949 592.222 Q621.778 595.763 625.389 595.763 Q629.023 595.763 630.829 592.222 Q632.658 588.657 632.658 581.55 Q632.658 574.421 630.829 570.879 Q629.023 567.314 625.389 567.314 M625.389 563.611 Q631.199 563.611 634.255 568.217 Q637.334 572.8 637.334 581.55 Q637.334 590.277 634.255 594.884 Q631.199 599.467 625.389 599.467 Q619.579 599.467 616.5 594.884 Q613.445 590.277 613.445 581.55 Q613.445 572.8 616.5 568.217 Q619.579 563.611 625.389 563.611 Z" fill="#000000" fill-rule="nonzero" fill-opacity="1" /></svg>
